<mxfile host="app.diagrams.net" modified="2020-12-21T06:44:34.456Z" agent="5.0 (Windows NT 10.0; WOW64) AppleWebKit/537.36 (KHTML, like Gecko) Chrome/83.0.4103.97 Safari/537.36" etag="8W8dyt6IhbOYgfDgVp40" version="13.8.0" type="github">
  <diagram id="V_LrqiN_MaAfiFIpqVCB" name="Page-1">
    <mxGraphModel dx="925" dy="502" grid="1" gridSize="10" guides="1" tooltips="1" connect="1" arrows="1" fold="1" page="1" pageScale="1" pageWidth="827" pageHeight="1169" math="0" shadow="0">
      <root>
        <mxCell id="0" />
        <mxCell id="1" parent="0" />
        <mxCell id="tuaS-E-eyfMuEXAm_5eh-1" value="" style="shape=image;verticalLabelPosition=bottom;labelBackgroundColor=#ffffff;verticalAlign=top;aspect=fixed;imageAspect=0;image=data:image/png,iVBORw0KGgoAAAANSUhEUgAAAKoAAABjCAYAAAALkZv+AAAABHNCSVQICAgIfAhkiAAAAAlwSFlzAAAOxAAADsQBlSsOGwAAIABJREFUeF7tvXm8XVV5//9+1trDGe6Q3ORmJDMBwg0kkMgYJhGVSQtaQ8GqtWqrttTW/tpqX61t6aCt329ti+1P6wAOCCh1QkGZAyEMAUKSGxISMpF5uLnDmfde6/n+ce4lN0dICIJc7Hm/XicnZ+/9PGvYn/2sYa+7NzRp0qRJkyZNmjRp0qRJkyZNmjRp8rohjRuavD6oamZgYKC1ra1tr6q21IrFYxPj3wfmqYrKfTkRyWaz/SLS12j7v4GmUEcIxYHqvxgx73Hi13nxExA3NyAlFQHsI3FqdyhyQ6Ylc3uj7f8GgsYNTV4frNfdIjoFo1MMHtRj1YLhKQLzySifWSEi5Ua7/y2Yxg1NXh+SqDqqaot4qlgPxlmqEuA1OIk0CAqVwpmqahvt/rfQjKgjhMAFs2oYVu7u4Zlde9Ew4oQJ7Rw7dmyQU73cIKcWi8VeVV0BaLncc0w2awvQ3ku9C6cAIqKHOP41oSnUEYLzjusfXsXn/udJvFZIxGAETpo0lqsXnfCnl5w8g3G5cHmhVMZgy1bjXdUSrVDaIbDHix/rlTuBTzf6/nWg2fSPEJbvKPHle1dwzNg81152Ou9ecBxtcSsrtvXwlzffx3u/+CN+uGIDVXVEvpxVwhk1CRNn/EAqOs1hZnsb7mv0++tCM6KOEJ7btY/eYpkPv3MB154zG9KAbf0Vblmxhm8uW8tTOxL+6BsPseLc/Xz4gnm0hBAEwcSW0E4MUALvVYz+VbFYvDmfz+9o9P9Gpzk9NUK4c+WW7/zOV76/+NzZ07n+/W+mRRQnHpOGbC2n/P9LHudrS9aS1hwTsiFtGSGbiZgyfjQnTZvA/KnjmT/zGNqMXxTCtlwut7UxjTcyTaGOEPYVyt/55E33Lv7x08/zb+87l984cQZiFG/S7tBlumqScOvj6/nXO5bSUwLnhBQlVU/VV8laQ9fk8bznjOP7rnrTiW40rt/ZEBRUJFHRrweaXmyR/xPm8z9qTH+k0xTqCKFUKnxhXV/12vd8/ibwyg2fWMyCMXnU1BCfx0vSjVa7BkxEmgYMlEr0JVW27ytwxxPruG/ddp7vqxGo4dzjx/FHl53BmceMJjAeRZ5VkeNUxYG5oC2Xe6gx/ZFOU6gjhN27d7e05OyK29bsmPmJbz7EaTPG8tUPXspYU8Hb+HupsUFquSxMbRCqpaIJNkgJnJIQsa5Q4AePdXPTPd1sKdUY12L5+AXzeP/58+mwQuAdzgRPE4Yfy0XRssb0RzpNoY4QisW+yw38oEIg/3rncv79zsf5yEVv4tMXvwkJnQ+dxfqqMd5SDIJuxHdF3qDG9Im6bULS5YBN/SnX3/EYP3j8Wfqdcv7sCfzVe97CvDEtGElSH9qz81H+8cb0Rzq/kumpnp6eaeVy+djG7U2GYcwZNYkkq46PXDCXM44/hm8uXcnqXQdIjO1FGUiCDBUyfPHuh7s+cdMdrD9QVidaTI3vSiQDPmJGa7zx73/zAv7tgxczqy3kvuf28uEvfpfbn9tG2RBomnzuwIEDo4rF4m8MFCs3FIvVv23MykjkNRfq3r17J5VKpbt7e3vv6+3tndm4v8kQ8bZA3C2IpyWT5Y8vO5ta6rnh/icIEtNmcPma1AiN45Q5J3Bf9zY+c9MdUvMyKUpdFXS1BqAmXNIqCRd3Tat84xNX87bZ43nuQIk//tLt3LxsLV6j8+M43GBE/87AAhU+2piTkchrLtQwDMthGG631u6y1hYa9zep4zTt9ugiQch45dRJ4zht5iR+sm4zpUIaiLog8gHVqMpZkzv40IVns6u3F28DnMk8AcwRTfYL/CaiezK+uuPY0TFf/PDb+MCiufSmwl/d/DD//dBKCmI7PG6uaJIz6PWNeRmJvOYT/qNGjTrQ09PzTmOMaW1tPdC4v0kdEWeMkncYRDx5k7Jo5njuWb+Tu9ds4N0LZ2O99YmpkfE1c+WpxzJ9bIZYEwQ9Eaw1QozqV9TYVTi3INK0Y4zo4k9duYh8HPGl+1bzL7c9jAksV581lxaTzkBdb2NeRiKvuVABOjo6/lcu9j0arHKMKpu9kW4Vv0i0Nu0t86bzf+99jp9t2MQ7T+siVv1U6EN1gfzzzFHK9LbpBK6MSqiI3YbSbtQvTdT+IyY8VlUxVpiU9vOpS04lMAH/cfcq/uE7DzIqm+XK+TMxPpED1cL8XJInSmoUwxL5/KiVIuIb8/h60hz1j0D6+/vHBpH5SDHl76/69x+xo7/C7Z+4gkltstuJGe9FCB1YlVtT5/5NomhPmqaFMAxHx3G8cR/EUbk8N9BAU0klTMpIlPlcXznd+zc/uv+KG5fuZHyL8LWPvJUzp3SSWkOQRgTqqAVVSsVqe2dn50Bjvl5PXvM+apOjp62tbV8t5cmMEd595gls3u9Zum4LohKj5r8EKacGasbvyrW3L8tms8+1trbuzmQya0Wk1iky0J7LLcvno0fac7llufYxy7znttY4WPMXl59XPO/EMewoJvzp9+5hZyElTtwOZ6oPlUK3X3z0X2PHjq015un1pinUEUoo+dVGPReeeAydOct3Humm30ejPOFHjTf3geKPonXO5/P/tn379r8fmzW9n3/Xm5k0NuaZLQU+e8cy+gknoX6Rs26MIB/dt29f1Gj/etMU6gjFJJW5Xi3jW1v4wDkzWbKlh7vWbCYRMGI6Ag/BUS6Rnj17tkklmjy7I+a6S84mCiy3LF/LnWs3YxIh8Efp8FdIU6gjFB/61RhL5GDxWV1M7chy3Y+f4tlde3HqzkhMiFW6Gu2OQC2GBxHZc/HcKfquhTOoJJbP/+hBNlcd2SShHKSNNiOCplBHMEbBWbonjYr504vPpGf/8/z5DT9lV9URutqO1IRLG20Oh4g4cXzWYW/PhyQfefsZTMzCuj0DfGfpUzhiQh2ZUbUp1BGMUe11YroymrJ4/rG8/eyTeXRXjQ17eokork2Jzm+0ORyqKqlJ3uGFy4wSdY3J8b7z55Mg3PTIOrYnFuuUsWPHjji1NoU6gvHGP2Z8gFGLMwlbdvQxLhQmj27DSYSitzTaHIGM4H/PiYxTCYmd5z1nnsykvGVrX4W7Vj6LE8O+fftG3LRlU6gjGBX/VoPDeMP+1PDs8/s4/7gxTMlGFIP4nNjVKo02RyAR5DMi8hkv5jNgPjOhJbv3/GMnoNbw/eXPUHWOfDZ75YFKZU+xVN1TKVRuGhjQ8Y2OftU0hTpCycHg6vwEFXhqw3bK1SrnL5hDRpTEmEKgelQr0kQkzeXarmvLRNflctF1UUvuupbAXn/V+W8iZxyPbt7HY5v2YPB/bdWNRdjgkasiak2hNnlpBFkJkBrDo+s2Mbol4pQZx+AkJU5ljxNbbLQ5Wkxa45QpEzh9aifFqucbj2+gJDIj4xxeaxP9CFHICMlGkxdD0KWCUlXhmV0DjM7HTMplcNZVsqmNU2Rco83RkqS1fa2B50MXLiR2KT9buYU1+4o4Z3HWT/Ok9xt8Z6Pdr5qmUEcworYF0YICuweKjGlpIRd4vEgG0ukY8+5K3/5PlosHbiyU0vcliV7Q6ONIaBCUhPTn586ZwoIpHRTKKTc/8BRVU396kEF8OgJ08rpnoMlLkUMxnc7oPldzFKsJ7XEb2BTrMtSCFHFpSy3I/svukvttL3qDqyZf7unpaW/0dDjy+fy3vcZ3thmevub8kwgEfrh8Pc/0HCB05imQvjQyuxvtftU0hfoGQYEERUUQb0BkO8b95Oann+dT33mA1Ffx4mfFcdzaaHs4isXi20T0LMHuOHf+8XSNz7K7kvA/D6zEO3sKUrsCXv81Kk2hvgEIAkMYWg6Ui3gxWBHwwrq+2sX/cOu9/HzdLjb2V/C4B3K53K5G+8NhjDsB5AT1evH4SHjXm2aBCrc+upFn9/WhnqTR5vWgKdSRjPqKKhljhI62VnpLJSo1hzrwaiffsvSZUTuKNfrThJuWrETEn1ctDVxeLvfOKvWXFvWWe2ep7mtrdHsoklN0rqLEvsq7zzqZqS1ZtqfCLY88lagPd0RJdEpvuXdWf6m0qNRfW1TqLy0q9fcvqvX3LyqV+hcVa8UFjV5fbZpCHbGU8OLGIEyw6jludAt7S73sOpAiktDrlPtXPAvEYIW7n3iefYUqwG1e7aOWcEkg8tVyOZrX4PgQnJMv4dJ56tN5FuaNyWT/8oPnnkhgytz42Mbw4Y17p1VVvx764KsRbomYdIlaloi1S5Bgiahd4r3e3Oj31aYp1BFKCTDWrBJvDyDK/Gnj6Ss4Htu0GysJfYUCewZqYGt84MwT2NK3n68v20BVTHfgax1qHOrtaTX1pUbfw2ltbd3T2tq6qrW1dVXc2rEqDP3WK8+fz2mTR7G/6PjNL9/GVV+6jZ+u3nFub8mRBiVSm1IxwYFiYFGNezK1TKPbV52mUEcw3iOBiyoY4YJ5sxkbx/zoyfUcIKS/XKHPKS2x5b1nnMjcaWP59tJunuutdKEGZ1y3Yr5inNna6Pdw2Foi0yLLv1x1CVefMpu8Dbhr3QF++8Y7ueJrt/Pth7bhCjGZmquElPGmUE2D2upGP682TaGOYAxgvJ3o8EzMwKXzZ/Lgs1u5a90O9pVqlHCMi9qZMirPH1y4kF19B7jxgVXUJCK12hUoH8oQnNDo9/CEgOXkCS184X3ncdenr+HG37mAt80aw5Zd+/nUd+/m6i/fyn079k50PiLwdqJX5m7atCnT09PTroXCRFU9Qr/46Blxq2Sa1FHVTKFWOy5I5C8SqdxigfV91e+99wu32aLPcvzUDu7tfo5zph/DrX94KUkt4U9u+hn3rdvJrX9wJfOntoEPiB3nRW25Bxv9vxTFoh7jbLogojQN5y81yE6v4blVKK4/UOy65ZEVfGvpalQMf/y2M3nfmXMZa3wxsbY7UR2XczK9FLlNQnh5WyazptH/K6Up1DcQfYW+2j0b9wV/+pU72VY05HyFv77qbH733C6sd2zuT/n4F28j2zGWr3zwfEbZCGPD83K56GUL9cUoFmsrjFa6HGoHbMzTm3fx+e/fy+PbB7jwuIl89qoLmZrLb65ZPw6juUwNUvHX5Fpbv9Po65XSFOobiFKp+OUEt3hTT6F12bpdTB49mjOPn7A3tqXOwFlUs2w6UOQjX/s+F512Mn9x9gnYIDkvynX8kkKtrAg0WYr4jzoRxFn2eOFf732EW+59mnGjx/D5a87nvLETSXKuvkIbPS/3Kj7estlHfQPhNXhbBF89YXSm8sHTZ/HW48bTIuYBq9GDgvkWwj3Tx2S5/ncuYc2q9Ty5cz/pq/CMEVF/G8Yu8RrtMN6iJlg7Lki7/+aiBfznh99JxijXfvk27t/2PCYVPIoT98snPIxmRH0DUS0U3l8z0Rjg90VV6idPvKhzGHlQXLIysfKRyNuOnbVk8u1LH+f8eXPWTOnsvDPGr/M+3U3IjnyUX36o55fmQLk8PUIeNl7vQf01KpbEO1dJUttfg6JP2V4s87fffYievl3c+LGrWTA6qz7wi3K59lftOaxNof4aUSkWLxfkxqrwDjUsKVarPNG9nrkzZzCute1nkMxW4bqWXMuNjbYvRbncO1OdPlrUcMzm/grL1m3n3pUb2Nw7QKGcUC1UcM7RbwXjUt6zYBr/+FsX0mrtR7PZti81+nulvKrhucnri1VTc2g5EJ5Pnd+QD6PON510Yvum5zbSkc8TGDkXf3Sr9b1nrGBGfeEHD/DVx7fQU1PwKRkrTB6V5bg5U+lsyTOzNc85c6dxQkeetjRkKN6/WjSF+mtE2JL9Wbm397xse/uB8kD5QyISGKvXn3jCsSeAzDOpvN2aeEOj3eHI50c91ldOulvGjT+5t/IsHsuVC2byvrPncMbUCbQYcCKoSRFSPEKFiPBVXstyRKGWe3tnJlF0jBXpMiSiCasDa7ucQ3xo1HkrIU5xVqACIeo0LrXk4pfdvAAUCpVLjKkVAvFdDkNqpLc1bv3OwMDAXBF3jBUzU4XVKpku0Uq3CF2ZTPEbIhN/6T/HOBz7S/unZDS83BAqgMcKBnXeiTVW01r51lji8Zm2w88ZFgrlD6aW2Hgv1iTqide1ZDLLK5WBa7xHjEFrNb01CKLFznhVUy22xx3fGO6jWCz/vjFWvHdijNVEK90EvssCLjESSLoaYW6lWJllrP9jVZ4wwhSPoMoEJ+H7U9XNxWLa5cJaN2jXwN7eGydPnvySt1mrhcJ8TQaOu2LhbO5YtoJHn6+yfvNeMm8+lVjqY3EnFuMNTmICdHXkyl3evLrj9CPG50qx/8pE4gs9/qOxliQ1We2teNm454BuO9BPXzGRtozX6eMnSdfEFo1JcJrf2dISTW70dThKA8Ufq2X67lK5a/WO/bKtp0jGhDq2Pc+xna1Mbs8SGCOOSCNXvNWLnuaM/d3WbOt9jb5eTQrl3rcK8mnrsieoqUmqrhOpIEkZSWtY71BV/OGqUsF6SAKPcYrEMT6c8ogxyRcMcl4qLFA4zSqITxCtoa4ISd+dQnU7JjcDxarJnTf8lFmfdHsTdIkNIWgbSLz0YoMpohFi+lDXggZgkgQqW8F7vEkJvMFFeVymk0CzX8zl4j8clttfoFAqfBoxv7F6T/+cj3/59vzT+yqMiZRrL5zPVWedzLh8gIjtMUqHUXZ4U7s6l2tb0ujnl+EwtVunWOy/UiW6UNVdpMbPXrJxv372x8tk9dadlL1BNUBsVdvDQD58/jz+8C0L6VB2RG0tRyXUYvHAjx/Z3HPZX333UZ7eWaDmHUYskVaZ1mr00jNOlD+59CxtJxVR0VRMt3PxBW1t8pq+VrEuVH+DdfEEX9zCgS23ILsfQgb24mpFjCaogvrDv/g5tUqgKUoAJ/8WnXM+sSfVju+qBB83UsK6A1R2Ps3ArrvRnjUEhQMYN0B9yTSAgLjhLjGAsxGVaBTaNp3cmJNom3Yx5KegWOI0Xu8Ms31lC9t//idkihvwpgIak0y6hGMW/RkuGLMvl4te8m+vqtXqXJfKMutrpmZNbc3+Qvs/ffdBfrZ2N15STp2Y55OXLeKiE6fvyvh0gqgnMar5fNvhK+QoOWLT77CI6BWB98v3O3PsX97wY7oPpKQmAjGIt+Cz9JUTrv/pU9oSh/IH553yshcplMvlzzrHhnX9xbf9+Q0/ZUVPgDdK5AuaGisDkmF1IZBn71qjs8aNkt9eMF29ZMRj89aW4kZ/rzouj7i+Cf3PfY6BJ79Ha2EjqXWkIggOL/VYKke45iM1ZFMlMYZKBSC/V4WcpVCV3sfjvY/+F7L9biz9WHWIi0iGTvULrg99ep9XRXBkBdj5MCoxe1fdQMtJHyd/3Hvoj9OpgQ8wYY2o8hz5wgZqFhCHq83Hh0rFHH71fpqmGaNhBNRiX2s/uSPT/cUPXNT17WXd/Mc9K1m+q8a1X/8511508oRr3nx691jLbOPd0T4Y44i8vI6E8pTAZRu275f1fY7UWBAPOIwmGC2jpkKfzcmN9z7N7oHa3GqhcEqlUjm+VCpNaXQHUCqVphYK5bc750Kv6cdveXBluKY3xVtUBVITiher9bOU4knl/md3amJUUitboWYNtUNelFAoFCYWCuW3a7++7L+arFQqx5ULhbeXy+ULAYbyO/Qds4fKlh8y8Ni/0zGwntSkQIJVsOQwjEJoR7T1pT+0ktgWCsFYKnEOxKFKl5pksSk/279zyT8SbLsd8SXw4BCS0CMYDBajAUZDRDOHfDx5UsnhsKgRDEp+YCP9y6+jvOFmojSMM0lmAxpVRVJS66hYg7OKUY9NM9gjtAT5fH456p5JA3t91UY4ibpGx5aPnX8yP/rEu/ij844nm7X80x2P88WfPthVIBgwJnpnqb90dqOvX4YjRlSjuhEr16sEKwYqlU+lXjFi8UY1TENOmD6GtVu3SoKAeN3c5+Tna7eMe//C6Q8GKYk3UVopDvTHuZY5IlIDKBaLC71JP+fIXWDwsmfA620rNlIVweMQIqa1xlqWGrsLAr6qXjzlalU84dpATWdEdVtKdmGlWHlO1a/2Vrs95v1BKhPLtra7v1QqZbxfHrW0LG4s03Ccd/8hIheh3g+UKltqom2VYrHfOtnRWy52JOm+0f3dN5BJSzgBZz2E4whO/WNGjTuNJBpF4HSvqzx/hMGjBx+BqWHy0xGN3mt9dUJh0725aN/jhJowEEJr4imbsXD8u2ib9naiTBsqGZQIb2qDAaKO1Krd6vq7yjseoNx9OzbdgvOGyO2lf+WXGT/zXaRBJ9alOAFFMaSY1OJtDQwrrHL/wTy+ON74S2sVE5GRLyNKRgwW7JyOltl//s5FXVeddeJ7vvvY2oXfXdpNRy4/5vfPnUNs8/cUi7Wz1dT+zWjwpPH8LNOS+Umj75fLEYUq4mf6JFmaBkFF0U8DqgioF+OrXHTyZPbt28HOYoBNwYnyrXseCd5x6uygw3hFEY+M3bx58wvRO5fLrSuUyzMiLYsa4YfL18vGfaV6wyZInBa5/IxT5fYnupHBLpoXEcEjyPEooopxxs3xohGeGUbZFojbFKBjVGW8Myb12CPeGRGkDIDqvoBkRqiK8TrGGRFvZJKvVCMq21FqeGswCvHUtxKe+CE8rdSiKpK4Ha3ZhX/W4PqwlAvV86xJJpR6niP0RZw4vFFKtoVM1+/SeuofIRL3ITZCzRcQu05MgihzVP0GjOkQ9deoMbR0nk+YnUrP8r8gU1MMnrS0jUppG0H76GMD9IWergFEDSqKSrpM1R/xEej5fH5747ZBNgB39JeLE/7y0vkLrzxpJtf98GFyuZD3nXlqFIjLiNKlqmc5oQy8YqG+vKZ/OAJqABXUJExtCbjy9C4iDEYFvNPuvWWWbd5NauxqwT+EmE9Onz69OuSiXE5OFQ1mYKoMJHDz4+vwEoMI4j3HZDzvOG0OiKD1DtrwDqAAWPVLAvxenKIIxgUfcz44u4rfCCmiGqiYd1YqleOH2f4C6tKw/hee1ng1pGqoSIQTpht8n6mVHgi1hDVDPURBoyzeBBivhGlAQPDMoV6PjBddr77sNB3AikNQMkmAVSU7ZSHVaBSJzUtqYpEwXOpNOtUQTxSJP2ZM9g9F4z8IfL4j9AHVMEs8tovAtVE/QWBIIClwcDD22hF7xRB2z5k6gf/8wNvYum8PKzduINX006IaqzT2ro+eI0bUBobiG0aNpjYgAN638AT54SMb2F6pETrPgBvFTfc8ydkzL1k5SlzVe7v2EC9pihWr5dDu/+nyLcma3T0TjEe8EQ2AK845Rabmhp6nrMKL1HYqcvlda3fLoxuf17I1WA3IuIr+zkVnzB4XuG4lXYraj0gquUbb4azqKZ198/3LKdvsWCuK1RrvWNjFORPHYXytM43icwIneA8ei1AXVaCe0HmciEL4QKPfI2NnimKtTxGlPsjxAdYkqMkQahUV2ybKCk3lbSH2RDXpOo9+C0AEajbzW5EmhF67VWyXIUUHmyDjDdaHHGmQ92qQqO22av/EkjKqHT51+fls3dsDwtvweIRfeq77aIU6KBpVBRFRFUTmTBzDhcd38s2V2yW1MeJL+vCGkjy3t//q0zvD/pJk37158+bxQP3pc0GA9yrFWjD2tmWrKHsIqFIzWRkfOa5404lYjyCKqKgTkbpe0cE8ICIs27KTf73zKakGgaJCzldl8TkLAm0Nuyx+iYqH4PCDhZ29Jfulpc9SI8RriJECc46ZwFlTOrEaoYjBWEIVEhVELb5YQtKEms0gpixO4w+UizXD4OyRMy4hqC0W7+pdFw3AmLtNGr5FsCS2hkpi1VunklqPwYvH2wQ0BA1QjRBxy1B9PrDBj7zTWMXv9+o3GszZItzixV3uPKNU4y4hwItixQ2GLwHRwev8tSXEeNHq92uBQ32ejC9zzPixCDyrXn8igYxGZFuj3dFwtEKtX64qgyLy1JzvD4y/65oLFrzrf1Zs1QGTEzEF2e8yfPehVbLgygXttqGDYZLyDrV2yTPP7z9n2aY94glRMRh1XHjSdE7sbGdvsbIK9CQQUcD4od7qC2IVg+IxqJp6XiQk0Pp0kQFS0SM2OZEqiQSgDohwxmKwOJuAyxKGbfQEJ5J1e9CoRkUEdt1LsOk2okkXILYNMekCZP/0IZ/WBXlTy7QQCN4KTgTrouOSqJJ6cTMCH91iPBcKAWocikHw9WkpjREciKIu/KeWlsztg27vGfIP3AhQKJZLIqCSInjwIXWV1uOJSjr4/9eWuCW+kcE8vVYcrVAHI+rB3+q9Gp9UTpnayVnTx8rdm/txJoPDcPvja/jo209leu7QuTofyiSn/twb7nqCAy6LSIKXiHbKvOececRGCY0/6RCjl67xX+gWvJpomKPttMX0LllDLtlB3gcElX1U7/87Crl/J86GWBMFTji42EM8PhBcNAbNn0Bu1AnkJpw6xYw6lkTaCL1bLEPhdxivaUHe4Lw8obagg432sLpUBSQMbIsjXNgiuu+9F5w65pGv3km/hCiebWW4Y8Vm+b2zjj3kHKQEPNdb0nue2SEqsYpPUEI567hxeubUTkDWJCJzeAlxHnSm0HDxaD1feM/LGipKvXF+cVTxkiGa8i46zjTsW3kjUf+TVOIBYr8Hn+yjWg2IfErNHhSe9YZMEpHaBGcepGiy9OSm0XrsYjrmLKYWd6JWsINvIRnKwPDCqr5E4V+CeqlfnMPtA3PYvSOFlyfUAjJ45DBRCIAaEYMEx6E1OeeEqTpvagdLt/eKqicxeb11yWpdfOoMGTdu7O9XCrU4taXxiXLsDfc9xQFn1VJE8IQ24L1vPkNaSLUiYZfWFzwcPIcHz5rKYD5UBg9Q6nKTgweaF0bph0cP14kTQerTRmszMy57fvK0c8dUdj12arzl59iedZTSAVJRjPeHqCpVpdf1IpV+grRK4MtEhZWUV21gV/+jjD3vehLtxFKfCHmxDIgoRmofL1QKl4Hh1O66AAAQZklEQVQS+hTF4I1HNHxc1Y9R/AtRXF7MySCH2wf+sHtHCi9PqC/OUAHVeqUWCJ1RyhVnnCgPf38Z3oOSytrdvTy8cQeXdk09x6nMF6/jtx4o5n+yYiOpcYOhz3LKxDyLZk5GVUnDlMgnQ2k0XvFD6crQi2bk0OjzYja/FEEmc1lGshsHBgbGZSZffEp28uX/jS8e05L2g0+pz9cNr0rFpc+T7F1N31P/jQysxqOErkK65S4q254kmvqWYce/GIJofJJ6GYdySqoxBkXV3aNq3w/6GMb/AHh/o+WvI0cr1BcTgHijA4LBimu5/E3H86V7nmBtX6pojZIiX7t/DW+eM+2yICiGcS2WH69cw/b+ooIVb3Ka0VSuPnc+HZHHqN9qfBR6zMQh/wAcnLN+YZtzQ/H0BV4sf68ara2te8rl8nOJumPU5iDMAgYj9Ai+IMpEoFfVdqYyCdN2Gu3eUFnyVxh6MSjGJPjibuwR1msqkNjauMhXx4hA1YZ4tb2Baj9UIiVY6H2cezndm18HjraYw5sJBTTxvuiN/4pVuzlVGBsbXbxgDrGv36t2eH1o415dvbcUWu/ZmTi9eWk3FQKMOkUDZrVH+taumVtE0gEnciB0Nj/YIA9Fx8F5/0PTV603/0O/h+17zfC+UAq92x87S5RmCF1EkEbbwyReZV1UsWm0OUyFnCtiCDD5PKWohjODYd+nGD/UkhzKoQUQVDOBaiau7NsMO+6GXfeN8tsfu8LtelDofzZrfbKgbvcrKfrryi8TUQXAO58KtfV4e05qo0QgXXz2vOw3HlotW6qhCgUpONWbHljJ6VeeLj9/dquu31tEiTGaiNFErzzzZGa0RJ01SayRcEqQSlaUhPpjO14sogJIfcAhWp8vVEHAg4J3Tsw8ULxz+d2qLS+1ju2nT29CtH5360WKByjlQqVFVVsASqWSOFM7IOrHCB5wqPiTUjH1WQrhTSp0pybssg7E1XPkDHhVUAsaUI8RQ2KtF+6FHGi9U2NJ8eJJipvoe/SfyZTXYl1MNahRbZnJ+DOuI554JmrjwcHXUFXxgjeVoaqpp6EoQ/OrquYUJ+wfKtvLZaBanRJ4f5lIsjeTafteX6VyduBkXkBKagLAg7f78/lo+Cqq2tBaj1fC0Qq18WwSBDYrGpVMoFfjZLTJ+c0TW8P/uGjBse/52gObxEVG8Sp3rdrEkxeczM13rZCUEDFVSPM6vq0sV502Byd6bSzhMudcizdG+kr+auDaFxI6OJx6IYaqDzFYQVL1ooQaUEQItby7xKh5sZYRWNJSLvISS9ifVSEOXJWqaSVyVaov1MhQUVMyJvp2tVzq9F7XGIggzKD6hEg6SmE5mLcAK0Q5HWGJeLnE+AyYKt4V63eJFFIjRGkItkoqbp0hOtZK1lqjVAiIfUJqlPLex8lMWIRIgJMc2SnnY+MM/Us+gwxsIJuWCXq72X//HzLqrL9Bpr4DV9mN9QkighoFH+ONBeMwmiO2ObypzzmnQQqVMtQKZ5DJUyqVvgeaFaG+PFP1TIMZraq7VCgIMh+4G1gM3GKExQ52Rz4ZXyuWvkYAzpruwPkuL/WXCUc+KhWqhf+bqZlWb6Am6b8Afz5Uu0fL0Qp1uEgVECsSAUkmk1k/tKNaHFh3zelz9XtPraevFIjHsLPYzz/+6EGe2NmPwau6QJIo0cvnzmZKa0a98Vdk4vxXh3w8tWn/1UNpDPseQgGZ0ZnB4FFpAV9VdancvmwlUy5aMCnA4AlwIg2mh3Bc1Vq0PkzBG0/jJEB9IYzrwoMRxg2GJRCOQUGEWYPfFw6aXKKk3aEvdOneVex96n/IkGC8JXAWZ4HcBFLJHh8LRJk5eIS42ooP+gh9lcKaH5AbM41g0lu31rCjVXKt+QkLCc//a3Y8+E+09j+G9ZCp7KF32Wfo6H2Ovi13EGoZ1YhAKjjTQpybilePxll860LinmcIMKQ4pG85pbXfomX6NWi+/a2DUynnIINVoCAwTXihvIuHvgMvVAJjq2meDH1kU4MSdiXWEVezuHCAQGvG+fhZFU5E2aXGHnHxy+F4uUIdLtDhm15iis5z6qTRct4J4/Vny/dQFaWM0Z+s3iGqgRpVrBodlUn50LmnamQcVW+7G71wUKTQ0DoKDFw6/9jMbUtWBY9uL+BAajbis3c+yXeWruL4aZPJRQY1B4WndUEdwq6BMtgMCKQKMmy2RtWTFrbRd8+HkFo/LwR1Aa9g5NAraegfr9Ll0oS4uo+M9pNYh5EYH3kYdxGjJs8nwaAI+VmL2LF1PPmBHhTBekeu8Az77vr/IPtPU7MtnYjJUdJ6R2FM2ocmEdWwijMl4tIu+p/+B9RlSA1YEsomRzhrEcTtiAa4IKC161L27f8pmcoexEVkqgP0PX0dB1b9F6HksdYig5XjhkYug4UbKp9QL7f1GXLzrhhr2i9i95rrSTJTaZt6ErvXf5OZZ3yenQ9eR8us3860TT1/vhNFkTtEg6N6ZHsjRxSq44W8DueFU17fcej9dE8EYcrvn3ma3P/UT0h8ivMhKqJCWbyJMOq59MRjOX5cG9VAySbhIW9KHjbUqCfxghrqv433906wuvBzv3Pp5M/ddqfes243Jc1Sk5ys71fduHozTkx9tDX8amooiTEJ4mMwiopi/MGEQEBrBMUNSK0XHXZZyuBniKETKSL1K2LwWBUwKvgog064iDGn/xnejCNyKc4Y0rHzGD3vnyk89WlMcRupxKCO2PVCYQAKWwZTMBhRaqq4gHqEVoMzKapgpUagDi8t6KR3MvrUT+Ili4rfIN4mwYTz5rQt/Ef6n/w8QWU9oVOyNfB2R72OBrNdT+kXqulg+QBDQMVdStzZhZ00lbbR5+G8Z3TaRv/6bxNWBpBkL0YFZxUPvj6F98o5olC9NV3Wui8FCYFIREYSArGSBkKc1ggwOGQxcNOQTRp4rFPOnj6Oay85mf+69zHtKdvBOXlLoHD2MXn9kyvOldAq6u3Bq3iQUggZVSLjMBIQ+Bqx1sBHhJJQDuzbjWowd2xUu/4jV8ojz20Nb3/sGZ7aeIAD5SoVH5JifuG+U/3+t0HFIEDqoawB4uvLfLwFb+rDJItiVFCyqFYPnskhX4OfoZNa/10ftvhAwIYk4Ths+7G0zLmaloln4sKxj4hkYkiXo+nPkXxX6/TLyY1p+c3e5+7pqmy5j7CyDUlriHo8/mAqCl5AgxCnMUYtmANAgqRC4AQ39iTGn/UHO9PccbER7TAkk43PlLy4za2zrtiZHzO9o7Br6fHlzfcTHtiKTQ/gtYZXZWhlhGg9xeEc8ltz9SODGs53IurQoAM78QQK2x6lZdJZeBOAc/ig1m00GhofvmIaL5xfoFIsXmm8v00Q3VV18tjzezRQkVSEyCc6b8IYmdSWvyZozb0g1IFy8ndG049Z57JVibJrtu/nwY1bZF9vj0Y2kOOnTtPT50yVzgjN+kSUABX7k1wuvmzIx5b9/R/Z8PyuLw14C4gGmkp7S0ZPmTJhnUplloh5RLyeJMjXVWRiVWUxgqRJQqHitFIDZ4R0eHhQsM4MRoz62bh3407+4ls/p2QE4xxeAv7zmnO4+rRZRC5EfQ/JnsfBH01NG4QMYTZG8uPRYAzexiAGwfyp98GaIJBNmUxm3ZBFoVj5jvhkcVDZjS/volTaj3GFej6H8B5sgAjbg3zHZIKYwjM/wHR/E6N99IcGEUs86RJaz/w7TGYWasKNKn6mmH5E7Y+db70cqWHox6UDSKUHU9qFS+t/TftyEE1IxswiaDkZDqxBonZSkyesbsNXetFsJ1bAZo/HhRWC1PwYzazNtoav4WDKWVIr6myN0YHqJceNA0SND5yI2ZrYtLOsh846ZNKAFM1UAxcEVOTUSW2cNGVeTyIstcrU0Ok8rF8lPj1JFJzITV791uE+xsT4zuMmbXDIZKM+E6hTlVA85ePLFnKJOdGoWRnl4z+vVCpTs94v9tapiRxjQ4MI37JeBoZ3SkQlWzX2A4YUSHE2ZPzeAOOrqA3rzbRTjPMYFNQgto1w4lthsHk8qJvBKDe07ZBv3+1trSvFo9hVxscnCb5bYFk2m/1PGLx3OgwxNcDgs1Pw+QmEtkKYxneIl81CvblR0d9TxCA27xFSW6FtwTxKUQcDaz5HpuJwxqOb76a/DKMu+Fuk5diZTgCjhKm5PNYqgkM150ObMz43Ad8yj2CoAEPlayzXsB/OpFgiYieY1tlUrPiI1Jigy9u8MdXAI5qSYhGNCuDE4J8e9PyKOKJQa7aGiKngg6+DGi/8norpSa0+q5oeA6ZViBqsKojoZrCdqZhxPlAC+C1VfZcRWWdhnnq6nITdiHSJ6J0499RwDw6zS8X2Cz5STFsidpQhxXq7zqrM8uJ3izfnFsuVmsOvCYyXILWEGg9V9Xu9KFU7rNEQiFOw6qlJhoHU8tj6bTibxXhBNAGrdLRmsQr13pp9XtB2oG14cKsz7MQO+xY1XUGSH4zmaRD6lESiLoWucrlSgHS7qlkCPD5ohTi6LR7FYV2EdTGpTS4e3v03ahBVUDfKAkESUIsd8cIPI5kOCk/+HzTdRS0sYg/czvb79zDh7E8TjTqTGnkUuqvWdDkJ9wXK3oDKbnBzxQdjDxZgkMZyDf5QNBWkmHGm3ZpeEtoJKawUb2c5k/zQiz0zUDPLaLRfqK4RH5yuYmzcEr/Q4r4SjihUi99qnXzXatDixJIYvhmoW+olXYDo+jD14HXTcJtamKxQrwOZNNMpyHiPJ7HJSQgZ7+nzhm8oIYoB/BOoXxOJHDIiC73vjbz/ioqMT8W2ezEdNWP3ZsV46xnv8enq3fumPrplb0tNZE6oKfVpbRFFX7hjdejaIAGtJ9NfS3h49XqWbdxGxefqXQKbMiaTMG/qeFDZDPqgh/pdpcYTeRgER0BCKiFoiBIsxwv1DrN53HvJWWsOeR5BKpmemuGbmIHRVplr1D5ofTj8EBIzPKR7Qm/ARwgZWmdfucC2zzxRe9eiUiEhx6hUKQykjGr3K0TjVYhbHbviXMXu9hLGauWHCebt2IOLW46ECDVRXwDtqBpzfKpCqOZp1fghH9Taofaw1dxS45xgElTtZjXml4qmUI/lb0iKlco7rn/oiR985taHSWwOq6n4+kTEYRXlh3qog4eqs4DFmJSpQY2/u+oi3jV/eo+IPJzNZn9TRH6hmX4tUVUDhEebrqpGQAiN70ObAPW7QodfXPAKUNUAQOSF9UGvGUeMqCOVFLDe1Ee6HlSsegnkxRYkD8eopz4ur+vZqKM9Npw2o4NrLzmb06d2Yoz5snPuwNGK5dVARDwv0oc9EoO3J1/xLcpXwq9CoEO8YYUqsP6YjtbCxfOmtmDqF3ZibL0P9wsoDHYMrHqMKoEJaM3nmDFlFOfNmcXx2Zh8mJCaai2b7fjLQaMmI4Q3bNMPUC4MPF4z4ULrnVo8qVgZnM55cZFJ/UaCUL9FIVr/JKT4wGC9xXrzYLYlc16DZZPXmTdsRAVIlUuNSyYo9a4A6l5CoQcZujIP7SAYTAKKwxvdf8iuJk2aNGnSpEmTJk2aNGnSpEmTJk2aNGnSpEmTJk2aNGnSpEmTJk2a/Hry/wBFy5KNyjYXqwAAAABJRU5ErkJggg==;" vertex="1" parent="1">
          <mxGeometry x="50" y="90" width="170" height="99" as="geometry" />
        </mxCell>
        <mxCell id="tuaS-E-eyfMuEXAm_5eh-2" value="" style="shape=image;verticalLabelPosition=bottom;labelBackgroundColor=#ffffff;verticalAlign=top;aspect=fixed;imageAspect=0;image=data:image/png,iVBORw0KGgoAAAANSUhEUgAAAR0AAABCCAYAAABqxQLtAAAABHNCSVQICAgIfAhkiAAAAAlwSFlzAAAOxAAADsQBlSsOGwAAIABJREFUeF7svXecXVd16P9da+9z7r1TNJqRrGp1We4FW8g22KYZ22BKYjqmmk5CKI+UlwYJwckvLxBCMxAnpgccQgnEFGOasQ022OAqS7JlWc1qM6Np995z9t7r98eZkUZjuYHEIy/z/Xxmzrm7n13WXrucfWCaaaaZZppppplmmmkeNWaWm1k21fxXwcy8mdWnmk8zzX9X/FSDaX59BgYGrsiybAR4w1S7x8rAwMClqnoc8KypdtNM89+RaaFzGKjVau/33hdTzX8VnHOXZ1l2xFTzaaaZZppppplmmmmmmWaaaaaZZppppplmmmmmmWaaaaaZZppppplmmmmmmWaaaaZ5KGSqwa+LmZ0ZxnfPGmyLcBeAoxzOJb/pQNcPTzB7lcFRU80N7s9FPj7V/OEws6wJ8zpENk+1+01gZssILMNzrYiUU+0PN2a2AOhtQdsTFoPvgHQm6PWZyH9Ndf+bYsxsscDKiV2qHm4RkYEDHP2amNmyCC90cAVtenEsBMDzoxFGZuV0zUswUocOwBUUqSa1Ww8M5X8WZjYLWAQQoG/C3MOwiBzQjm3UFpJzNP07b5S5c0cm2x2MQ74juSQ+ISHnAQhqChhJwN1mZreISJji5SGJxATu6TARRhWmkO43s8+KyOiBPh6WXk/aVJidk4v8eKrlYSeyGklvAn0b8H+jQntgRR1ujlEWmaTzDTsd4slmdrOIbJ/q4TeBhyUG42Uc+8H91MxOG7e+U0Sak5z/ygTSexNK5lIfxh8iPAB6cRddP27SrDdoDAMDo1DrJD/k7eJwMWa2uAETO9bvPVQC+928e+DdvLu7gE4lXSiJk1AA/ThwoPJQi8/E5FXMmfM84BGFziHXdADMrAHU2E1kNpWQifw+li4CehFaGN3jzgugBDoBEG1hKQEdCD/H6WuBxF4yemiN++GxVkYzqwW4sIAbM9L/ATIDBAayqLdh6a1AAJownjahwCiArvFg2ogGLFVphRZgQGPc/RiGAhMvaI4ieIwcr2+OsBxoOfjcb1rbsTJeDvIasB9Fsy+hDCRYIk7eZbAHuC5DXyMie81sJWV8quT+E1PDOdRYO1wM8kaEHQAIKxAK4AGMk4EIjAIZkFdudBhL9XEzEB3CUgeVYDVEh4FOLDmEiPHDtueVCj/K0IsInEvBT6RTtvHfGDN7ckm6PCErwEzRd2chvZCJ+ghjiOp4XsGD8pFhjAPzkdSBIXi9WERuMrMjiVxJsjOrIGwjmR4nIi2A0spnC34hgIMrRaS/cvfQHC6hs7jVIq/XiVSVBmBOhCcRYwaYc+6aSV72EWM8AZgHYGbrvfc3AdqGrFapvwNAEpEtk/09WgqLnwJeboiYGQBe9BVufBj4UIQQFovIKgCcG3Dw8ylOHg4tSH+NcT7CXoXLM3HvNDMP9IjInqkeDjVW2JogLMZzkpFOScnONmGmICCCmJGLrgA2EdL1wPHs1QUyW4amhnUosaI4E8n+AJJGsxstc5sMjjdSI0e/xaPoOR+Czhhj1VCcG0ykvyDZPEEu9aqfEpENZjYrwN8aye33puPXeG+Gu1REqkryW0iw8KqIXhHNSEAmfC1H/2aqu4cjxvgkIEuAmLvZe/rLsvRk7i1AXWAtIf3cm14AnJZgtma6SkTaAKXFjSnZElRw6Eu8yBcnh38wDonQCSG8LKW0Mc/z69qxvMyMV4pIHdnfsMESVAkFED141IZBqu4FPMj4ERE2rpiAwAO58/PHvTwqSrNnCsx18MmQ0kcTthrYiUoOPIFHyAsDSPvr30OlfzIGXowMwSTaOjG7TlL6XoS7arXazWY2J4TwT1mWvWSq30OJmUmbtCkZi0zMxKjKxegnpW7v3LcFFqjxSe/9h8xsLtAlIvdMDetQ047leyM8T0WPpqosE63cRCWKHWQKQGizr5agGDUAM6Io+160tYnyMhv0SX6CMtfAJ0uPE+R2Fbk8OHluxJ4uVpX/RAk7odQyPSXP8+vGjX7rMLN5ZUr/FLAOFBQ5Rya0lkfJvjwCUKnqK1Xm7rOxVGKs9SKdwAYL8Q9rtWrOqyiK4ZRSp4jgnPtf3vt/nPD2UDy4QH8FUkr3Z1l2F0Ce/NdIaUeU9CbM5shE2zTGFH6x71dK3xu/P4CEnaCqc6t7diE2MQwDFTBuNbP79pk9atK5yeTtSWR9Fu1eTJpgF1iMxwryEYTdU30cgLCIcU0nJQaV9MiajsgFSex0jITRIcglqL/ECV82s3cBg8H7v5jq7TDQAZgCqYzkuG8T7XyJ1ofKbszusZRSVH48bMNzS/gHYNaI2Wu6DvNcj6guV+NoMZBkOJPvYoAxC0lzYHzSdzKJLylsqG5tNSoXAqjJnZh9edxVJypnAGACMT3XnKip3JHMXuVEX61mf+6SrE0wResWLKV8tN1ce6D5bx1jWWJdlnhylWfxWyAPq7E/CJVzGBdUydIihCUAiKwD7gdIIsdH0okGg+J0tTj3KTM7kzJcnmLqdElQ0UfotvfziM6a1lwp1LVeJWIfZnY8cC8UR1FwWorpRAvxRGuGp9AOjrI0YhSMiVgMmySCzA4WtyH73IBgyL40GqqC90juTTrya8l1BC8jybt/8fi7qTJvLxTzKfJY5GDE82u4rwf4kwSvdsRLXJTnWCv8btzRD2UJIlW8lWg3DKkSbdVvECYlq3K1X/Niws0kWw7mRzDyTGhkaCNPqZ6l5KRf1D87wu46jIrIDgBrtY6Sen39gQE8NsxsITArwCyL8QRXptdpqzhheNM22bHuXlI70tnbw9zHHYOfNWMIr+8Izh1Xkt4BWI6+yIv8+9RwHwqrDhtbBWwBigKeL8Q+cNdlbQaoEUvKhUq2wMHdtMunpGTLGG2GVMYzCWEN7SCVDiMwSbudwv76Uw1/9rsxDGy81kwqxpQs5Co6uye6Wi6ieq80WyvjnmEIycRETAxSBHVo3wxST/2ZWZZ9c1/Y/5ewtp1Ezn1twtNBlmhMmiVKStZYu3xpbBdYq2VSxvG8e4j6+GAmt7cD3UxuuSrEjgzf253I/LXJycqsxRVxbOzPBrZuY9OWrSxacCSzly26U2v1Pw+1UEb8vTVY24LljSka88ESsg8zO7sgXSOJW13i+yR7pYkRhA0Sy9O9yF5ptXtH793Mth//jJHb76b58zvJd+1FywhmmFNKBwkzH+O++CY/6eTfkxtqErEkKj6BpGrcWirU5/SSnbSS7tNOYM7Zq8mXLsTyRtvhteXjnfXIyR6fikzuaaoc1YgUPkhMmd3kiOdEUcKmPfzw+W+iZ9dW2hkYiprio5pPIj4JUYxwkCG9IOiBxvsKKInte6bJmAgigqgQeztprDnFZj/zSTJ7zSnE7g6yvFEYrsyNP3SSzkbC84E3iK9dMTWsh8LMaiGxPhHr3qxfgywGBoqauyOEeFa+fU9jw4f/hQe+9HV8/wgaPeoz7OQlLP2T1zP/rDOLmNVuHvOcIRatLtl7MufeNTWeh8KseKvF+AFJbjg6t6ulstww6im0pIlPTgYKTZmSZtaagdE7N7L1RzcS7lzHwB134AYGLS+CCB4TT9o3NH9Y9uW9SbW26VIkaaTwVbnWgqIJ7jt+Eed85FJmH7nEcEFGb7mV6173dnoGW3QUnsIHokYG650sfs87WPW7z/i7pPpD7/3dIrJxSryHlVAUr0etZdGfIkneXoRyL966QgquPjzM8C/Xse2aG5C7NtK/fgMptPFlRCcGnZMQ2DdmnfgNB7Y9myx0pGpnpcCM4ClcRvnCJ3P6X78VyTv6U5Aeu2ubu+2jn7Kx9jDtVXMpNzxAV08fa97wMtJRs8jMDdfMX93K9Nl16JRJq9YPO7wq4M8t6Za8ZJGZvTO41F+41JdimJ21hmX3L9b2bvjMf1L+6Bd0bh+gHkryWAKJzAQHJCAoGIaP6eGlHFWDnnAURUgiOKsyrUgR6hnFzgfI197L4JevYdusmeRPOIWlL/ud2swzTsT57pOTKilpKy9ZKJ7+UqUv1rg3wzYQ7RwTIBl+9yBdD+xhftBxITKu7FiVjkIT4SAJFqg6iIO0iXQwQ0BEcQYuJeJmYfSu+9n079ew+8RjWPS655M/86w8dHXmgv+oJaHwrt9Ulk0N5xEIpPRVUV6eYIk6+U/EviHwsvrAiN30/o8x+MWvsmTvKLVWAvMkV9B/463c+sd/j3//u/Ijznz8SR2m/U2nvVGqCf1HS4lmSY1a0jEXdFnu+TTYTE2cN5pF7xOb6oPNo3de/3M2XvkNhm+8ldquIXqLyLxYkoc2YkYUT3Ae7FHvrgAgqpBQaingU9X6qlro2dRb59RnPJ0ZC+YRJOHEcGWgtnOAjoExuoqcti8JGhhrFNBqA5qJyALGh3K/SZy4c0Kyi1t+fJK/iD2ycQ87vnkNO75yFaPr76NzaIzeaCyOkWSRIGl8Y8kkATL+6yDV+OFRJZlQ5HUGlszlzN95No6MYNJpQyN86zOfYtXKeey4YRPD64Y5fuXxFDO7+f5lV3Due96KdfnuFOy88QWajGplGHgEoZNSWijoLhJLk1p/y6W+LATkjvu44yOfYOfV17Jgd9vmtILkKVoSpBSzmKI41BwmVo1DBKDSVahu9wnYKVep1lIA2aclAyBWkiQ0S+tQlUyS9Taj5ENtG9z6Pbn9muus7/wnyvG/92bTY5dLu86Aj7bAR+konFlpstyL3AsggmGIJkwNATNBBEsIiSSJKGaZIXXDQIT9qr5VImRywU48AtVcs2Bg+9wCFhGJhilRXDQ6YmB2s6D9459x57q1zLr3+bbqDS8TnTHbkvoNpbqVDhZU4T9qcif2Fkvy0eDda9qkFzjspGxsdMGub/2gY/ir32HBQNO626WIJUskSSY2P5p0r91i93z009J71MqG6+vrEOeMiYd6lCQcESGhDTVwiSyRPq1wni8La9+7dfUvP/BJa191LbMGhu1ITGKMFqOJt4RKVUNMozlM6imYTMnHKfla3QIgFCaMebGkQSSZeRMJgu2tOYlPPtWOfM650syFOlUokoQsQh6xHCSN14c8YpKQqsuctLD1GyR4/aolu9hZNDcyKjuv+qHd86FPS/dt99rsVlPmYpasFGdmGSIOLKY4Vc+eqI0m+yvpwa6TMUA0igmZrJ/hbMnvv1Qax600LJdmijl3bxQZ2svy33s+D1z9A85+1Uv41mc/y5P+5A/Yev0vGb57Mx2PXwUiHVnkX0vHO4H3TETwsEJHTf9ezT5VZKm/pWWftloMXXU9m/7yoxyx/h5mhzZRTEY10XQiakbExJxnYqChqKiBgqjp5Fb6iNckIlGqClJJBYeZiYkxklpSd44Qm1Jvl6x8oC3tz3ybW27cLMvf9QfUn3nawtBRo15CrdABrzaKsggzMBPM0FRdh3OTLApZAm9IpcWYJBEYr9xmlSiZSJubPPc0bmyMN4n96lrlxhA1wSNSaqT0RtPaCBG1wJzdbba//woJu/s54U/fKmVf7yxtO/HqNk2K4BFpt9vL8kxRyUYMflGkdHqjKI5p3beNuz7xKXp3DjCjiIIlCpckAWpJXGF0oTJw9U+47wtfkUVvuhgX6uJVD7qt4aFQuFZF/x14HJ51LcIFSnyJDY8w8vUf8PN/+Diz7tkhK8fa5BZkVNsk58S5jGSC4USSkSVELJKm5iMP+s3kSb8swczSJAh4RERzRhq57JjbzZp3vFZsfh/ROVLkGhE7V0zwpjhDHFXZY+AMqTTfieXz3wxmpmVZfjLLslc2Y/g7jYls2265/SNXsOPzX5WF/WP0tAoRDZQkSWKgTlJMeFSqqcip+VVdx5/kQebj1weZGSKtPKNxzuNlyQueSeisSxaVhtjQzvu39qxYshinTgaHB+3ayz/NvIUL6Fu0gBk9vcThsWqrnakm0rOBzfujeQSh42M6JYltKDWsrI2OsuML3+Cev/ooK3eO4mOg6ZWmNyJCPQhdEbxkFCKUGKZKTAkTiCYW9skcDtpT7b+vfqvZ+AoviJnVxElmoDESMdrOGM6UBGTRyGOid8NG++Wf/LUcNfZ65l10vlmjIS7qqEbpijXK8VlixAxnkJnhy2h5VPEohlopKmQ5zVhWQgSYnLbK/+TysnHTcQE5yYZxm8w8HgVp42KBWMQwTBK5GUcPFdz/mW+wcemRLHrVizuz+owRjWnf9vNHQ63mlidLSEpvcEnvdAnccJu7/vkLJrevl64ioMmsFCeFCoLhotByAhaYN9Jiw798gVlnnUr3iSeYa9SmRvGw5CI/tbK8HOefVmh6sZax1w8Os+6z/0H///fPrBgYoyMEcku0JdLySpaS1UKU0uUEzSyKibeIS0ZLJ0rr4dif9/UEmQhtSZSAyxrsyjzLXnExnY87gZRn5CgOO3lS/7HvbuKXGA8uxN8Mx4jIkwHydmlx6w5+9p4PGF//gRw9NEaWjEICWYrUUcARcUTnaapYrJoJ1RPsr6BCNUTbz762Np55Avs1eUBo1h17lh7Bmre9htTTgzmHaiIjdXYtnMMvvv99jh6JVp8zj1Nf9Dvc+oMbcLsLxkaGyPq6yAwUoxRZZOgvJ2KGRxA6qnp1TO2La+02e774bXb+2Yc5enCUYRkjeU+elJ6iamUBGM6UvY0arRmdaE8n2tUgVPIXTYLfvwfrkWoSAEmThPEZW2+IbwVauwfIh5v0jhk+GfWyqi6GkBCyMCoLtzfZ+JcfxBVJ5r30ubTybI5X+SmkE2F/pRIDNchTpdO01DOU5bTnzKKc04d50EmFtU+5MZtSKfeX1wGyaBJNp5Qh4LY9wOyhMbrHCuoRkkCZJSQUzB8S7v3Y55l7yuNqdvrJNa3VH1urByIGZk5hp2/Hn+y68dYzHvj3b3HkaEkjGB6VZIqmRJ4ighFFqMeEs8CCTbu4/x8/zQn/9GeS6rPOBh7D6lX53IRdGQkjmPXlYy3u/+RX2f2+T7JkYARLLZoqNEVwpnSWDhOTkZoyUM8YmTkD6+0i68hwGFlwD52h+9if94NAK4NmZjRKJQuecvlCFl3yQop6jTzKn2bR/lyTzQ7OMKnqjVHNxSWq6JKMD+p+82xMKT2rLMvTbOfe5Tf+5ftof/fHsmRklI5UUopSqhDF45MCnlHvGerpZLi3UzpmzMBXOs2DUi8H1Nd9PMjdBM26MOdF51FbfRwO3x+NvkIDdYu+cdxSWo2M9df8hIVPXMOsc06j54F+1n7hm0hnjY4VC5AEGJTKqmzKnJgHsHZ4TXQ0ccx0Qc4kcUzwXNPSdJYbs66ha3/BXX//MVbuGcanEpc7fCzIJcO0xqhm7JjVzYxzT2f+hU9h1gmrou/uHBOn4CarqA/5jA+BjQvg6paYiAPDbF+7trP/m1dr+zs/Z87OMdRKohTULRINq5dOlm7pZ8d7P2b1ZYul8aQ1tSD+HBHwZBiyE4lzkkQijkKxPCEtZ4xpYu5F53PkWy8J1pkpKVTvd00dTR3QczwE437MTCTRZWVJ2DHIvV+6mnVf+hoLtu9iTruJlQpWwxL0bN7Dlk99hRWPO4lYs+OnhPiwlKUNOIMWRdH2XNixu9/f/w+fYNbuveRW9TwK5lSklTna5qgXRhYTbSf4ZPS2SrZ+83p2POlqm/eK569ql+2/BxpeQTV/J9VrK14O8hrHCP4nWQghivVRtqz1zWtl8P3/yvw9gzRioimelgdviiRlyCsPzO+z3vPPkZVPO4euo5YWMqunpl7BEslJW6r4Hh0TfYGCREGSYrV8V+rt3GrYKSJ6gcCV6uQoQ5440XnYvsFHotKrxwP5DRCK1tuT6OosufllTGPNTC7sGhjbuf59l2vjqmtZMDpqPpUynIGLQld0DNc8u7o9o8vms/TZ53HMWafTWL7EtJHL+KZVM6MU2LcZ9zGTQLvqG9u17FZvbp0TXBI52cytkZ6OBee/8dX88EP/ShEDWz/wcWTXCDv7ejj37a/D1+u7kskt0Us3cCakM4GPTQRdaTpOLnAwJ8HPE3YcwhyDZ5Hs+LSzn1/8n8vo27KbZEX1klShmDr2ZsoDHY6eJ6zh1De/hsZpx2AzO7dleXauyGPcpPQImNkKIOWLZWNojf3J0qed+bdjN65lw4c/y97rfsqcEKHdwqdcxhS6KJm5Zafc/L7LOOeYo9B5s/qj0leppOlWk3iuSbWF1SHiiagZ9YhQy9E5PT+IjY527uTX/t6UmWW0WxsKZ4vlyAX9xy9Z1Tf7pGO4/a//hpmb2mhpCI6I0RWN7d+/gSX376Jx/NIbp4b1cGRkxBgwTX356BhbPnkl+U9vpScFibGg6RwkpPSencfOZ9nqNQx+4Vt0jgwj6rAUSGo0ijb3fOQzMvOMNef7YxefX9YVNYeGdGIU/V6U5IB3TY0/L4oFSX0HsYRte+QXH/hnFu3eS0xtRtVhSakHoVTHAzNqdDx1Daf/3muk48TjoTMn1dxdETuFZHiTH0D6Y8nzx5QHB8PMzikt/BCzwpz7HRLPN+G7anCASiOJavIYqq2Uhx8n7qKoclYywVKE1Gbn966fs+fKq5g/MkZnShIwCjwtUYpajfvn97D8Jc9l4cXPpbZ0LjGvgfPvF5PVKaXvAORZdp2I/HBqfL8ubYsfTaJvqq1YyDPe+0ey9577zNoFea1Ox4rluEYdxK3Fya1JeXM1ttGTJoexP2fNziDRCMrM4MhNOS5vlbb+C1+hccvdNq8oLUmwto84oHQdtm1Gt81900vtlI//DfVzTrKxWV20ncwHZu4L9xAxNDQ02Gq1nJl1RHXntmbMMHvKqRz3sXfZgte9mIG8ZoV5cvEmYGPOLCdZftM6NnzuP823Yp+bmArez0THZlP+KkPlPybufx1EpERka/SZtZ1rxBlubN4znsiRr/xd7u/MrFQxw0wx8hAsGxxm502/MA1pxdSwHo52YldTGfQ4s2vXMnD5V6yjbOPimHlJFtQskNmORgcL/9frbN6fvpF49uNtNFc6img1i4xoMJOSmZt22N0f+qTpSNOiigUMgp2TSC+LyqlT4wYIeb4jWWxmRWH3/fOV5u/YREk0RRiuB4sa8Ka2t6+HuW99hR33wb+gtuaYsTgj39rM2dLUdHJQIXhpkbk3HwqBs48Hlz1WqauTy3zq9fAjCir3Fc5axGK044G93PqPl1vPwKipYU3FBE8W1IbqNe4/4Ug7+eOXsvSdrzddNo+yUTeQIR94u5Rpd57nl+Z5funhEDgARLtBk5SquUl3l8045Ti6zzwZd8pRSGcNdbrRUloQiuKjApsqkZ42TQ5CAYKlL4LcQ6I7iixvY3O0tIHRDVtk+xe+xuKRQjpiW8SZlF5piXJfR4cc+ZqL5ei3vVZac3to1XNxSciTfhs4dJVlnBkzZlT9ksgY6q5ImotlDeK8I2TJ219N32teJIPdMymTiopK4UzUIouHW2z7t69La9M2XLBfWoiDorJwfKQ3MQASq6rlJNNJPeAhQbdo0ttyswbedbQ6M5Zd9Cyac2ZLEJUEImZkKUp3mRhbv1FSmWZNDeXhkCy9Pjhmpt175Z73Xc7s7f2iLpFUKFySruQkuprkzz6XIy94+t44b87Pl7ztVbJnXg+lV3EIMUMcgSPGWox94xrZc/UPpFYUorAFRETsIV9O7YBcLGhr3UYZ/NJ3WDAaSBYlN6EnIB5hz4yGzH3zxSx9yyslHjGLWKtvwstVzmnTJdng0S9mkXcTefzU8H8tDjIjLfsLesJu6vXwYwqJRlSre+jc9uXv0HvXZvpCECFJqSKlOMqsLqNLF7L6b/9UZp995pfKnq7Bst5JEC+oBxCVw39kSu7cT/KozSw68cmTpzpZmdNIDUTczQivT8JLVLXXsI8pfFxIn5kcRqXpeH9OEu5WY7aZFSmlUR0t2zuvvoEZG3egZYtIxCUhmLKrs4Z7xhNZ8caX0ZrRQdSMujk6gpJHShGJkyM5FIhIf6PRuAcgd+5HDdGfdZVKZhkjfd0sf9slxHPOZKBRhwgajdJF6QgFPfdtZdfVP0SLeLSKzIwxHTsRbqViAxg23sGJyGGodtnaLOlR9SCISWF5TnbEXOatOIZqd5BgYjgSeSjpv+8+CI9tc5yYDTXaJZuv/Drtm2/DpYLSEqV5SnE48bSWzufot72SvHumZq4+p/OM45n10uewo6uDlnh8gDwJnihzR0e49Z8+QVq3jTzofSnT/zDIM7hzatwAJczJo9W2/df36dq6U3Jr4ywhJnRHYbSWkT3nyRz5hhfT6u0hk1qRB12Rmfy0HuTbHUl+VCvTbJfkUlJ679Tw/19FjblikTQwzM4vfZNZQ0Mkmvt6wdFc2drXwbFvfS3da05Gs2x1jrs1w70nMzeURPLSKdFnB7xucDhoEc9renNjOYzlStsDziGm5tR/ULLsmjzPf1ar1W7JxX8oE/emTLIDRgxqZkdG0utJdGE81eCGHO200TB/+7evp7eZGFazUfW4qKSoDB7Rwyl/cAnM7qIUMU+1Lcx8Imb6rckRHB7CyUoxy1wkOMPndaSvj1V/+Ea2zuk0h9CdhFEprNDAzHabjdf8kNAqGsREtVh8QBd32NXp4NGg1Mfja5eqmMvJ6jMAIYElqVZRkEhst9g3v/AoyaL1hVvXs+vjX+SIdpuWK/FRyGOGmmdrh9L7hossP3E5AbrEwqLYlbPitS9h5LjljPk6XWVGLThGRSwPTWat385dH/yspdFiRdOlZyfSqT7aQ5xDE89J/UMMXX0DjVRaW0tyMxLCXlP6F89lxVteSZo1o1/NtTPlH9XLTpy7BdHbx/8ujWp/Vartm3g8JBxkeDWJh7M77GhixIVYDN+5nnTHBupWMupKwMgjNpQp/qmrOeLCJxE7GrHUtEEdH86Vd6ulawWtJ6eY47ipYR9qFFuFxM5IoCTQ1kTpIXm24bh6qvuD4YEosE3V6skYVFgiMQ2ObX9gZnn3evIYGXMqbTxdSYi+qh3TAAAgAElEQVSuxhHnPoWOY5c1y9xtqKmIS9ZlylihtkISzwQ+OjWiQ0mMqQdNy1pZpTXnQT7nxS/uOHHl0jkXPnVRefmXaZQF6py0zdBU0rxzLa2tW6mtWo6ho5hkpVouZtViB5UAclZtwVFsD4mLWmaLHfzcynIQIMt0RQRLsGwiPYmDr3UYbI6k6kXZlJ5UrdEKQa27HQtrtNtsv+8+FqCYmJSaaJhipsycP3fKyt9+2mbvTjFuqwc3H8/GpkvP0lD2x/6hp9z5vsuYtWk7tdCi8JAHRwMvQ1KjPOdUZr/0Amln0Eh2M9hqMUPmz+WEt1zC/X9wKUfsHqCgZCwzqRnMGm6x9Rs/kG3nnz2/97lPJlV7r/bN2ZnZHMbG8mZHtpRkp41t3Ey5biNmQYJAHSVg7KrnzHzu0+g4ZgVRfb+HLW1N16nK8zK4TbzcDFBY/IwhZ4BG4NBpOwcZXk3i4ewOK0ESYgxqsDnbrr+JrmaL6KJEESyBicpoR87JL3oOMqOOpeTMcW5p6Vxn/D1JTldJ/WrcDna7FcW7psbx8CTQRAQcur8yhzQbbEYbuw38ulqtdlMgnCHJjqkO3wFz3GfYnRLSHSp6Ji06Dgz74HgR2W5mp2PljW1vs13MjvBmP+nfcNcZ3UM7wZrMKHOLirQJNBt1Vp5/Ltro/EzN6xvHw1HAGuBRDvnQaire1z5nZl8yRmbmRT6nVqvdBmBl+dR55z71u5v/7TuSD45SK5y55KWZRebsGaB9112kExZTs2ydJHfsmDeUhDOskGoXahax6BCc9GlI55rTZ+C4A6cnKXYXwZapSV1UrmG8h9y3++ggeDIQIhZ6JLHJ8Ouj2hM6W6Ex+NObSFs3oUmplrCiCBn4bmorF0P94EKnJF2ijhkUzEjJZIyCrrJgy9e/TfrutfiyRZkiOUJpkTGJtnveAjn5Lb9PmtVrQhJNrEbAmyeKZ+YznsDWc09j6Ks/pBZKhMJKMumJgfk7d9mG939EzjhpBbZkIcHn/7tt9vWayM3AGalef4U3nidmNnjbBrKRYZIV1hGdlE4JWhIbvSw470lY5gBZGQSy6H8/ugPPjM7FvfxKu9K9gBccWkHwyJrOoY3vUWBmeZmK4yJ6lcb0svLO9XSVLdpgtZSJITS9Wmd3t/jNO9n5je8DSi1q1ckZfzQp2WcD54xXyUf7PAYmwRlJMR8QlyApJEmMEtjb183i007tr83070oqLzXHGTXNFgJ7BMKvMpVSzUCJ7LKy2g5h2I9U9OwdW7YaZUCoUp8EwynW00nfCavA6bdk/6lqExE/+j0VvyZSnVy2Y/xvHJ9mH7tC7u2u0R5ifCkcxMAVgcF7N7MggTe6A9SNSrC7gxVQQpwgRrqp7Wx5W8HjV9VTMoH+IPK0/Y4P3AE6QZU51f+moxDVvNPS3fUibImbdxy14YP/yqKhJlkK5ERxCUwdexrG8Y87pgr2IDj4vCBLY5YWBMfZ9SJgd29m7WWfZ1EzkAQUoTs4Rpxjc5dn3sufTfcpq2irikbABFOhHN8hKfWco97xan56+53MW7uJDstEIrSlehvN3XUfGz/5FVa+87WEbqk5/A3tGAaLFAH6VGSbxpTK7buOrJeJ3EyqDehSKXg9ncw8ajnmBBMQYasamyJsPeDhgBfKCx9zRX5Efjs1HVWRvkz919vN9vP23L+10ZsgiCAoZkajSOK2DnD3n/0Dlme4MtEow8GqxuRneLTPI6VmtMfLpBEgi1A6CCR2dtcYvWANq05b3RdJfc6kJknfi7J9Utt/zFT7dACkSqmiy0mRUJTopFPFDCjEaHZmMLMDPHfss/xtwcqgs3rMHTFTwo4taEgmVBqMC0YaGiMvUhCxFRN9gQkTcuFAVHa0fOpHOUMjNKKBmDMFRCQL9t2pXh6Mncz4odmqlhMK/Eh5XnP9Rm553wet9rPbmF0UjFEdj6emDHjFTl5B5zFLH3JGp94uryi9P7fp5MNikcbgGHf80xXMXns/nWWi5QEUj9B0GSOnHcNpr34urW5PRGiYAkoSuS5oekLNUksla5THL2PJGy9m4M8+QufwqGUpypgHw1g4Etj26a8x74yT6DnvbCKWB2WOiaAIEu02ynTWyNbtdJmgCatWhxTD0bt8KdLVqBqUWSlJ9mCsFHjE4y3/X0bMSGX4KytCe3j3QMMDZtUJC4hSS0beLqgX4GyM3IwRiVXdmBAtBoaZiFQmZgZSvZQ2uW5P+W0CThRX9a6V0DGh5QAcaVY3Z73ipVinp+31r7IkZElb4uQv9ofy2NkndCYquBgLMaCM49JUUCCZERVqPV2kRkaI8SLg7yb8/zYgef7juGdv6pg5Q5MYThTBwMy8qtho05zITzBOE6ShqoaKEM0eLHdsb5nSiPUP9m67+kZpDAWzUEqsmyVnvVmUp02U+viqlzAuw8bNJxexSULcaNv2/PJ2dv30Jurbd9A3GkgxWsIoNCeKky1ddVv20meL9HQZB+vPALT25GTp0iBmnUWQ/qt+ZHu//j1Z3GyZWhRnGKiMac12zOyWx73jjciSuZZ8RgZIsH4RucZUgyedmakbSIm90ujpXPycC7tGvnq9jPzoRnpTYUEjaomuspQjdg7YXR/9lJx+3LGm8+aKeLOUe0lilsH3NXHe6OCgzcAwqV4rSKlKi+udZcl7SaKWOf2yJJYCCKzhQSf3HQYOMrwa36czwUR5Tb4ebpIhA07kaBKiIZkzkbLKOxOphhAJk7ZLpmZiEVPz1SkHlfa2P60Ty68TVL/3uznI7zqBEKuvCTQQnDgzNdnUXbPFb3ihNE5ZaYO1TBCxLrFBZ2Hi0PdfGQ9QWPgjjZXYkfEkOVHEII03JTVDk1E0m0iMOOeWTArntwZLidbomHRHw1slMAEJGLWOmgTVEzwuHy+mcSWx6iKm1MpVdXQxvoH1D/GzD1wufbsHacRCHCBJ9y+B7RcOArY/oKqvAZDq8AHEYyws23TEZC7BmHiJCsOqFHkn/gmnysJnPx3zDdEkB2+MwkZghg8B27iTTZf9m8wdGsOsJaUqWVSJKJsbSO+LnknvE1dLUE89KWrcnYTNhdoLxcCbkFxaIObJo3wrze67YPkfv4Gb794gHVt2ovuO+4h0WCkPXHcz93z+P2XVGy/BOt1osJQhWr0jZlEanXVKiVXvGQXGTxmwsZYQq4l6H1iPcC0S32Mc+A2lw8ZBhlfj+3QONDrwergpTeX+JLbOUjxBoBOBqIhh1XYOKq2n1Gprqxkyfmji1LQeLM1T7R50daak8UaSEApBBmoQzjlV5r/8IsqOTnHiqZmIw3qTppaZNeQxfo1lMuOajpwNdO+btkwJ5zziHFZWAlNNqIknjbaQsRb0dl/bNFtRBy8id5tZHuBZBttzkRsmgjocmJkLhAsNvwjKX2bttBugXXMr09Y9jOzuZ7Y5iOOn2wCFQN7RIKnMnDiRbqJQqXq8iYLYd1+qUHY6lr30aXTPdqz9u4/Qc+dmZpeJlmbEcekiBvuX4asOZVzloXq71/DiSSaoKnlKiBljorScoALDeQ7LjuT0P34bxaw+8qjkVp3J3LLWUTVqu0RkEKBp5TCq1FqJtf96Je62e+kMJSM+YghdAZqqFCsXs+JVL6Cs18wnFZ8MEVlVejs6ArkZYtBUI3O23Sc5t13LyM88jvkvvtCGP/xZ6WgHHMnaapLMWFjWuftz/8mss8+i97RVXc4yMEGcHo3T0e75sztbRHLBUESS4YDt921meauAjgbAC1H+VyLVE/bUKqf+R+JisjkJrtfcH1vv7qTar4VhSJ6MDDEzFY0OoToILkqLqUoNk+rtlPv9JhNG+20sSCZBBBOzqE6GJRJmz2DN616D751FCLJhRtKVCphPBE8vUKP6VNOvhDezpaOE8xTN8gKavsT5FjN7etjua3RTVmvxqnRZjZ7+kpG16+me3XeZ8+7+pnF8Wdi2GOhv+XichyEmfRHwcBAIzwy4rwUSuQlJrI1ZLSZldN166sMt6jGnJW2JTiAJY41OZh+5DIlKqXGDpLCyVkaSJOzBPR4AdQSfZcTeGcx/3gV09s3m9j9+P27tZjqLJk2fMCLdhcOTUZCRU9ISo+UMb4l6iCgRLGDiKah6Li9CUoc5ZczlNE9YwimX/iHZ45eCOvIkAC8LwdYFeFcBl1lp3dG4vnTp7Rpa7Pn+dez6t//g6HYTMcPEUxejmQl7urpY+XuXUDtqOcFnJE0ErWYCxKoVN6PSZGtJwGIdSXflMZ0omWf5my+Wa2/4OfxsLQvaI9KkSSsDH0qW37eDdR++jFM+/Be4+hH46IiOl1rDmSyeT6RBPbRkJA90FKDmSIMPUN6/iWzmCduTpVVJ9TNB1eXYb/vh54cT8yEbbrr4PN9wdC1aQPv2LTQsyBglHiGoyNDcHrJzVlN0zIDgUNdCbVx1G5c9JlW5PkisTFhOmr7dN6gUJDpHzSqVPDrwGcw7aRUdp59caGe+zAGUPBdjSHz2CyUsm+j8flU8MEvHT4MHR1IDZ/SdeDTr645FQ4ZJIiCkFMhGR9n2/R9z7OpTumOjdoRzDk0s0MTshrA7yr7T+A8bHn+Vwf/Ooz1Nxd/QdvYSjazMRxP3f/8nVhsZERXDBJMYJDOl8I6+o5eTvMPQlUilvo4PjB7cMyRwSRBzAS/3tZ2t7DlrNad96K+5+a/+kcYNv2BWs02HCU1NjGkgi0YwSGJkUaglxZFTiBE1YBJJIviooI7Sw64uR/2Cp7HmTS8jO2kZReZxYjsdOoSku52Tr0bSaWA/LrzrNvgbjXGubd3FbR/6JLP3NglERJQ8CkkT2zsc/O4TWHDBWSRXggh5YRPvMJpOelYxqvccoResN0PAFOmdZSe+/AWydu2lzIxiIVbrFT5BLZXs+d6NPPDvV7P4dS9A1JGVEkJuN/etWnH23u4u3EBhjZDEWSKh+MFhtn/vBhYdu6q72VHDCzNFhAAzJtLyP5CEMSIiaL1O11EraF59M1kZrOWQ4dxQERusJXn8q15Ax2knUdbr+z7KNEXZMcY7lIn7/VYJGS/kCcv9tyqaKq3fxGhLJNQ8bTLrkH0fI7xsv5dffwHJA2u1+qBZV4KfGbo6+RqNJfPxRy1Gdu2lZlZtp5dAR0w88F/fZeXLL8ItXTQniCNKGlDTXhdljhMOe8/VorU0T/6VGvSY4Hj8Xqc93RH8PTvY+dWrZX5ZEAigSXwUTD2dyxeSL5lDqeDGi8QEvIEcKHCqe4UkgiDeB44oxTPkE/XTVrH6A3/Juks/Qv9V11EbbiKphUgJWhBSjhjUTXEoI5qxo7P60GRHGWl5IXhH2dNB9rijWPWyi+g960nQVd8QcrdScAjSiC7dk+BEhVNy9EOJ+MaS8PwIVms2WfepL1G/4Q56x0pavur1ZpSKswa6YC7HX/Jibvqvb9LevI1as5B6cJi6/c83gYGOjwVFQNVR7UozkdFharkniIqKxyeHGjgii0cDWy77PHPOPJnGyccizhcev6N75VKG5/Uye++wdIVIAJoKvUWi/z+u5sgXXNg1vKzGTGq4JJSu+l72/0RExMrC7hLsJDX189es5q4rvkJXdFK3EkmJzqCSdrZ54Js/Zuma1Qx3NegyuVfQ26LGmyZEiQIed5wl5kyOAwCLsyGcAoBIC2U30AG22ZIcR5LMEoIlvFPAUNGfHRDGIcSLyGhhRZRqlW2moCQUmdVD79mnMXjzWua2wFNSCjRCpHbPZm755Oc47e1vJM2cQfRZrzi9W0w/4RxfmBrJoUaTf1Op6ehchaDcjdkaxpp2z6e/IPUNW6xRBCldIomYSia7G7n1nftEYXaXgYjCB0x4WxLGz0g+oGcwQFKCMuMWBfNRT+2Q/Kq2948TFztryxbNOP5v/shumXO53HXlt1i60+gOicJHJBnVkmWSlsssLJ0r3U89w9qNhoBaR2+3zHvcyXQdOY/68rmUM6qvukqyFbkKZnJfIi79/9s783i7qurwf9fa55x733v3JS8vc15CEgKBBBJmBJQClUllUKROVRxK1TrWamsdaB3QX7XFofZXtTi0VWwdQX+1OKCCKIiRMk8hJI+EJJDhZXjTveecvdbvj3Nf3stLQFDoX/l+3n33nHPP2ePa++y99tp7t9RPEg+SQR9lvNKC1YqYUy+NXb+6nc1XXcPikZZ3xVJGE3dHJYr6lo66zHv1S33KoYfJ9M0Dftff/Yss3TroalHKql09Ftfq23EqzaQLiAsOIgieq8q0EmqFOSSCipciomZu5aik6zf5fZ/+kqz41Hu92dPT01UkJ3vP1JHus07qHFi3wReWKhF3cOkszJv3rpN13/ieL/zz10oi4qbJoMESd+8WkcF2+j8zVCq3x2PvNNlbHp5Zgm0NSEtD9j9Tjj7yhNFD5sngPeu8p5VIPZZ0Od7ZQh78znU+8/nnSOdpR3tS2dWcXi3c78sVXSXYbqyc4Tp5L3MB2ObU9ph4uJmLKmbWKFUTESeoeIB+h82KHS+qz1iPZU9Hr5I4DgnRmoLWLUlGF154Tseq//w+0zYNISWYlog700Yj/d+4li1LD2fWec8l9PZggcMMrojGc4AXT/DjaSeo3FU6UiokTn3qcJPt3/2BPPKfX+fgvBRFKUUoXchDjS2ze+W48/8QT1SCszOJLC8AGx++2EfAtOqD1E25S6IfK0hHpvrOUPD3ppJ634yRle9/6/QH58zlkc98lb4t20klp3pPRHEpKYPLwOAWZnRmcuSfvRpfMEtaiYBBnRQRJ7Uxz0UwEGV3qXKLwTECWTC6Xai1rKBmEdmwg/uu+AK9m7aSxpZEjMRUClW21xPZ9vzjWXrJCyVvdNB31nNk97mnUV71XRr5EF2V3dVYXMe/q1QQHMZU4IKQWJ3KwE/FATOkDNBKokQp6W6ZDFz7c7adeYpMe+l5oGlf6Or89YLzTz/xnmuuZU5/q4qSQyZIV1HQf+U3pXfREmaedYaUHd4RQroLGG/7P1PsZ/RqAvumyf8C7h6iFeclrh9UDe9I506XWS84gx0PPkxHbkRVCkfwnNqu3bLqin/kOXMvEz1kwcGkSoy2ElUEOzl4pVpu96IcqUZkK390Ne2NLh2rK3IB5ghC6Y6JPOxC4YAaJ4moUqn9nhGqXj6OCbjo5sS5TSOrJctWTTniUKafexoDJhih+ohSL+Hgh3fxwEf+mS0/+iXpUIskt5EQGVJ4cG8vnn5iHn+TlhJDCN9Jdg53D3znJ6z9yGdYPLCVeiwoUQpNCFJnNNSYddbpdB+1FBEhMTo1ytlQvc6eiAzbnsbifJdIIcVJLY9fy4P1xeCSh6Q3dE3liEsvYcmH/oLV86czHDooJJCrYxqpWU7PrkEevepq/uejn6ZYt5FgJdSgzOIqExtwIhZyYigoQ0mUuDkpObijEDKXT2C8wsSJAp4XbPj2jwi33MvUVkFMoBWMulfmDKOzuln5pleS1hsUIcNqdZa/9TUMLeujkBSxbJ8PluGWVB9PwTPwDPeUlpQMBmMoUQpRAtXi9XliJF7SWxbM3t2i/1NXEe5/lBa2KYcje044gumnHMNIIkSBxJ0oESGyYPMga97/GR674RYCmialfBcYAXD31N2f1Pydp4q7l+jvuJJeq5VNvvQ0keC2MMD7ovjcsisbWPrCc7DZvSQSyEwpBUSNmc0Ren51Fw+8/wqG+7fjo0qw2ib1bFgtXSNlNhBihloNjTXRmK6WMr1WyvT7SUweUIunq8UXBvNz1Qw1I5jRafLDzmihbtyawRdqzt9kkf9IC24EcPe6uz+tA0MJgMDXRXVNkfOdJNEVEoslhg+UtWzp0tf/8Zw7fnIrXf0bqVuJB8MQuktl9sPbuP89/0DZ/yh9L7+gk76eIQ/pK70ZzzUYKsW/GLIwEgoeQZgCnIZOUKOP8XjvOee5RBOCrinUHNOPpWafw1lsPhrskS0Xrf3X77DxS99k1iPb6CgCueCuLh2uDCsMLJzOCZe+jGa9g1SDq4XNFuwehOenUchFSNovicneg96kxKsR2ymaLBd8mQtbVcP6JPLXJFp6Nz7/orM70t4efnH5pzj8nnU0SlwxqZVGVipatmh++6fcufYRP+zj75KulcsQTU/wINIMkArkIg4qNcSD2X+5+Gu9bL0iJkmSS7VnWH7/etZ8+WssHGqRmFCoe6KJ1EthZ6OTaa99ETOOPWabhWxdqnJU4kkW+vroe9MbeOh9H2PW9t3UqsUABKqZvoYjbkDV2B17PzpgwRAzFLxURESpRScUAbOMXIRa4XTfv5F7P/dvLP/4O+eGerdo2s3Br38dd9z8APMe2YxJQaHi9QKZUZRM2bCF+/7648xfu55FF5/3OmZPfVaZFzE3a6DayKP/Jhh3Kfx8PC8mIByNU601JKzBeRgAYw7KPku8lqV1NZUigZU4DcU+ZwDBKJIAIl5IS5RI3YSYKRYiii7G9ZdouMALXzjByWdTzWXdG2ctzjoAjFkkrJh0R4VxPRApwUQejMKCNII5vemhB7H4FRcz+HdXMr3MGQ2lxzJKT5lQLwo2/XgVNwz/Fae8/U+Zcsox82xqF3lIDglZ8KS0jUH0PgTc7W4N2jSj4cJ6YJW4NYDCoE+VTtCHMWqiug44BOPMCD8LxtU4n/PCd44YBzs2Z7QorhZjDpjWsuwcERnZK05Pgf0UtHFaRfx00szfuumrV/PQB/6Bg7btIrNIkSlWgnigGVK2dmXYUYex5OLnM+uMkwjzZiL1lKiCh2o4Dgcq4d4HQdr/qrOxMT11Aa+G8qIYkkeSllE8NsDOH9zIg9/8Ltm9DzFj9yidBqCMZpDGAiFl9fROlnz0L1nwkheuKTtqMyRoTxKFUuN1tnb9mb8+/ZXM3vwYNQOXaqOykhrJey9lyfvfdB1Jx9ckkS/vCWibVqt1tCbJy0x4t7ijhbuOlLLtzgd46IMfR265nTmtgmCRXBWxBFNjKE3ZseQgVlz+brrPfJbHeiKJMaDBuouQbHG0u2ZcpVp+s3D7qRaRqLrT8J5sy25+864PEb5/g08bGRXcK8M9F8qsgy0nHM5x//73hHl9f2u1ZNBcPiHRSHMj7hrhwXd/hB3f+zH1llEzMIdCwaQa2h9jbDjVxSlSr25UoVBIzJleJnTkBS0xWonTyBWTjHtnd3HMP/0NM849g0CKjOSs/eLXGfjElUzbtQVMCGU1CdVCxrYkZWtnHT3hSBa9+Bz6TjmBbHYvdNVxrwTTwsQ1i8dpy0uFw7jNynh/eSLiIC2QGMjTUKZJuKtIy2Pkl3ew6sVvYc72nYg2EYyumPFQZwdzPvnXLHjVhaDadr3t0R45/d2ZGP6qbAihGYgBBjqNaZt38cCbPkD5019Qb43SYYa5EElxAjEYA9O76Djr2Sx6yQV0HrmcZOpUrC7tUZK2y2OZKUJVAKuv/dj4AHuHK0Qq2RJpd9mEGARPExLzc9M0/eHEZ58K+7Y6JpAYQzEkzH7x2Tu29D84bdOV32bRYJMkz2mGiEikHiMLhiKtm+5g96r7WTurm44Vh6I93XiWEK16rYrTjvy+7DUJQRhPLNRNEK8UJZ6UUdi2k50P9DN70wBzKagVBe5le5V8RQgumsmjtcCc177I+17yPCnSdHFaysYYHncZVWdPcu91vF8ykalmttCDYkrhYjeT6R/MOG45nZ/9ALdf9km2XnszHXkLl5JpeYlYST0vfeq9D8tv3v43zHvvn7D0JefvTtNaN/XU3PiSgmvJZYRkXaFG0EBp5f210eKkR7/+A/y/f0lvq4WHktKNehFcyOTB2Q1WvOtS0jlzENWq4ShQYGimv9aezuUL3vm6Rnr6sUgeXUsXRNqWqE5lwFgxVqYcHIuCGZaIexYkbUYGf3k72/7fT5jeamFiFImRlcaiAaH/41/yacuX7dDF89fERv2ERZdcNDy8cUOj+YVr6GkN0VRjZ+p4YqRlzsFDkdbP/8cfu+UOWd/TYMpRh3sxc6oUCrhTi1bJzSS8EpgqoEIVGdqFaT/34w65+65Gp8hxy5IzXvGyo5MELCrVfCLxQoMUAbotMDsGtl/1PbbedCuVeqNyd5Jg/FY5abOPbI3Ju+O0ag4eoKyxraeDpa++gJ7Dl/rB73mD3LR9EzNv7/fO4REpg1Fqi44IPaVQ35Kz+9vXcdt/3UA6v4+pSw/1vCNIrObA+Hj14VW5m5Au49qevcPmbVNnB/Is4gJZkWCSsa2esvLFz2f+ycd5s8xvG3Pgd+EJK50y0bIMSujp3nnk2/502j1FyZp//y4H7xBqNoJTLWYuZtQJaBmZsn6U1oatWKIUXtnsqlcfezJZVNU6ALiIjO0Nro5krqTRmONQhIhrQaHV21AlwaJjgmxspEx71QUc9ueXSlGrt0xDKjD78bwXRJ5YzziJNG1iFtoFIo1BnoXSb06nH7Jw1okffQ+rG//CwNU/YObIKEJO6kapJqWMctCj29lx2Wd56KFNU5a+7RKYM42WcJk41EQIyClB9OZC/eQQZWm5ZgP9X/4684daCDl5EskMlCBDoca8C59P7xknY5IRXDYB3VWiCYVzoma6WY5Y0pi74hDUTALSBBCRuoOJjG+GNiab4j5Fzaa5O7mKFCpkrYKZZ5zGHf0b4Lb7SC0i4pRqdBZN5LYHZesXr+mde9mfnjjcVffO6V3rl7/zDcvXDBZs+db36MyduhdoM0ddUDGm5Cp9o4HWriFGNmylqUKpgrvt1QKbxFPIrIoizaR/ToPjzzudRIVYRmI7sgGkdKXAKYGuPGfw5rtIf3n7xAK6Vwnd+/Dx+W3PlAmoJQzWG0w/9XiW9SyAQgZrRxzadfxH3xt+8ZcfkXjXeuaNNFFGaWpkW03ILNAzOsLMkZRyYC3l3f2SqxEroZSJ5Wjv473YJzxjlKGgQwJpnrCl1kHnySuYM3cBqeuatNH4nbtW8FsqHVMuNHKCfSAAABKbSURBVIidZLcxc9bwir96y5GrGz2s+/w3mLW72gs604C7kWMUEqlFSE2IJWg7rsGr2EXhCaK5L+64VTUCAq5WHTsC7iSlkLoSkgSzBNMaj01v+LTXnCeL3/wKyhk993VYbXGuen+uvjzdb7pXiFSf/efNPvzGqGRWEELQDJdFDqTOYzZ/1uzD//btPDJ7Fpu/+B/EwZ1k0RBKgjmNfJSugZL+K/+T0cceZdm7X48u7CPP6qhmBOecNNIfiTvT3SO9t3/+K6TrN+FWUCoEU5IIo1kHI0sXc8TLL8Y6G+DJPaTcqfBcxEllLHt9Tmr68+DyB1Xyy24Fc/c5jm9T16+NRWwC06LY60QkSxCPVkpIE+oLFnD4q1/OA2v+DzN3ORJbFKHq6vXkhe/46tVSP+1IGuf8ASLZBp3Vu3zJh97CwzMbrPvKt+gbGqJ3tEroweAMJ5FatKpweqAjClpWypJCI/tt6jxFDGFYEo4897ksfNYxDhZFJYlaWY47kEYlqGDuZF7SHR3E9pKHKr+fXjoKxUnYNrXOcW+5hGRao2hloYya0n38Sk79zOXc/YHPsPWnq5hVQM4QWaGV4aoJpUTyEClUPbhLUrWifu+gdhdGzUpKTRmcWuOoN74cOXgWuxNZ0AFHAr+a/MyT5QkrnTQWV2eiO8oQHogSnhV6prP8bW9k46FLeOD/Xkn+wDrmtoSuZkGC4sFJ3MkcYhyP+Zgn5QS3H4eJEjb2jtlzzYEolWYosUDatrEZ1JQttRrp0iVyyNsvoft5J/nI1G7QrM9d6sHy+amKS2XKOZYZY+4KjHfo9vC4L1koKS9w5KUCLi5/JxLuNLcXCX6EF5ZbksxqzeuR2e+6xH12g7Wf+CLTt+6SRl54pxU4kajQO1TS/NZ1vqp/E8dd/pdkK5eId4tb0Ku05E/qZSFbfnijt675GTOGRmkFl8QSQmGeJynruzKWve1VUjtiiceS7UVmRXS5RUWuSpHjx0MsmNorotmpHsDwHRiFIrOBGa6cVd1VpYlXab9bS2LSnpiaKJj6BkuZOfWFp9XCTTfI8Dev91lFNTJlIhIpkZ2P+b1XfJ5Tli8jzJtztqbJHc250w5b9O4/qyXLlvDgP3+Z4QcfZspIi2AmBHwkccSlbQGuiIurQxaFdtdpL7mYdD7G497TCiKDS+f7ij95KSPTOmOHawsvkzC1w0czwUSoe5BWNPcqd0BMauUeBcmYm/AE/jzOOfu5NpbODGVBdtSC973uQsJpyxnNwqhEpkVRWlnNu45cxolXfEBWf/7f/e7vfp8p25W+3SYO3lInD1XrHnFqhXi6d3div/4+zvkYDlBooBlUtnWm3nPxmUw96wRGEpG6hVqqE9eweuo8YaUToiSIHZurHG1oR3BZFTszZr747IFZx604c+23vh8e/c6PaT20kZ7hFl2l4xIZ1YiNiS4QrB3DvdKjwmFc2mGSCZePmXXjIkSpElhCApawKwg76kGah8yn7+IXsPSPLoC+XinS0Ew83OkOLYmkHo+rFbqpTBkyZTAQG16W4gKpBxJcMKGUwFCSIAgmzCqJ+7VVECQxWCUqP0yi3ovZCqKvih4vJw0fJtqcMglz894umXvpi5k6fSZrL/8Mzf71ohZQi2gsveGBrtGWdKxazY1vfh/HfugdzDjrVLGO7NJSBevfwN3/dKXM3zVMLZY0k3YXVVLZKQm95z6HWS88nZiF3YLOiCIzVPxeQVaJyK0Tw+xlfq4L/W60RAGlIebrHG5SwpBjDYEcNAdwbGEzsbSm9AdjayHeVShHWAJW6+Swt76GO268R6Zt2E5HzDExXEzcS7puXU3/l77Jkndeen3R6DrJQlIf7mnYvJedt3vuSUf3rPvaNWz97k/J1m6m0coloyS1Sk6UQKQy2m9vHgswweqkOh8/bGt4QEQcxQmVRkNKcZoBhrsyDnvH6yVZuohmWk+KSH9wnaOzp+fp8kW92wfuYnqzpMNFgltlciEKYXzTogl6x3ZQ9gRhYljwdj99wj37kfrxay2tUV+5XBa/4iIGs0BH9Cn1qI8gPrt0X1fAHeniOXMOv/ztp84971TWf/VqNlz7C9g9LB1AvYhMKSJ1XEZF22vh7GGy35MTca/y1o6jQJUPeUhhyWJZ8ZpLkHqDRlTS0kYKj73AuvEnnxqTA7UX7p4AGVXeq4gMt6/PbJXWH/K4qXxk05JNv1jF0A23sOvWu+jaupNs91ClQBZhYhtCXJC2Y2Me76l0qp/Ax3XrpuKxsk6rtFzt7NauOqMzZ9C58nCm/OHJzD31RGoL5lFmKSLy6SzR942Ftf1sg5IPGpyeh3hs4jnxgQ1cc9HrWbxxkFrRIotCKSmbptS8762vlGXvfDVlFn5czzrPHnPnyZB77K+O/DMSuUhiHCT6CaM3/7r315ddjq/eyMyWkrbMc3UppZoDtrurg62zp7Hiz17Hkj+6EK8F7v/wFWy46hpmjTidzRyItIJ7oakML+zj+H/5INmJy0ml4zpBz2wpZT2wVET2EYi2kjBhvA2ncCsix++zU+cY7t4AWiJSuLsCXUA2FJu3drTKhWs+8RXWffrfmDWSIxQUIbrGKGnSxcNzpvpJn/+oTDnlWFRSFN8WU1ql05e1IvGhLWy7/ja2//x6dt5zO8n23WRDuadlNV7lQDJW40z4vx/c26+zqpNm1E1QEYaDs71mzH/BH3LIxy67UWb1DlqafgQKKPgCZl8Y/tWtV/z6Ax8ju/9hpu9qkUZlOE0pROnIy/FSWYleJboTCmrF2AWZJNh7/u0VeJGq+2gCm2ZO51n/+Dd0nns8niXUY0oM4RtROacGS0Vki7trURQnifFGaTVXjNx579Ebb/gVW67/FbJ+M3HLNhIrvaNQSeOEcO7xEMaKFzCxAqWtuoBJzxSps316Nys+9B6mX/w8ml0ZKUbN4k5CdpD8Hhbkj5uTT4S7Lxq08k5VaWiMJGYwOgqDI4z2P0qxeWB7LIsi1GqzYNya4QmH6vYTlvGWUTufLWIa6Jo2ldr8WUhPF7GWQJZhqqSarCpi/PPOLLtp3JUKb/lnEc7NU7vDrLzQd+1m66p7SIdyNJSoAxZoJeKdS/qk47BFoOHXnaH+rMluPRGF+82ODWQSXuAtPzaSL7Hoyz3mr21u3Lxw8N51hJiQuLiJiauhGKUKRS3FG13MXHY4Uqux9c570N0jpKWRFHEUs0iiXWV0kamdNJ59BEUto+Hp3Rr1yJjInWmQoyaH6elmtBy9M5RxRfnINnbc/SChjCCGJY7HSFIIrc46yeEH0bVwAR2kJC640iwScjOfooWRFGDNIXxkF6PrNzG6fbdrZQUACskeAXD20wFuIz7W9nAUt8CYKigmkCdO99LFTFm44HXUs5+JSL+7n9BsNrcDEjy/vti6df6Oe+4nzR01wTTBRSpDTtqCKe0hNUTGK5lJBViEcTH2sd/2rXTa3w5YR4OppxzNYGegTqArpniQ62LQxZnIIQDunhZFcYy7H2Wq72gKy9K8HEp3N1PfvqO24+H15GVOrXSqpS33ZWIAxkIs0Fa8ViksUP0B0XNipsw48YSBOG1KrwUl80gwQ5Jshog87v5nv429EuPJ4u7d5HG1uc82wT3IDREbVML56hQJ+s8k/AWRl2P2UgAT7ijN6kCqSs2MoTH3EmcBIpUlquxZeAsLuqbE/wLAEQeTaNWLOgaloFL0KU4NaSXRvyIi30jTdJ+tMNx9OSWHFUk8wpAPRbOqDe88VBNf7PhOQXrNY2WLIYKKfiWE7JLJbj0Rw+7zBJJOkfVFUVyUJMl/FXn+vVzlBBd6O02R3JGQOGoPRHGPHheJ0AG6M1rsRmSXqPYmrpizPirTRPEUvVqjnePGnEJtYCT4tASKTpNMcIqEVkY6V2Ty/Junl7wYvRU41iwimiAogkd3j0ASSiLuXmayy9xnpqUjSWqI3IJzcBRPC6VRqGZO9Fo0SZxRKeNqVd1gIieaSGcm/n7axl1mnApeLRY2Efc1GrQfoJBwRu56trjXg0uoLLmrxekbSXh/JslHxh7L8/wNaZpeU8TiX8uyOEREDkkSBRfUuVfd7zSsbR0tpSrXV41ExYxng++7gp6zVoOsbR/PMve9ttPdH4XIzFHh5CiUDQvbaxZmFwnfiOovrBMOFpGN7j47z/Ozsiz7STPG85saPp+6k0ZIzAHH8QGEewUZmOzH49F+8iFrq1tFZKBd9jITe1eEbhPFXUiDELxEMFetzfxfr3QAijwfEKQneHIr0q5AhEeReC3ib5h0O4Y3UNmvhaYad9A2hZ+IufeBLJx8XRCiKy4yVj1vUuJWdT9KnHMkTX80+Zncyzc78k8KX5OoPxVhZQnzUXqTgtNMkZZWDfXgTuJ+Z6rhUpHff2W7pvthQnmdu88PTjUgI+KG3+fo5qQMK4BOhIbjVM0uRy0iwqZSmWkiaXBZF6KsdfS5LrLGhG2J8HMsvrlQS0ol6SA9SkR+7+UHngh3743ENxbwYUNVkR1ZZKc7O4uEZQKr3VhrGs8Qt6nqhktCkPCVtLDn4jIP8WvzVDsMVmq1/tIPgIccTnVnpTt5h/NBnPpk/5+AOy0p3+HRjwSZIkDVQnI0yQ4XkQcm3Y8X/iJzXlWov6gUEBGCE4Nzc+L8lN+jjDwZDBYgzAd2a7RTUIab6tNRanG4uaTRaGyeeL+7p9Hsv3E/SGApQLU0rG8MKg/rWOf5SRKVE8THlrYZp3TdATptXF75UdTybBffnJEukd9/5cCnRsv92GFijwIZdnRA3TEMR8xfEtp6mL0RMB9qHzkwClJzPESVo6jaF85EgxmVxxwqQ6S2ZSyAmidJjEeCCJWJTc1EHo5B/rsk3+/cLyfsErjdsechFsQ5MnM/DHMnJuBOZoILLoiI+0ozXgA8pUrHcz9VMrlxz7n7whJukig3i3kfbSF2HIXl4Is8gAt3mnKbmV/oymMOmqodJeJz1VXU2eDQWQZZIsh9IaLqLDdlwCRscsIhaWRUkme2wgEQkQHgoy33FykcH+Bv1bgI51jPCaivdJEVoay6SiaCCQ72Sk31bSG3C0GelxVmBg+B9ALnOuK0DdSAzBJZ6dKe7vBkcB7FOCkGHrPKVkmCszsYU5jQzd8LiXX10JWYEKySQsFUxA6KqssQnTb5kacNp1ecgzUyFSgs6LZSYk8C69xsbcekCgeggONc4pmue/XsQJgnTp8L7FOOxs73c12MHNjm7VakqDQxt2TMqBd3FxdHRsV1E84qCb97hQO/Y6WTwTqPbFdHAz6gUi5BKiMx1/AVsaQ5+RkAdfoYz/ySaiarmPEYkDMxEQEVPiwij+x9FVpevsTT4uuCoIi4aJebnI3rBUHSEeDyyc/URL4KfLVw/1SU8u2lVLoUdccypxqqZUA9TAMQF9x5aJIzvx2h293niMijAAW8RGCHSTjcVcXaNS4I6k5w2ZUEzqZkAUYJ/DGm3wLqTbU5IiTq4UcatdOEdZbwgtJ9WUz9AUU/6XB+6RyaGiQlqbsfJCLrJ4ToGSODiwu4tST+Q5kyqFBoSRlVesFI3MGhVEHhZwKLIvbJmLFa8OsE/YREe5eJHbrHUW8LiPsuVPvFPKDSBRSYV1scqTSAFuYFKrj5FGAkEDJiMuLwA1N/beWMd7jrKPuZiOzu05tWfNYSpqYedqrwmLgfZmpiEucqEkRj0w0VGKGabN8JOOZNAIcuUUpsz2TShlcDb2Nh7QZGMS8BcegWlWHMI0H6c9PlquwAtpXKEkVCVlr3BIXmXqRwt1mCIxsEUtzn4iCOuMp9KDdOLkd7zvdzXZ0FBhZAcTZTra3lSDzapJgdpd3QcX2uWgDTeZNcecrsP2ZPAh/0WSR0QRNUp5KFtl1IvFmktt+3rbsfRHM/U+brPCITNlz7bez0nb0dNC4KgFNsKGF19UudOjz6RE0/d681ac5LSI4QZA5EYjtITrjJYZR2lVmvs15+h83E9kfTfbnAKVBpBqAqXAbXdYj0j93n7guBR6hW1KuPMKKddO6iyUzqDAC0oA/wGmzKYbHC7LLJ6nrCwZI+zmLuzxDuPhOYmsPpCg+XNNco9VOUcmNJ+TBAQn1ZAjcD3oQ9LYc6bAJ6cjiXPatXRjLC9aOM5p3S+ZQqT3fvAhpAq1VyekgoSrg3DtNsNGSfVgPAqBdngxykhF0GvwFIKJdGYndd6t+afP/TTdP9/ACtBNbn8Byn3FHL7UGybMvYi2si7i40WbTXRWUagWMJ3CQi+91n/vHYq0zW2SxSWau7ewc05zSBQJgLtFLSTYDI+IqCBzjAAQ5wgAMc4AAHOMABDnCAAxzgAAc4wAEOcIADHOAABzjAAQ5wgAMc4Mnz/wF6rUBS8Rq/DAAAAABJRU5ErkJggg==;" vertex="1" parent="1">
          <mxGeometry x="20" y="210" width="241.82" height="56" as="geometry" />
        </mxCell>
        <mxCell id="tuaS-E-eyfMuEXAm_5eh-3" value="" style="shape=image;verticalLabelPosition=bottom;labelBackgroundColor=#ffffff;verticalAlign=top;aspect=fixed;imageAspect=0;image=data:image/png,iVBORw0KGgoAAAANSUhEUgAAAJgAAABvCAYAAAAQVQmAAAAABHNCSVQICAgIfAhkiAAAAAlwSFlzAAAOxAAADsQBlSsOGwAAIABJREFUeF7snXmcXEW5939VdZbel1l6liQzk8xk3xdCEggkJIQAQSIgAnoRBUXBq1dcAV+vAUEQF7wSRURcCYICKlsggQRCNshG9ky2mcw+0zPTe5+t6nn/COHmznv1FUE0Id/PZz7d51TXU88z85uq6qpTVQyn+JtxHOcspdQT2WzWa2pqqujp6aGSkhI2bNgwKxqNpgH8inMelFI+xzlf3NbWViGlvKiuru7zSqmthmGsGWjzZEcbeOP9ChFNchwo02TbPaJrCKoOUJCe3KYxZiiXlbW3ts9rOtJcmkwmqaqqiqZPPx2hUHCdpmk/UkqNIKIKAM+bpplzHMeJxWLGkZYWchxntmEYAsApgb0fIaKYVFgtNHCP6B4F75tKSQZJ4GDoT2W7t27bnmhpa4Wp6xg9ehTq6+vh8/m6OeM5AGEiqmKMlXietxMcNwnDWO1nrEQ3dGRy2UvjJaXPDSz3/QAbeOP9ipTUTBxDGPBLQC4mT8Y8S2Hz9jewdddu6H4/SuNxlIYCTNd1SqVS0HUdwWAAoWAA4XAYmqatDoVCTX6/v1Y39T0ENqqrs3NWoVDwDa2tm2MYxisDyz3ZOSWwN5EuPaQ0XKOUBPc85LI5LH9lDdo6O1EeL8P5Z5+DoD+AdZvXs6FD65LV1dVduWyuPJNJ5y2rGHEcp0RKCSklTJ8Jn9+PQCAAxlgmm81GqquqO0PB4A2O42wKBoOtA8s/WTnVRAIgh6YqhnMIAAFgivDq8heQ7u5GNBrGwvPmIxYIA5K6x4wZU7Fr165Szrh/0OBBndFo5IgQ/CHXdf2Mscsty2pyHGeoAp3jeR48z4sIIZDNZhLBQGCkaZoTANw2wIWTllMCAwAdB7jC7wiYq5SaRAS92NMHbNiGyZddhICPQ3IPxJAoiZdi+IgxOHDgYMDV+bCaikpHMu+jhi6mE8kdgXDgEwb5XuPErXQm43NcF+FACLZl8WKheFEoFGr3PPosFAAOKCHBATBgAaAMDnybMePlgS6eqJxqIt9EEt0vGPu067q/la43v9jfm3jiW/8Jd8NuDGsYjviMaaieOBbB0XXMDJRSZ2sbWlKdGF09EpGqMlcaIkeMxYUi2L1FZNNZFDUPJRUx+EyBrq5uaIYP5aVlWc5FGIrAIcCBbRwqB8gzAQK4uJ4x7WcD/TtROSWwNzkmMMdxHmZgF0PJQLG/Ay/cfAto7Waw+nqkUgVoumLBRCkNqalAMRpDONGAuokTEBrdAJcz5Dr64VkEMxZGpDwC3WQAk8jnLKTTOZSUxOHzmwAUFNMBLhRTeFkARaXUGO7ac1ggcGSgfycqpwT2JscERkRRFBBSmroFLn3GyrTg+Vtvg9aWwdjPfAyuDdaxbxfZr6yE1taFXl2HpglEQzGYiVKwoZWIjKtHZFgt4okh0OMVEOE4GDiyfSkoAUTKSqE4w9EeH0EpAtcMMAAacJ3G2EMD3DthOSWwNzkmsGPX5HifUx7da+lyh5tMjn/9th+gr7ERZ9/yJVY+6TRqfXkVDj37Jwy9ZB56DrbD3XEQcn8LvP5+uHYenBOEGQCLxWBWJsAHJRCsSsBfXoZ4/QiYVZXwhfzgpgFp6GC6Ack5OMSnNMYePN63E5lTAnsTIprOGHvt2LVL7iUOvF/5LP15G84wu9A3fs13v4/81u3avFu/QZHKUXjq69/AeTd/GoHhY6G4BWZZyCaTcA+3IXl4P+zGffDWbAKyWTBXoqCbyAkOQ3Bo/hAoUQK9JoF4bQ3iQ4bBP7IBvspBOcM0W4VpbvYMHZJ7FSa07VC8AgA88iAFh0Z8pScwXwIwgC7Ng19qODbONhyAQ8AunbFnjsX0z+CUwP4GHMd5lIgqZDYzesPddydSjfto7m3fxc6Hf49IfQQN134cumLgyoCjA/5CHpkjR3DwoSdh9ycx6PSx2L92I0Z/YDGSqT54jXuRO9IFu7MPlOxGuGiDAHSHDPijfhi1CYgx41Az/DSEG2oRHlQJhANwBYMGAU0yQCiAAQoMSmiQAHTgvwD8iQMfJaiPM/CfCcauHxDOe8q7LjAi0gAMYYwdHph2ouJ53nVSyosYE6e5Pd1Vm5Z8izKCYfzEydi1ejnOW/p9MH8lXA1Qbj+STz6DTb9/GvXjzkbdZz8MnVt47oZvYOHXvwF9eE23zryElApWNgPV0YaetoPoOXIQ6vW9KDS1QOvOgjsFeNxFuiQEo3QYSieMReK0iUhMGQ9fohSu3w8BDk4CDLybSCSEhrGMsT0O0QwOeQZBbNcZWzEwnveSd11g2Wz2IcdxLiwpKRnDGOsdmH4iQkQmAE9K/Icnve967U209kvfROmwSqQ27cbk229DcNpkoKcRr93/IxTX7MWo6z6Gqg8sRj4cQiBfwPqbvoKahedi0EUXQQgOJhksbsMnFUgyKE7gPVl0r1+D5vufBFlJdMh2iNAgsO5+GAULTALpuB/mxAaMnDYflXNnQq8bBGH4oXvohs4OE2gDEf3eMIx1A+P4Z/CuD7Ryzr8RCoVePFnEBQCMMRsApGvXkmDQKmsx5d+vx5pvL0FtzkHnhrWojQSw51tLUOzPYtpXvonAvMlgBIRdC8onUJmII7t9O9iFF8LSOEjjMKXIuQIhmc+jb/U67Hzqj+jvacP4D38Y5Q2VaPrFg/jQbQ8gkzyC1jc2o2vDJmDHXjiv7sa2V96A/WMD8WkTUXfBPAw964yEv7Q6wTVNKOD5gTH8s3jXa7CTGY+cW5Rkd3CpkaNSaPqv+2D96hH4E3Vwgz5ki0mM/+Y9ME+bAEfXYCoFxqhNgcKpHz4Yad25G5O+fwc49wOGDtcrFvpWrw20PPw7dDcfxJDzZmP4lR8Dr61B65+fQOuLL+CMH3wPgmJQmoRiDoptnejauBU7176EzCub4U/lkDZsqEGlaDj3Eky6fDH8tUNe83tmAIz5FKdXHaHSXNMuZFBrdKnWMs18z4ZB3vUa7GTGA3cFY4AAlDAx9KJF2Lr8BZTsbwI3Oco+eSnMIXXgLnUHJEu4gh/hBu8XcAOI+lHsSyHPC2CGgty9H4ce+G0g9dp2+EcPw6z/+g78YyZA6BqUKqDtlU2IDB0BMgwUOEFyAQ4f9KFDMaSmFkM/cD7cziR2vrgKe55+AWrXYXT9+GH8/pE/ombRvOmTPnE5zIY6GPA1mCS6hYcEGO9zwQ4MjOsfyaka7G3gkHwYpK7SpUZF8nK6Wwwd+PFPEPzRrxBwHHREwmChKpjja6GdNhYls6bCV18L5vej63e/Q+svn8Lk792BrpWvoveRR1EMMtRecRWqLrscdjwGJgkaPFjt+/HK1V/GxK99FuUL5wJcBycOzRNQUFCcQykFJgAXHvSche4NW7Dz0V+jd8V69JkSJb4Qqv/tYkz96DUIlicAYUBxAQWsMQU7e2Bs/yhO1WBvAwH0EAiKS+hgu6QeOL3inIVo/tVjMIIRqGgEovMQ2NZ9kFtexOHfRaGq61AyYTp87U0ozfTiyDfvQv5AB9iZIzHus5+Ev2F80RUBz+AIe6IIbim0P7sShsYRGTsOgAAnBsWAonAABrgkIYkj3FuEdbARO/duwuHdO9Df2oHwoFJ4uSS6yEbfA39A84pNmHbjx1G3YC5ID8DH9X0D4/pHckpgbwMuaSNxBpd7MMBO5woID62BNzyBYv1QjPnCrbD6jiC5dQfsDdug79qJ0MGDUPsboRTB5A74oe0oWXg+gl/4DIySwbAN7ie4MJWAwww4vUn0/2klKiaOAKsoB1cMJDiIFOAUoNo70bdlJw6+vhHJrftQyNkI19eiYepkVH/4Ezi48kWI1zZjyueuwxs/egytO9bguW/chilb92Dm9ddBVZSUDozrH8kpgb0dhHiJQV4BsAlKAVwB3GeeGxwxdlom1QOvLNwTik8vM0ZOYbjkUlBzE7IvvAT38UchvAwIAiHPQ3rdy0h6hPJ5FyAyaxyK0QhSiiNsu2h59inozQUM+sz5EEIHKxZgdfWi+/X1aF/3Mlq274Hn6AiNrcHwj3wAdTNnI1w1BEzT0L1jO7Y8tRILvvIpNJw5G3UTZmHL03/A1gd+geZfPoy+g4cwd8mtc7ycvc4lF7rf1yWZqCCOgyZwDWNMDgz5nXJKYG8DxlgXgEff/AEAkF0M+mqHTpMtbeDFYjm0sKNJVZA8GqNIAr09+xEwJDQVQbaqHFnLgdnfAX3902jf/DLaxtSj6pIPITplLpxkH5KP/QFyZAj+0WFkX3gGzc+tQe6NHbBzWRg1gzHu0qtQddZsBOsr4BcBSM2AzQluTxIv3bcUpcNqUT9nDjgzwWMMUy/7EOqnTMCLd92Lptc346mbvha/4M7/M0Mf3QCNGDQCHK5mAPxzAPrfCvZd4pTA3iGKA8FBFchJDuYySD8MxTzD29OI/T9+ADzdA3b+uci8tA2xSy5DePJ0dK58GvaKFSg/kgRbtxXJTbuRHfsChN8Ps7UTYlgJ9n32K3DaLahoOUJnj8f4eQsQmzgdKhaCo0lYpMFUHDYkyMphy08fRHb3Dpz7g3ugwmWA4mDchjQY/KPHYfEPf4B19/8U2x55GH/86lex+Dv3ACNGQQkXAnIv4MsNjO3d4JTA3iFcAXo4BFfXoDjBpTysN7bj8M//C0IQhl1/CwpdB5EK7kTp2NGgkWNQUzcc7pzLkH3mJaSffwKxzhZgw0Y4ykbc5cCePnSPqUX48+diyNz5CA2ugdRNuEIoLpxiCHZQWTqkDmiei/2PP4X2PzyDsR+Yh6ppk8GIwxMKjCtw6Ah4BigkMPvz1yM+fBBevfMBvPTVb+OCH94OVlMGvxR9zGTuwNjeDfjAG6d4mygNIhSEEhy6Y8HdtAnNP3oQRqwSI758C/RJI2Fv3w63bhB8NbXQpQQ0BRo1CCWfvBjhy+bAjgAac6AxguPLQ5YGMOzWL2DE1VfDN2QIbKEDjMFgsttQfC9UAFJTcJmD/Ppt2L30VzBqSjHxU58EFzo0z0GReyAlwMDB4cLRFTx/BBMuvALn3LkErclWLL/7bhgZCyTMOBHpA0N7NzglsHcK55aXz0H5BPq2b0HL0p8gPnYURn3+BvjKxkC2HUahfQ9KJp0BHoqBKw+smIb12itoue1W9P3+CfhtF55hQfgjkFyA9aWw77afILNlNxSXcH2Ax2S3UlQJ4lEXvEDE4B06hNfu+A58knDGV7+E8OA6aJrZrTTh6UooTgY4IaM0tkMInuZc5Mgn1PD5s3Dl9+9BR2MbXvvV46CiM9qWnmV7btYj+vjAEN8JpwT2DvHg2ZlCB8KdLeh94BFEz5yC0L9fC5WoguVTyG1+A8wLoHL8DIiii3zjDjR/50fouWsp8geSMKoTCHkmkuWj4Vt6N/hHvoDueClKD27BvltvQW79bpguQVMsUeAcHtBAUAHK9mLzHfehu7cbtTd/CuEzToejKUhNJZSmXIOU5CTBSUtxpY3XpLZZEOuSjKmibqJ02kQs/tqn8fJLj6Jlx0ZwV/UwSXnXsla7RB8kookDY/17ONUHe4dwICqaupBIFyAvn4/4xz4CZsUBIqh8CzIb1kFNmwgZcNH/84fQt3EjhO3CmDAOiXPmIPn7+9AdZSi/6pMITpmJ0LgzEZ81AU133474/g7s/z+3YeSdX0fw9EnQlYk8kwjnitj+4wfQvnkLJn78Kow+dwGEbQLEQAKOYmR7ID9xD0ChRvMkKGtP9vqz4f72Tq23pxfpfB5W+0EkAjE888DDuO6eSQkzGMgrzjQAl3hAN4Av/s9o3z6nBPYOIUmLCgc7YDAdvXuPQOw5gNLaOHKCI/vKGkS6uiFrh2HP9+9BeW8R/vrh8H/4ApRX1KHriScR2NOD7KJzUHXFHChTIB90wc6aiVG1v8bBu78HrFmOnXfehfE/uB3RmhFg3EHLE0/jyLKnMfyTl2Lo9R+CZZrQ4YE5DF4ya1gt7UZH40FkW5rQc3gfOjs70NnVFVekEImFUV03FLH60agaMRqj530AiaqhDgv6dGKs3TSNHgX0SaBxYKx/D6fmIt8GRBRjjKUKVKjxu1qlqwOqrePxw5//9CAjm0VERtGbIEQu/xDiE85Gyx13INrfDldEkRkaR/n5H0TJxBmwfITc+jXo+9FP4JQNwsj/vBV6eQKe4HCZgikFSMlunk8n9vzs5+j93R9hTpqMST/4BqwdTXh+yR0YfsFZmPChy9DflULvrkb07t+Hzr0H0dfejny6Dw7ZCJeVIV4zBlVjRmDQlDGIDhuMaFUlDDMCpQRsw4HkAPO0PAP5BBfbGGPfNTXtrXG+d8opgb0NHKKfcxcXusIK69LxO1yg8Mx6ND/5S9ScOwddL65AWfdBcFGNXHU1RE8SmTIT4bMXonru2aDSKmgOQ6FjK3Z9716YKWD4V28Cxk2EqTRwcuGwoxuuMAAMBG45OLBsGbrvexjmlTPhrN4DLyfhayhBV3Mriv05eK4HyQlGdTniw+tRPmUSqqdMRKSmBmakVDLOiYMtBVM7AEEQYiccjIeQgJAA1MuO1GdxIVo14JV3c0T/VBP5NlBw90PwCg0GKTCgmEL/6j8jOmU8YhdchfDk+Wj+2bcR37cHgRYX3sTxGHn1VRCD66G4BiJ0u05PovuhxxHuFRj8uU/AGNEAKILGJIq6A6G0TZJohFJORMvmkD3cDGG7KNdN9P7qjzA8Fxbj6EmVwJeoQOzMyUjMmIyKyWMRHDIEwu+HJA5oBohhgxDiw4yxloGxAHh9wPXBAdfvCqcE9jbQocbbTMFwTUjFYO3Zg87DjZhwzSdAnoP0tg3w2rNQ5MF0PBR1A6JyGFw9ABcKASubaPrdY0gdaEfd1VfCN3k6pGaCAZDwug3HS3idrdNy2/ci++rryLyxE4X2drACA5GCWzUIhXF1qJoyFSWnTUV88BCIYBTQTRDXoEkATMFQClAKAA2HEH0DwnhPOSWwt4NiHYSj/QphFdH2+HMIjxoLUwth7/3fgX/DasStAIpjpsGTNvr270KitQN6wzAYbgEtL61E6uXXUXXFZdDmTofLXPiKDmRXN3o2bU3kV72OzJ7tQG8/NFvBDhlgw6pRMmEyYqdPRXj8WBixCmjwQWkKpDEowdrB+U6u1CQIL6EAuJqCBAFAqQZnJIAtx4fxXvI3Ccy27YmWZX02Eol8mTGWGpj+95LL5W4G0BkKhX4xMO2fDRFFLFilPgCAr4MxZhGJZp0YFHfRvX0z3A07MPiKedh39xLAMMHLRyJHEpX//kWw1CH0fvcO5PdtRXjEIBS3vYGW55aj4YpFSMw6C+6RHvTvXIPkyxvhbduHdC4NEKAHSoCZkxGaPQO1U6dYwaoa0wsGGDRedAT8TCnkWBECQTAGMI5DmnLPFQQmmVjFwOYKCQgCiNBpGOKfJi7gbxSYlDLied4ix3GWAtg2MP3vxXGcKZqmSQD/cgJzIa/h4PfC41BcLXcl1QgpR3meDZnK4cjPH0PcLaD5uZdQdtZZ4DahZ3MjRtx6I4zaStCQEpTWTEG+7TD8hw6i+eFHUTtzIhjTceQ734fcvQ5OpgeaowOhUgTnzUNg1lTER06Cv2owRNC3Vmr8aQj9DgHc6xbxQ7+OesG9kA425pifDOgRXP80AAigA0DVW0EA3nHv/yn8zd8iicjPGCsOvP9OeHMNJRhj//RfxEA88j6noO7VPQabM4+40IQHqILDen7+APU+uBTmqMkov+5TyBzYhkPrX8C4L34SZcPnAZofpLvoeuRZZLe+DuTa4e+zkYcFM9UKX16hv3Iw2OTTUHHm6fCPGwEKx+CTOpQEmK5BN817XY3/kQOrCThHZ2z1QB9PBP6mGgwA3m1xAf+awjoGeXSYc34YnA11SWpMEjTJkduxBQeffQzVl16JQVdfhtYVK5B8bgMmf+lLCE6YCiYNuG4OXush5LteR+D1VfC7EnlTQZSFgbmzEZp+HirGzACLRQADcDkd3SPMIbieBQ7ydKiXdfBWCezQgP/tW+AJwd8ssPcbmqbtUgqdilSUASXcdSDberB96VJUfvAi1F74UTTdvwyte1/EpG98DeGRU0FJBz2bngd7+iVkdu+Bq9rBTT+c6WdAmzsLQ8ZPhQhVoqADVsiBI2zoMBCUBAIh7yN4RNChhNK0SwRjf8oRnRdirHOgfycKpwT2JkQUxHFdBgnMADBTgG/V4JVQoYh1P/kp/EOHoHbWxWi87ZvodAs47at3Qo8ItD70UzjLV8PraocyJLyGGpTMuREV888FT5RI27aFFgxDEyYCDK6XJwqBDOHnIMYcApRPKj0vHaEEmFJqCgCcyOIC3kYf7GTHI9kNoAzgIAAKgPQkTCkhvSw2/fo3cNbuxIjz5rC9f3iaKgdXoeTsGehb9QbSr6+HP9cLEQvBf/YclJ53ISITxoHCvpXS1OdLy3m6mMst8geDv9R13a9p2n3SlVNtx77Bk95gXddfNgxjmfTktUWrOIcxhkAgMF/X9ZcGuHnCcUpgb3KcwG7xgMc1KSczF79TlEfzsj+gddkTCIyuBVt7iIWGllPKX4Bv80FISKBhEOLzz0HFwgth1g4FmNbNOBMup1JoHLDdfC6dDYYi4cc1TfuFruvPAgARMdd1v27b9sVSysGGYWx3HGf+ySSwU00kjk5iS8BgwLehVECX6jYFshRz0LZ8JZp/+CDinotc6yGUexy5nR2wAwEEZ5yGyMUzMWj6TLiiDDklIDQNjJMPjHMCg1AMUlEQDBBCTPA8bx8RjWOM7QRQruv6j3Rd/6HjOMtd150kpYSmnTx/lpMnkneADVQLICCAl6VU32WSxjHPxf6Vz2Hf7d/DoFQ/Un4Ov8fQXhFG2dxz0LBoMQpVpZCCw6uohm4B6O2FU1Qwg0FTcO2QAGwGkK3kZCYEGGO/9/v9b835Mca6iWiSlHKK53nNSqkZjDEQ0XHendi8LwXmEV0lgP2MsdcBQAMWSXgaHO3TkOCkXBx8aRX23XEvypIZ9GsKXlk5Si88H+MuvgRaQy3cooTV14NQ2A8fJ7ghgnIF8jkJv641aQYIDC+C8xdcz32ecQ4AK4moGkCv67oTHMdpKRQKsz3Pu4eIDJ/Pt8vzvLFKKQA4B8CpJvJEg4jG21C/JeA18mSVYnjGVfJ6JhUcVy7m5OLwc3/CG3d9D3rWQk9VORouWYz6xRdBr6m2uNDuVgCSud6vAyT8RuDXgpufFgDiQf5Yb6FnUX+2vz4Wi35fCLHds+3R0vFgGEYagKaUuhtHn1yYSUSnO44TMQzjNcMwmgCsBvDjN2uwf8gijPea953AGGM7XJKPcIl6AD2K4xyhBCMlkNbSaH/0Mez+3v0Qho74eeej5rLzkJg1DQI6hBSuYuzVbCZzVz6fF6FQCD6f70eMMQsApJR7o9FodSqVmpJOpz8Vi8VWeEeBaZqPaprW4ThOm23bH3Vdd5gQAj6f71e6rj+hlCpnjGlKKTDGgH+hPb7eCe87gQGAJrEYwG5XyV+ToltABFhp7P7FL9D46J8xdN4CDF58ASziELWDwHkQYATF+X7pyempVGoqESEYDK4UQlwDYDMACCG+kkqlSsLh8K+y2eyF6XR6EWMsCwC6rjekUqnfu647SgiBQCCwjnN+n2EYfwRAUsoPKKXiRAR+tDk9KXhfCkwJ3KuADxLh+9wlbqfSePan98HqSuL8H9yD2IQJ6OjsR7qnA1Hi3aYUCSUAKTAq3dv3H8ViEeFwmEKhUD/n/OHjbcdisT7Hce7knM/OZrMRpZSfMYb+/v5z3hRWl8/ne1HX9TsB5I/VfpZlKcbYhcd18E+KIaT3pcBcRTczzsCJIdWVxPLHn8TIqWdg/KwZvYgGJTGV4LIA5jhwuUrYBiAUB1lOSzLZO4oIFA6HX2FMexxHz4oscRxniGEYCcdxum3bvkRKWSCiyLEmzzRNxGIxcM47GWMvSCnP0LT/PjJG07ShlmU1AUfnfTVNaz2WdiLzvhQYKQVIQktTC7a/tgkLPngxSodUkQIt5ozNJ+KlxLUrFKHMzhWhS2xUykt0d3ePLFo2YrEYQqFIlpia6Xn0AYDWM8amZDKZUfl8HrZtv1UW5xyBQADFYhHpdBrhcLhS1/UAEdU5jjPr2Ga9RNSQz+d3HcvDGHtP9/H6R3HyNPb/HxobG81j7xkBra2t2N90CHMWLUSkOgGha1WGYawF0E9EvdFoNKyUQiaTged543K5XHlHZycYYygrKwMYxklPTcsXCkO7urqubG5uHtXR0YFCoQAhRF80Gt0ohICu6wiHw3eVl5e/KIRI9/X1VaRSqaWu68YBiGM+EZEwTXPxm0MUuzzP+8qxtBOZ900NVltbe2WxWAwzxtpbjjRjz969OGvOHPiCAbCj/2cKAIQQPxdCVPl8vj7DMH7oOA6SyWSwt7cXRIRYLAYpPbS1tdcVi8U6z3PBGZhpmgiFQrui0WjR5/Pdlslk7nAcB8FgcJ8QYj+A7nA4fLOmaVVKqT9ls9lPCiHOzWaza3w+3yNKqRiAuW/2wZqFEM/+t/cnLu8bgQHYyjkf29LScsu69euxYMEC+AyjSwN6AAQB5ACAMZYHcMB16UhpaQna2zvQ1NT8lpFUKoXe3l5wzmEYBoKB4K5IJLQhEolUcM7vZYzVK6VGZ7PZMYwxGIbxMyHETvbmoC4RVXiedz4RDXUc54JisTjZsqwrALR4npckojIhBANgvFXoCcxJLzAimqngXUVK1XZ29tirVr8yeeq0SSgpiYODMaFonCK51SMx1/MorJSMKeV19fb2jBNCh+cpMOZB0zRomgYhOJWXlTmmz/dCNBptZxxJDmwgoi4pZZZz7mSz2W/Zti1CoVAqFAo9DeCtdQzFYtGnaVpe1/VdAEKGYWwkotJ8Pn+ZZVlljDFomjZESvlPXazxbnHSC0wq9Z8ALZDKw+ubNkETJkaPHg3GkAaQsKUHAJOl5z3Tn0q1pPp48MSLAAAgAElEQVT7h/T29iKXy0GIo5WIUoDnSdTX16O8LH4IwMuWZX3NZ+o9xxUFx3HOlFJ2ptPps5RSCIVCKxlj/2MJPufcxxi7UEq5h4ii6XR6FhHN1XW9kYigaRo4541E1HV8vhOVk1pgRGRIpQTAVx4+3Dr/SHMrZs48A5pm3MkIZ+ULxeldXd1GR0cHenuTUEoNiUajKCsrQ01NTXc2m0+0trbCMPxwHAeHDx2CaQwPhcPhMw3DKMPR5vX48mosy/pWoVBAIBCA3+8/uijpv9NZoVDISSkvyOVyN7muK4LBYDEYDP6sWCyWEtEIzjmEEL2e5yWPz3uiclILDECUoM5QCtvf2LoLngeYpol1azd+MpnsKc/l8ygrLUUikcDQodNQWloCITRwzpBOpxN79u5BWVkpxo0bh71796G3N4nGxsaK4cOHs0gkssRxnO/qut7GGGsjIt227Zu6u7unSCkRCoV+yRgbRkRDpJRzbNse093dPc+yrAkAjHA4jGg0erPP57ubiGK9vb1PK6WgaVonEW0xTXP7wGBORE52gWUZ0GgVnVGdnb3gTKC5uRnV1eXlw4ZNQSweg8/ng1IKIN7NGE+AqN/zvNC2N97QTVPHyJEjujVN5EeNHpFo3EfB3mQv9u3bV15XVzcpkUh82/O8AwCuByD6+/urstksIpEIYrEYAQhkMpnX0um0ViwWSzVNQywW6w8EAj/0+XzbXdc9Ntblua47VkoJwzBWCiE0IprCGDvVB/sXJ0xK1iV7evscqSKcM0ydOgUVFTGAA0e3GDk6sEmSusCIpELFnsb9yBUKmD1rZk/A738AHH6dG2LEiJFDm4zmxe3t7Th48FCDZdkNgwYNCrquvLNYtBq6e5IVShGi0Vh3W1vbBNu2p7qui0AggHg8vj4Wi+3VdX0ZgC4AhxhjczzPu7JQKIy1LCuqaRpM0+QANnmeN/j4QE5UTmqBZTIZFQn6e7gQUjEFzjmOHDmC6qoSKBzdxeatKT9G4z0lrda2jty+/Y2h06dPT0bC4YsBXKIL/csA4Lp0Tn19/YJIJOo/fPgwjrS0oq8/NX3YsGGTs7lsPpvNcSEEWlpaE4xRIhKJFMvLy9eHw+FVnPNDmqY98t/eAZ7nVQIYXCwWP6mUgs/ng67rdzLGdgM41UT+qxONRntJylUl8eh1hmBwpYfde/djyuSJlqax74CzLIB7AIIEQy6f923evAnjxoxBoqw0LHW9U5eyj4jijLF+xmQFA+upqEjUhEJBNDcfQTKZxK5du3TGWAwADMNASUm8EAoFfxuPx03G2LNCiH4pZcUA9yCE2CuljOdyOZ/rujAMYz2O7ix40nDSTxVJQjwQ8PUOrRkEKIneVBpbt+zw2Za81fNoO4CVAGC5Ems3bECivByjhjfs8Bl6m5+xpmw2e7/ruvc7jvOklOoBz/OqMpkMOjo6kMlk4LouXNeF53lQSh2b1LYjkch0AIyIFrque50Q4n9843wTz3XdOYVCISyEQCgUcgGcNOdsAid5DUZEftdTpwmwF6dNnXT5kdY25BzCpk1voKIiIYYMGlwDeI0KNH/3vkZks3nMOessCM7Gc06dRBRijKUcx8mm0+nqnmTS19nZreVyORJCIBaLIR6PI5VKwe/3o7y8HH19vdi+Y0c8Fo3EE4nEpGg0CsMwdkgpYwP9c113en9/f9K2bZSUlBSEEH4AowHsHvjZE5WT4pmjv0QbUaACuFE6zgoo9a1XXl0/ePuuPROkJEQjYSw8b97W6sqK3X19vR954aXVWLDgXMSiUXAGECidK1jrm5uaq9vbOxsymVTANEwkystYRUUZlZWV7RHCGL116xuw7QImTpiAeLzkJsex+pPJ5Dm5XGGmZRUbPM9DKBRCJBrt9Jm+34SjUXDOIRjvcpX3sZaW1mHp/v7g4EGDHigpiTmGYSxhJ9NpwQNvnKzYtv1hKeX8l1atWrhnf9MgBoag34/z5p2D7dt3oH7EMAwf3gDXddHa1o7G/QeQ7OtHJBLG4EGDUF1djZJ4XPpN7TkiOZYIQ/bvb9IO7D+IhoYab8SIEVs0TfswY6zZdd2FSrGIUvJq27YmJ5PJTel01q8b+tme56lgMGAGAkHopg+tbe3QBMeo4fWvapr4hRDiBcZY20D/T1RO6ibyeBhjbUIIZ945858IR7f9++ZNW1DIW/jz08+jetAg6KaJVatfQaq/D6UlcTWsrvbQmWeeSYFgAASCYAIMynKlfI4D6O/P+Bob91dFwuHCkCFDbgewEUDmzeI8xlRc141XdF08EQgE/WD4BGNsi/Tk7zK57LxsJntWa0dXxHYcDK2rsRjj25RSCSHEu34g1T+T900Ndjy2bRf2HzjkrF27MZLNWwDjMPw65p9zNuqGDGrWORKAatV032TGWOFYPpfcCyHpMc+j7Nq1GxKpVAqzZs5YWV1dseB4+65LH1TKCXKuzQZwCUCNRctOp1L9c5PJ3pSmaRWlpSXoTWWQyWYxccK49WG/74zjbZwsvG9qsGMQuQs9z/GNGFHrqx5UibUbNmFv40EUihZeWvUypk4YM2TCuNHcNPQGAEMA7Duaj4IK3kc8kurAweZgW2sHTp8xDfHS2I7/WQKglIxKSTP7+5ODM5kM6+3tm2I7jllSUoIhQ4ZUhMNhTymlHWpuQUlpKQzjrWchTzredzUYEZUAzteOPjUtJiil1ra2d9zy+uatZntbO0gpRCMRjBw+vG9oTc2fyhJl3RrHTCboNAD+dCrLli9fSUOHDlXTpk21GbCFMd7lKbnBsuxx+/bsPeB47mLLsqa4noeSeNyurKoUJfH4fT6f8UdwPpERG5Hs7fm3Xbt2RyZNnnwoHA790dT1Lw309WTgfSew47Fte5xpmjst17rIlepPPT292L17L5oON8Eq2gj4/EgkygrDR9Tn6uqGJAzDxOqX1jDLtmn+/HlK0zQnl8v6WluaD/f19Q0tFAowDAOJRAIVlZUIR8LQhNbOOa8Qun6rxth3AMBxnKf37Nlzged5NH78+CUA+g3D+NEA904K/qrAHMc5TUoZdxzncCQSaXcc5yKlVB8AaJoG27ZhmqZr27bu8/kSnudt8vl8ewfa+UdgWdZwz/MCRFSSSqX6SktLU7quTwaQIiKl6/p2z/OmEVEWgGEYxpqBNo7hkXerUu7tAAMRQ6Fgoan5CA4cPILOjg44rgPTNFFZWYmuziQ77bSplMlkkclkYRoc5WURVFQkEI3F4Pf5wTkD4wBJBUWkBOdccPFZz6MmTdPW5nK53o0bN/Jx48Z1lJaW/gxAiVJqg1KqjzF2yOfzvSvHuPwr8BcFRkR6V1fXzp07d46YOHFiPhQK/UwIMRxAJRGNTCaTob1792LatGl96XS6ZNmyZfjIRz7yH0OGDPnhQFv/CHK53LJ8Pn/FzTff3F8oFOL3339/wefzCc55KxHVE9GxFdLdRAQiWuL3+38y0A4AEDmnA7QeYFBAkUMsleCvu673aKFQREdnF44caUV3VxdS6QzzXI80TaCqqgpVVQmUJ0oRiUQQDoegaTo4Azg7ur6RvbmZCWdiheDiK57nNTQ3N/++u7sbEydO7D548KAdCoW64/F4VbFYbIlEIg+FQqG3lrOd6Py1Tr5v165docWLF2PJkiX4zGc+E3tzTk5XSoV+8IMf4LHHHsOGDRtKbNvGkSNHkEql3rOnMDVNwx/+8Afk8/n4rbfe2qFp2oGHH3549hlnnFFdV1cHIuru6OhI6LqeKCsrA+f8r+wHqzcBXh5AG4f2ScbYGqLiMHCGaNiHcKB2x6hhw3pt151dKOS1vr4+JHuS6O/vx4HGA9i9pxFKEUzTQCQaRUksjJJYFNFoBKFQGKZpdhsms4hTleM4bmtrKxoaGlKcc+fZZ58N1NfXT83lcti3b1/86quvLhno3YnMXxNYPp/P7wsGg1WPPPJI8Jprrjk7EAjsYYzVd3d3e88995zGGIMQAoMHD87ffvvtlmmaNxUKhSuJaFJXV1dXOp1uqa+vr9c0bVOxWJzAOa9Ip9OorKzsklJO6O3tpWw2u6O6utrUdf1FTdN8ruv629raznQcZ21DQ4MjhPiwlHJfMpnUCoVCsKysbGUoFBKWZV28d+9ejB49GpWVlTscx5nw05/+FNXV1Vp1dXX/pk2bEqtXr4amaVi4cCEmTpz4Fx9/YYx1EVEpAMneOqcn1SVE/EMA8wTXXvE875xAwLw+EDBzsVhk4rBhdUFIwFVuV1dvKtHZ3hVhTJ3t2NYYxnBasqcbzU2H4XkeuBAJ0zAu8vt9F5imqYQQKCsr28cYG9XQ0KCFQqEDTU1NDfF43M9Pom0DgL8usIiu62U1NTWspKQEzzzzjLriiisaiKj/N7/5TWT69Onaxo0boZTKNDc393/pS1+q/cUvftHOGPvAkiVLsHXr1hpN006bO3du5tJLLx1x0003+cvLy5HNZrF06dIhd911F9u2bRs0TTtNCIG77rpLHz16dO+tt946eevWrUHDMBq+/e1vdzY0NJjf/OY3p23btg1CCHDOh99zzz3YsmULnn32Wei6jkwms0AphYMHD2LJkiX6xRdfrI0bN65oGIa/tLQUPT09YIz9b5PNb8EYc/7ndVUewOPH3Tr+fcdx7wEARBR2XfdyxthBABaAGZ7nEed8tW3bVcVi8TXOORzH8eLx+GQhhM913bbZs2dLn883fuzYsWtN0xyu6/r+gbZPZP6awGzOeZEx5l5++eUHH3nkkVGXXnrprlwuF3ryySf9d999d/eGDRsSlmU9VSwWh7S1tdUSUe8jjzyCTZs2tf/85z//U0lJSdbzvHm7du16Y8uWLZ/4yU9+kjnrrLPSDz74oN7S0lL5+OOPk2ma7P7778ftt98++u67737qz3/+c3D58uVdpaWlFUKIzY899tjCvXv3YtmyZQgGg92/+c1vEl/72tfw6KOP7ty5c+c4KWXjF7/4xe8JISpefPHFm7/85S/vmTdvXmHdunVnDho0CB0dHZg+fTqUUhMGBvgP4I90dF3jG7qut7iuqxmGMV3TtDP9fv9KpVSFEEJTSh0kIksIMToUCuWJ6KV4PA7O+Z80TTthtyx/2yxduvSOqVOnFnt7ex8fMWJE36pVq9p+/OMf93z0ox+lw4cPbxw9ejTddtttwxsbG7OTJk2iZDK5Y8GCBd5Pf/rTTcdsuK676Atf+MLC0aNHq56eni2e56295JJL1IMPPthv23a3bdsbt2/fvq+6ulr19/e3zp4927344ovV6tWre4rFYsvVV1+tvvvd7zY6jrPbcZym7du3vzR06FDV3d299Mtf/rK65pprVh4rq6qq6uATTzzxZ9u2P5HP51c1Nzc3d3Z2WpZlWYVC4evHPneK946/qcEPhUI9ixcv3vvQQw9VP/LII2Uf//jH/9cthoiIA2B79uzZODAtEAgwxtgRAIqI4LquTUR/5JzbACpM02Smab728MMPr585c2bntddeW7ZixYpBRAQpJeHoCay63++fph3dw/Qv7jPJGBtMRG2VlZX5aDT6BhE1Mcb+H59O8Y/n/1XJcTQ0NMwPBoMmYyx8ww03NK1Zs8Y1TROnnXZaI2MsIoTAJz7xiSfS6fQazjmISM6ePVtt2bLliubm5sfT6fRPDhw48P1FixZ9jDEGpVSbUmrsjBkzup944omKvr6+64rFYurXv/61MXny5M5UKhXo6elhn/vc5/ZNnTq1Z9u2bf2zZ892n3rqqWEdHR0XeJ7Hli1bpk+fPh2maYJzjkgkUvamsGGaJpRS413XDQaDwc8bhnGuz+e7xOfzneHz+Qaej3iK94C/2AcjIvHqq6+GKysrwTmvTiQSPZ/5zGdQX19Pfr/ftSxrxODBg0kIUYzFYpNqamqIMVa84YYbent6eirOP//8D/p8PlxzzTVszpw5g+vq6kgIUUNE+z/96U9XZDIZLFiwAJzzRZMmTWLf+c53dmSzWffGG28807ZtqqmpwUc+8pH+RCLR1dzcPPjCCy+EpmmV48aNw7e+9a0jpmmeWVJSgv7+/iRjTAHA9ddfj1tvvbV21apVC5cuXfrVgTGd4r3nrw20GpZlXWXb9mSfzxckojCASwD0apqWVUq5juPEDcPYQ0TDPc8brOv6SinlXsbY5s7Ozu5IJDLT7/dPZoztl1IONQxjBBH1ARhLRLF8Pr9U07TLdF3PCyF2KaUOeJ4XtSwr6/f7+zVNqwDQpZRCoVCAlNKIRCLXCiFSjLE1juPMJqLWUCg0HwBs276jr6+vKxgMDotEIv9xfDz/G0Q0Uko5SwjxgpTyXKVULWPs5Teb4KLruoJzPsnzvJWMsVkAtpmm+a6dNvd+4C8K7Hg8z7uWiG4iohYp5QLLshwicgzD+Dbn/OOc83oiYpzzq0zT/N3A/ABgWdZIxtgUIvou53yzUmp2Op1eo2naIr/f3yOE2AZgOGPs+4Zh3DcwPwAQ0TDLsp7knKcYYzEp5U6lVDEYDF438LN/C0TkAzDN87wSz/N+yTl3pZSUyWRSmqaF/X7/DqXU1YZhPKiUmgugw+/3jxho5xR/mb/YRAIAESU6OzvzO3bssFesWGGsWrXqvJ07d6JYLJoATL/ff2dNTQ3mzJmDz372s4jH49ZxeWOMsRQRhTs7O1U+n1+0fv36L69YsaJi/fr1Va2trczzvEUAmM/nS0ycOHHB7NmzuxYtWnR+Mpl80jAMOxwOmzi6cYjGGEt7njeOcz5s2bJl5vLly/tM06xYsmTJzmNl/h34pZQzu7q65j7//POxP//5z3jjjTeQy+USnHNomlZVW1vbefrppxduuukmSiQSzQMNnOLvhIj8tm0fXr58+euTJk0iwzBI0zTinBNjjAzDICEECSHI5/PRiy++2F4oFGoAoFgs1tu2fb/nedfatr1vxYoVzQsXLqRAIEC6rhPnXHHOSQhBx151XSfDMKiuro7uvfdemU6n047j9Nq2vc5xnE8f88vzvKsWLly4VwihgsGgWr169Tf+2+u3h23b92zcuDE1a9YsZRiGEkIozrlijL11rWma0nVdPf/888p13e8PtHGKv85frMEYY8XNmzdnb7jhhqnt7e0QQmDUqFE0b948VlNTA9d16cCBA+zVV19FU1MTeZ6XMwxjAYAHfT5fr+u6+6WUNz388MNDb7nlFr2vr48YYywSiWDGjBmYPHkyKisrKZPJ4NChQ1i7di2amppYe3s7brnlFrZr167I3XffTaFQqJYx9tboNhFl3nwFAFiWdewx5beFlPLhpqamC66++urIoUOHAAANDQ0477zz0NDQQLZts6amJqxbtw579uyBZVl9Usq5A8yc4u/Bsqwv5PP531155ZVkmibpuk433nhjPplMOo7j3OQ4zhds277XcZwbmpqaLv31r39d3LRpU1M+n58BAESk5/P5O3/7299awWCQdF2nQCBA//Zv/0a7du0ix3Gedl33Ptd1f1QsFud4nnd9f3//3gcffDA/bNgw0nWdfD4f3XjjjSqTyfzGtu2Jx3xzXXfRwoUL93LOVTAYVMuXL///duYHUiwWF1iW1XzttdcqTdOUpmnqU5/6lOrq6lK2bS/1PO9mz/M+5brubUeOHFl43333rdu6datyHOeJgbZO8TYhotM9z7vu0KFD/ZWVlaRpGo0fP546Ozu3OI7z/xwIT0QjHMfZVCwWW23bvhwAisXisN27d++srq6WmqZRIBCgO+64gzKZTKdlWX2O40wfaMdxnN22bT++adOm3IgRI0jTNAoGg2rZsmWq+H/bO/fwqIps0a+q/ejupNNJJ+RFHpKQBMLDIJhEJAKByPDwgSIDYSaI3vGM351BUQb0agYRB3XmwvGBc507DszMUQ8aiAoCZpAZgmCIM+pJSAIhmSQkAULe6cd+713r/NHp3NCA4tHzffcPf9+3v53ee9Wq2unq2lWrVq1SlPlBue+ighmG8etz5869m5KSwgghLCsri3V2djJN0xRVVZeGyquqWqooSodhGP8n9N73fDVXGFp9Pl8LIj7b3t7e2t/fDwCAubm5ksvlsgHAcUSMDUkCiDieBCaTCQb24R6/Y8eOiT09PQQAYPny5bB27dq/C4LQTQJr/thlCgDANM1PCCHOKVOmtL300kuWzWYDTdPghRdegO7u7umIKAzr/tYgYvqlS5digqEwJ02aBG63uwcRTZvNdoVBlhDShYhNjLGRBSCIyCOiW9f1go6ODgciiogo1tfXi4g4BhEjdV2/GRFp8DwqbZIkScm6rufquj4DEZMQMQURUzRNy0HEccOfueF8xGGZsUEdo3SNDabXdf1mRVEyENENANDW1mbXNG3qcP7jETFG1/VcSZKSh3XegIiZiDgRA/m5ETESER0+n28k1IGqqtm6rt+KiI5hOXFYZ4okScltbW12RBSeeeYZiqOeE+AqfbCIiIg4wzBeNk1zLgAAIhKv1xsOAF2ImA5w+U72JBDBzw0AYBjGQsuy3u3q6ppVVlbGISIkJibC+vXrDzgcjjOCIFwzcnJYWNjDAACmaf5LYWHhfQsWLLh9//790NjYCJ9//vmvx44d+yiltBEAXg5J+o1hjP3d4XD8nBAChBBQFGXEZcc0zSkAcNm6RJvNthMAdo6+pmlaJcdxNsZYtMfjSdu7dy/U1taCx+OBuLg4mDZtGixYsKAnKSmpnxDi0DTtDQB4ARHjv/zyy/fPnDmTRQhxzJs3z+t2u5uamppm7t+/H/r7+yExMbFv8eLFY06ePNksimLE9OnTEzIzM48BwAEA2D66HIqiPEApLWxra5t36lQgXkp0dPSjALAjKSnpJsMwPmWMdVdVVXEHDhyArq6uMYqiQHJyMtx66604d+7czsjIyIsAkE4ptSilZYyxGV988UXqtm3bztrtdt4wjDyO4xo+/fTTvMrKSvD5fJCbmwtz586FPXv2gGVZMHPmzP7S0tJiwzB8EFjCd3VM07zfMIzPWlpaTiQmJiLHcZiYmIjNzc1+VVW/0pVE1/XHTNN8+OWXX26mlCLP87h27VrUdb3ZMIzr8nRVVfVeVVXrysrK+kVRZIIgsFWrVvlVVa3XNG37d/SKfK2zs3NXWloao5SymJgYdvLkyTpVVf9dUZSFofJXQ5bllkuXLrGnn36axcTEMFEUGaWUcRw3cowdO5b98Y9/ZJIkeSVJugcAABFv/OUvf9kuCAILCwtjn3zySfOf/vQnFhMTw2w2GxNFkWVlZbHDhw+zqKgoxvM8W7ZsGZMkqVXTtJLQcmiaVqwoSv3q1asZx3FszJgx7MCBA1sAAFRVvau1tZWtWrWKORyOkf6mIAgjx5QpU9iRI0eYLMv9iqJUq6r6uqIoH5aUlDBCCHM6nay3t7d/48aNzOl0jqRfvHgxO3bsGNuyZQt76qmn2LvvvqtIkvShqqqZo8t3xSty2OD5ZEJCwpvz58/3Ukqhp6cHfvrTn4a3t7cP6rr+C1VVN+i6nhuallLaxxi7/fTp0xkcxwEhBKZPn77PsqyfIeJloYuuhWVZ1Yh4T3R09DORkZGAiNDY2Bgmy/IlQsj7ofL/FXiefy42NvbcggULJJ7nwePxwNq1a7Pa2tpuJoQs0TTtOVmWN4SmQ8Q4WZaf0nX9KUmSetauXQvbtm0Dv98PMTExsHz5cnb//fcrRUVFhsPhgJ6eHnjkkUegvLzcyfN8NCLmWpZV4Pf7uxljgIjQ0tIyft26deD3+yE5ORluuOEG4DgOpkyZAlOnTgVKKZw8eRLOnz/PQyBuxWXoun6pq6sr/C9/+QsQQmDOnDkwf/78dEmSXmxqanpw9erVI63M+PHjobi42HrwwQchPz8fOI6Ds2fPQklJCdTV1YURQpI4jjtCKXWTYVdvAICysrKIV199FRhjkJGRAfHx8cBxHCAi2O12iImJAUmSunmeLzUM4/pG9YjoPHPmzBfZ2dnI8zyKoojp6en45z//ube/v79XVdVXQ9OYprlCkqRHbrvtNqSUYlRUFJ46depXoXLXw0cffTRu2rRpjOM4lpCQwM6dO3cMEcO+ixZM1/WZiJjT1NT0xowZM0Z+zWlpaez111+/5PF4aiVJ2nqVdLmGYfxGVdWq0tJSZrPZmM1mYyUlJaytra1J1/U/GYbxst/vL6+qqmJpaWlMFEWWnp7OGhsbN+m6foumaVPWrFlzgOM4ZrPZWE5ODsvIyGBHjhxhiqLUSpJ0tKGhoVOSJLZ9+3Zmt9uZKIrs9ddfl2RZ/mFomQzDuHf79u2twWfYt2+fqmlao9/v712yZAnjeZ45HA5WWloq9/f3fyZJ0jFFUf5VluVNb7/9thoZGclEUWRFRUXM5/P5ZVlO0XX9zdWrVzMAYIIgsAkTJrCCggJWX19vyrLc5vV63zl16lT70NDQ6cOHD/sPHTrEGhsbv9kIGxHjFUVpr62tvXTzzTejIAgYHBHecccduGfPnrdlWZ7t8/lulGV5FiJONk3zKY/HUz558mTkeR6Tk5Oxvb29KFT39eD3+xNmzZrlp5Sy6Oho1traWmea5lPfRQUzA1NfLlVVd9XW1vbPmTOH2Ww2ZrfbmcPhYAsXLmTl5eWHenp6Ev1+f6Ku67M1TbtR07QSTdO66+vrWUJCArPZbKywsJD19/e3KoryZ13XH9V1/WlVVf+vLMsVO3fu7HU4HEwURbZjx44BwzBeMAzjzmAFE0WRuVwudvjwYY8sy6WKolSqqvoPTdP+ahjG71taWlh8fDzjeZ7NmTPHL8ty8cDAQKSu67mqqk5AxDBZlp8pKCjwCoLAsrOz2cDAANN1ne3bt2/kmdasWdOnKMrbhmFUapr2vqIoL+m6vkeSJH3Dhg1MEATmdDpZZWVlHwb2XRqpYADAsrKyWHNzM1NVtU7X9V2qqu7QdX23qqqfKIqyV9O0o5qmffO+MSLaTNM80Nvba6xbt85wuYUDSx4AABBYSURBVFwjrVlMTAyWlpZiV1eXIcsy0zRN13V9v9fr3T9hwgSklGJmZiZ2dnbeEqr3ekDElHnz5umEEOZ2u1lDQ8PfdV0v/S4qWBBN0zarqmp0d3ezJ554gkVHR4/0g1wuFysuLj5/4cKFRlVVT6iqWqmqarWqqpe2bt3Kgn2od95555Rpmg+ZprkSEX+MiCWqqj6j63rZhQsXPk1KSmI8z7NFixYNmqZ52DCMymAFI4Swe++915Ak6dlgmRDRhoGAwsWyLLN7772XcRzHIiMj2ZEjR141DGO+rutvqqr6v3Rdb62trb3kcrkYx3HsmWeeYaqqntc0re+uu+6SeZ5n8fHxrKWlxafr+nrTNFeapvnj4fNKXdf/8vHHHzdEREQwQRDY1q1bPYiYEFrBNm/e7NM0rQkR540qJ0HEr12SfkUfbDSEEI3n+TucTufzW7dubfroo4+gsLAQOI4Dj8cDv/nNb2DFihV8W1sbsSxLJYRcFp1PlmUwza9YzPMVSJJkqKqqE0KAUgphYWE+QsjPQ+W+DYyxSAA443a7YfPmzVBRUQGLFy8GURRB0zQoLy8fu2zZsqyamhobYwwppdGEkIhPPvkEGGOQlJQEM2bMEAYGBu4cGBhY1dvb+8Pe3t7lPp9v8eDgYJRpmhfGjh0LjDHo6+uL9Pv9WQBw2ZeSn5/fKgjCiH2REKIRQgwAAJ7nK0tKSkyO48Dn80FNTc3DjLEXKaV/tSxLtSyrvry8PEKWZYiKioJly5b1UkrF/v7+U3V1dXZKKUyfPh3sdvuXQ0NDcwYGBlYNDAz8cPi8amhoKCEhIYE5HA4AAGhsbBSUwDzzCDzPw6JFi8IppR8ahrEyeJ0QgoSQ/7fr1zW4wkxxNex2+9uGYRzKy8uL3r1797+Vl5eP2bJlC/T29kJVVRWsWbMG9u7d252YmNgoCEJmeHg4EEJAkiQghLygadpbHMeF8zx/Rb8tFFVVJ3EcVyJJUraqqmEAAG63G8LDwzMRsZoE1jp+V+zgOO4gISSOUhp/4403ntu5c2fJvn37lj777LPQ3d0NNTU18JOf/GTG/v37pdTU1L8ODAycvHDhQgkiwsWLF+Guu+6awBibEKo4SGdnwMVeDrgb2QCgFQAiAQLBh+Pj42sJITeMSgIAAbugIAi/zM3NPTpu3Ljb29ra4IMPPuAffvjhf3Ict4QQcklVVfvBgwcdiAh5eXlScnLyQwCQPjg4WDI0NASmaUJ1dTUUFRXdhoG1oZflQQgBy7LA4/EAIkJfX1+w1RpBFEVISUlpAIBYQRBeGn3vevjKFiwIIaRJFMXP2tra/uZyuU6sXr3aeu+99yA7OxsopVBbWwuvvPJKBmMsi1J6OiMjAwAC/9SWlpbbKKUPIeLUELVXhVIaCwCzBwYGbm1vbweO42DcuHEQHh6+mxByLlT+2+BwOFoFQTjC8/y/8zz/kt1uf9/pdAorV67sOXjwIOTk5IBlWdDU1ATPPfdcuK7rNsuyFMMwgBACuq5Dc3Mz/POf/7zmoWkakGF7GwTsayOVkeM4iI2NNXmef3ekUMNQSicSQvbExcV13XfffUAIgbq6OqioqDgPAHWU0uwvvvhiwunTp4HneSgpKTHdbvenoii+fPz48fcNwwDGArvFhZYpeDQ3N0NraytYlnVVF3iAQCV0Op2diHhW07QrDL1fx3W1YEEyMzOZaZpNlNJVOTk5T2/bti1+5cqV8R6PBz744AP4xS9+MTc2Nnb35MmTz5eXlycjIlRUVHAFBQWZlNKRxRlfBSEk3LKslOrq6lifz4eEEJg2bZosiuIKSum7jF0xCfCdQgipJ4SEZ2RkfP7aa69NXrx48Q0ejwf2798Pv/rVr37gcDgGghUmKysL1q5d215dXV0WqieUm266KdVutzshsDtIHEDgy/N4POd1Xb/iVUMp7UbEbkR8f/78+Tfu2LFjmiRJUF1dveLOO+/cZFlW765du8ZblgXp6elQVFQUqShKOAD0D298ChzHwYIFC+Cee+5puXjxYs25c+cCs/pXIS8v7wdJSUmGZVkaH3C4BIBAGXVdPxQWFuaHkJ1N/lsxTbNEkqSz8+fPR47jMCIiAhsaGtAwjBfq6uqUyMhItNlsOH78eDx//jyqqnpt6+4oVFVd5/F4ahctWoR0uCN/4sQJZprmQUQk32Un/6tAxBhN0w4sXbqU0YB7ETtx4kSdz+fryc/PZ5RSNmnSJNbe3v5kaNqvY/Qosri4+AeGYdwRKhMEETmv1/sfs2fPZpRSlpuby4aGho729fW1ZGRkMI7j2KZNm5gsy52I6AQAOHv2bFlMTAwjhLD77ruP6breYhjGklDd12J0J9/pdLKOjo7ZoTLXy9XbxWEwMPdEhv8WRt+zLGuKIAifxsYGpiYREfx+fyUALM3MzHx+yZIllmVZ2NHRAS+++CIwxoRhOSFU16jrNkSMOnTo0NSjR48CpRRmzZoFkydP/i3HcXcRMhzw4RsSml+wDIgYNnx2IWLo9nmJAJDmdruV4AWe53mbzVabmZkJiAidnZ3Q2to6N1R/EBweaeHwF/9fhDkcDrm4uBg4joP6+nqora3NOn78eFp7ezvY7XZYvnx5N8/zfq/XawMACA8PP5aamgqUUqipqYGurq5PeZ4/goHvM/Q5AQPznTZEdGLIXOK35YpXJCJOMwzjX/v6+sSmpiZXamqqR9M0YprmeUVRREppC8dxZ03TvMnr9eadPXsWKKUwZswYEEVxL8/zv7cs684NGzacr6iouMHn88GuXbsgIyNjst/vP6FpGs/z/JuGYTQBwGIA8AGAqOt6vmmatoqKirj169cTK7DfDzz55JNgt9sbyciS/gCEBEaXUVFR6ZqmTRl9bzSU0gdM05xhGMargiC8BwBgGMZD/f39P/f5fO6UlJRBAHBzHHdM1/UGABhPCEnXNI0ZhpHQ2NjoIIRAREQExMXFqYQQx6xZs9rKysrSVFWFN998Mz8vL++wpmkMAKo4jjtnWVYKIlqmad6BiLyqqgmKojzncDh+d1nhroOLFy86YmJiJi5cuFCPjo4W+/r6oKKiIrGjowMYY3D77bdDRkbGGELI/sjIyH4AgNjY2PGFhYVQX18PHR0dUFFR8eM1a9ZkIWIbAMgA8D8AAHRd34WIUZqmZRiGEcbzvA0Rbx39ivy2XFFbLctaBADRbW1tE5YuXTr1rbfeKujv79dM08zCwMKPNDPgK3X79u3bI8+cOQOICLfddhukpaV9RAgxGGOfZ2Rk1D/99NNdgiCAaZpQWloqrlu3blZra+tUy7LuZow9zxhbiYg5lmX9y+Dg4Mxt27bNfPjhh8f39fWBKIqwfv16yM/P7+E47qotBCEEXC5XUNcVByJu13X9R5ZlzYZRk/SWZaW3t7cbd999d/zOnTsnejwexTTNGxFxAWNsqqZp4zRNi9uxY4c7OIFcWFgICQkJRwEgcsmSJQ0TJ04EjuOgrKws8g9/+MMcwzAKENGLiNmWZY0BgJ8bhpF74sSJm9avX5/IcZw7mP83YezYsRaltCsxMfEfRUUBm/Xf/vY3qKysBEIIrFixop/juN0AMC2YhlI6tqSkpDcsLAwIIVBaWgoVFRVTLcuawxhLD8rpun6DqqpLy8vLp7zyyivplNIkSum3aW2v4IqqioinLctqHxoa6mtubp7/s5/9DEtLS+cVFBRAVlaWGRYWBp2dnbSqqgqam5vBsixITU2FjRs3dguCcCMAtMqyPCSK4r4HH3zwSE9Pz8rXXnvtZkVR6K5du0hZWVnYzJkzi6ZOnWq53W7O6/XedebMGTh58iQODQ0BIQREUcTHH3984NFHH32C47hEQkgNAIAkSUmEkBiHw+FERJBlGZYuXZpCKU0JeYwR4uLi4L333gOn87L/W4ogCFHt7e2wbt062LJly7jc3FzMyckhNpvN6urq4k6ePAmNjY3AGIPY2FjYsGHDGZ7nbyeE/DouLm7Oxo0b/+ORRx65yev1wpNPPgl79+4VioqK1mVlZUX29vbWDQ4OOg8fPgw1NTWQnZ0Nuq5fdQeP2bNn5zDGroh1EYQQopmm+b8JIVnLli0bu2fPnrSamhoACHjgzp49e49lWXWCIFQH05im+fsJEyZ4n3jiidWbN28WBwcHobi42LFgwQL77Nmz2fPPP1+uqips3rx5VkVFBTQ1NcGPfvQjME1ziOO422F4EPLfgq7rt6mq+m/Hjh07MWbMGLTZbCO++HTYf54QMuJ1mp+fj9XV1UOyLA8pivKDUH1+v/+3H374YXteXh4KghCccmLcsD8/ACAAIM/zKAgCFhQU4Pvvv39JUZQvQnUhYqJhGLVr1qyRuWFL+NcdSUlJ7OLFiyckSRpxclQU5bmjR4/+NikpacQPf/SZ4zgmCAKz2Wxs6tSp7PDhw5d8Pl+TqqojI2FZllvefvttlpyczIafh/E8PzIgCF5zuVzsscceY6qqPjb8DPGPP/743wVBYHa7nR08eHCPLMtzgnq/isbGxpJJkyaNeDRs2rSJSZKUHypnGMZcwzDe8vl8nz377LMsNjZ2pHzisIdK8DPHcSwuLo797ne/Y5qmtRiG0aaq6h/vv/9+RghhERER36qTf0ULRgiJB4C5eXl5YR9//PGBysrKBcePHxfPnj0Lvb29IIoixMTEQHZ2Ntx9991QVFTU4HK5HIyxRErpFbGtOI6T58+ffyk/P3+wuro659ChQ/Dll19Cd3c3dHd3o2VZBADgzjvvhIceeujcrFmzCM/zFAMd70RCyOhft8EYc91yyy1eURQv2+zzWkRFRYHNZhvgOG7EgY4Q0pebm/s/jx07Bu+8805DQ0PD5Pr6eujt7R3pT06cOBEWLlwIixcvPup0OgtpIBDMyCCD47ia5cuXa7fccsvEt956Cz7++GPo7OwETdMgIiIC4uPjoaCgAO655x6YNGkSUEp1AABJkkhRUdGUYSM0pKWl2Sil0wDgWFD3tRg3blzaxo0boaqqCnieh+XLl9cIgsCFygFAEQC8Z7PZJm3cuDG+qKiI7N69O+Wzzz6Drq4uME0ThgMSw9y5c2Hp0qWQmpraYxhGqiiKuymluXPmzAGbzQZ2uz209f9GXNUsjiEjCVVV0xRFmTw0NAQcF9hCxeVyVUCgXzMGAITBwUG/2+02yKiw3wAAg4ODUVFRUQYAKBCwYGuyLH+k63pCZWVl6gMPPGD3+/2QmJjI9u7d25GTk+NHREYp9VRVVc0rLCy8bK4ptGzXCyGB1d8AAB0dHY7Y2NgEu91+CQBUr9cbbVnWLJ/PBwAAERERzO12HwqmQ8RECGzBFz+6wmNghE0AAHw+3yyv1+vWdT24222vy+UaMc2Mzn+UvhFG378Wo/MDAJAkKd7pdF7xekVEOlzuoDwCABkaGpotSZLLsiwICwuD8PDwWofDMTqaT/iwfDiMKt/1lO3/KwzDqNE0bb+qqsobb7yBTqcTRVHEyZMn4+eff96qKMo/FEWpwau4Z3/P93wtuq6v1TRthWEY2yVJqt20aRPa7XYURREnTZqEp0+fvqQoSp2maat1XX/CNM3loTq+53u+53vgPwFGYlOQHVheUgAAAABJRU5ErkJggg==;" vertex="1" parent="1">
          <mxGeometry x="58.85" y="290" width="138.31" height="101" as="geometry" />
        </mxCell>
        <mxCell id="tuaS-E-eyfMuEXAm_5eh-4" value="" style="shape=image;verticalLabelPosition=bottom;labelBackgroundColor=#ffffff;verticalAlign=top;aspect=fixed;imageAspect=0;image=data:image/png,iVBORw0KGgoAAAANSUhEUgAAALgAAABdCAYAAAAWuqz2AAAABHNCSVQICAgIfAhkiAAAAAlwSFlzAAAOxAAADsQBlSsOGwAADR9JREFUeF7t3HtQVNcdB/DvNTHJ6O6adGrKAjq2UYKYpD5QMaNEbYSRSpyGoAVnWsFRcDKCiWgrvvCFTkQjOEnAVPCPCtElyYCI4yNKwEYRAROD4mrVCY81pkmze5dMo0lO/7i5l3vP3oVlH6Q2v89f7u8+9+7vnvs751wECCGEEEIIIYQQQgghhBBCCCGEEEIIIYQQQgghhBBCCCGEEEIIIYQQQgghhBBy/6u7c4l9+uVNxscJ6U8P8gF/ect6GNc/a+fDhPSrAXzAH5aez2fVnedxw27D/pZj1IqTn4zAB3w19fhy9unXtwAAA75ieOD7Aaj4wxY8GzzG78cipDd+bcGXns9Xklv2/fc/YO77a/FRZwu15KTf+S3B37RWsrJbp/kwACnJEypz8PV/nJTkpF/5pZP5yb9vsOgTr/JhjW/v3kXs+3/hw4QElF9a8NUX9/EhXde+aMeOpkPUipN+43OCH7j5AfvHFy182K28+oNUqpB+43OCb295hw/16N697/ByTQEfJiQgfErwujuXWNs3X/DhXp282ciHCAkInxK89NYpPuSRe/e+w5ufVFCZQgLOpwQ/0lHPhzz21seVfIgQv/N6mNCTocGe2Oxf8iESIG0dNhY9JxEAEBU5TolfvnoNDtGpfAak5SajAZMnjMOs6dMwLMTsMgNtd4gsek4iTEYDQoPNmmXqfUZFjkNocBBenDMbUyaOd9lPf/D6oG9aK1n2xWI+rDHgKwbc5aPddse8jD+Fx3h9DsQzbR02dvnqNdQ3NqOk1KLEJ08Yq0n49s7bOHehGR2220osNXkeMtJSMMRkVH4nu0NU9ld84BBEZxcAYNb0qYh4chQA4NyFZtQ3XpQ3wUsvzMaOjWv6/bf2ugW/9PVNPtRnlTc+4kMkANStcNb6rezdw0cBAJlpqbotq6Wimm3Oy4fo7EJx6SGca2yG3SEyOcnVyb5pRz6Tb5qU5Hma/bW0WlnS4mUQnV0orzyKY6dqWezMaJfjBZLXNfhnXXf4UJ/dsHe3FKR/hAYH8SEXiXPjhLoj5RgdNhKAVHakr8jm1pKYjAY+pBgTHiZkpqcqn0/U1KmW9o+fNMG/+sbBh8j/iCEmo1C0axuMhsEApJLj2KnaPo98RYRJJQsAOERRtaR/eJ3gnox/s359GBF/GxZiFlIXzFM+l5QeUi3tu8mqer+/eF2De2QggG/5oOfsDpHVN17EiZpaLExKxJjwMOFsQxN7r+oo2jtvIzQ4CGtXZCg1YVuHje0vteCy9RpMRgNenDMbntR8Zxua2MmaM7hsvQZAeow//9y0HreVt5k0YSxiZ0YLZxua2P4yCxyiE6HBQcr58tupHTtVy05+WIf2TqlUiwgbhcmR4xAzY5ryfQBtDQ1I1+VETR3qG5s12y5MTnRZ11cJ8XHILyoBANQ3XtTU4p6ob2wGAIwOG4mX4uOwiFseaB6fKG/4+8nMce8bPqwhOBkE7SiUhmnwYNxaVOpyDi2tVrYqZxsuX5USDgAKd+Zif5kF5y5IF0xmMhpQW2VBSekh5YdQS0lOxPqVmS7HAKTjpK/IBmNSLx/Q9v5jZkzDaznZmhtoVU6u5hwKd+bivaqjOH5aW1+ajAaU7i3QTXL5+zHGkJIstZAlpYdwxXqdWxOoKivW7MNSUc227CzA6LCRyghIeeVRZeQjMy0Vy9NTXY4p2124j8nXqXRvgW4nk/fMtFgmj5Tw26j3ty4rQxlFAaRrmV9UjFnTp2LHxjWazml/8boFf/rRX6MvL1n1xZjwMKGtw8Y25+XjRM0ZAMDmvAJkpqWicGcuhpiMwr4DB9mWvD1wiE6MfW42Zk2fqlz8Y6dqWX5RMa5Yr6Ok1IK2DhvjW7aWVitLXpIBo8GAI++UaC6+paKarcrJ/TFpc5VthoWYhWOnahljTLkJ0ldkIzMtBQuTpHHmEzV1KCmVWnL1kJzM7hDZnKQUtHfeRm2VRdPixs1fyOQkz0xLQYjZ7JLcq3JyMWv6VOx9fbvwzt/kJd2jI/lFxbBUVLPEuXF+S6aIJ0dphvzc2Zyn/45Rh+3zn6SDCfhQgw8ZKHU+fPGLQSY+pBgWYhbk1g0AdmzMRuLcOEFOxEUL5guTJ4wFII3n7n19uyC3LLEzo4WiXduUbY/X1Cr/lm3OK4BDdCJlQaJLy5I4N05IiJda9OOn69DSalU6V7Ezo4UdG9co667NWobl6YuEKRPHC1MmjhfWr8wUZk2fCgCQh+PUyg9Xo73zNiZPGOtSTqi/7/L0RYI6Sds6bGzLTimB1mVlKuvJ1mVlIMQsjZDI6/W3tVnLUFtlQeneApTuLYB8DS9fvYaVG3KRtHhZnzupvvI6wac+/hQf6rPxQd2PM2/Ij2i91mVYiFmQh7lEbraupdXK5G3UvXy1lGSpRQZch7fUiam3fUJ8nPJvu0PU/Kj8uaj1NIR3vKZWmSHkbwxAGvWImTENAOAQnTjb0BSQZOppWDAibBSGhZiVmz1v0xqhqqxYMxKzu3BfQM7LHe8TfKjvCR43fBIfcsuTWpHn7sfgp6f1qEsDvu7vjfq46n6Eml69LZ+XfGOqXbkqrS8/tfTMmi4lOCDNSvqL/B2MhsG6fYqejAkP0zzx9J5qgeR1gj/z2G+EYYOG8mGte3yg2wMPPoAXn5BGC7xldJPAvZFHS3ojP/Ld3SjemDxBeuo4RCf2HTioac3kJ0VmWvfkiKy90wZA/2kVSC2tVqWDGTMjmlvqGf51gP7kdYIDQPKImXxIQ+jhYTQ2+Ak+1Gcmg5EPeURdVvR0weWJCfXIgK+mTByv1Pdb8vZg5YatbHdhMVu5YSs7froWr+Vk6w5Pqs+BL3v09FTu9IW6oyyfd1+p+zhyuaJ2tqGJyUOi/uZTgi8Ni4dp4CA+7JFNUSl8qEd6P2qHTWrV+kqdLO9VuX9kdr9E1P3oB7rHpwHPnwZqeZvWCK/lZMNoGIyzDc24fNWK8LCRqDtSDnejH6NVN2X54WrVkm5yiWM0DPaqpOO1tFqV91ZSkhO93qe6k65+CtgdIrNUVLMr1uto77Rp1vMXnxL80YcMwtJR8Xy4VyOGmjElKKJPF8tdLeuNISaj0oqeu9Cs2yGTp6UnTxjrUnfK5QLQc6fRHbtDZCc/rIPo7MKZ6nJh7+vbhUUL5isjRHoS58YJcslUUFSie8MrJY7q/Y+e8J1nNXkYFZBabndzCeonoLunYX6R9Nap0TBYU361d9oQGhyEEHOQR/0ib/iU4ACw+qmk3mtxFWGAgDdmSBeuN7196d6Wyxdcr0O3LitD6cylr8hGeWW1kjBnG5rYqpxcjA4bCfVwo0x9XL1zUMf0fvTf/zFFmRhKWryM7S4sZrsLi1l5ZTU7d6HZ7eN6XZZ03RyiE8lLMjQ35r4DB9m7h48iIX42Fi2Yr5uMdoeotMiA1OErr6zWHK+l1co27yhgc5JSwRhDZloK8jbpv+ba1mFj8kwlAHkijgHSsc5daGZJi5exEzVnEGIOQtnbezQjQCajVGLWNzYjNDgwSa574n2l98cPIwYOxWef33F5HzwuPAp/j1nd43H1ZgxNRgOiIsehaNc2QW95aHAQEuJnY3n6IsFSUc0K9hZrkis0OAgZS1I1JYDdIbKVG7Yqk0nyenaHiJgZ0ViX1f0agEw9GSMLDQ5C4c5cjAkPE9wtryrrnkySJ2x6EhU5TpnUUsfPNjSxlRtylZlLk9EAh+hEiDkIKQsS3Sb3klf+ytTfsych5iC89MJsJMTH6Q5J2n/8gwdPEnJ02EgkvKB/08nvqUc8OUp5KnpbBrnjt50duPkBe7lhj/I54uFhsNra8cPdH5TY40MeQ+uf9/d6TLtDZMdP17l0lByiE7EzowX5wuiNbkyZOF5o67AxdRkhCw02u/3B1CVQTxdZr5wBpLp+iMkoWCqqmbvzVsfkmVj1sF97523NHxtERY5D2dt7dM+lpdXKHKITDlF694Uvo3juzru+sRkhZrNyreXvwa2mwV8vmUN0ot1mUzrxnu5L+h5ir9/BG37d4dLz+cp/3/bcoDG48mUb/mW3AwAeefghnEt+A8ONj/v1mPej3YX72PHTdSjatc3lhmvrsLG0V1crZdXN5jM/++vlC59rcLW3JmUKSSNmAJBKlClDwgFQcqtlrd/K8otKkJmW6pLcgDRLKdf9ekNqpG/8muCAlORvTFyGiY+MRNIvpyJ2VCQ60ywCJbdE7uTxZYwebydWSDe/JzgALPj174Thxl8BAIqmvcIt/XmTW+X9Za5vGspKSg+5DKkR7wSsVT1/6WPmcHbh+SnPBuwY9yP1+9NRkeOQkjwPJqMBRsNgiM4u5BcVo63DhqJd0qgMtznpo4BdwCs3/snELicmPf3bgB3jfrXvwEGWX1iszJTK5OG5lOR5vY4+EEIIIYQQQgghhBBCCCGEEEIIIYQQQgghhBBCCCGEEEIIIYQQQgghhBBCCCGEEEIIIYQQQggh/7/+C9Z8o744I28/AAAAAElFTkSuQmCC;" vertex="1" parent="1">
          <mxGeometry x="36" y="400" width="184" height="93" as="geometry" />
        </mxCell>
        <mxCell id="tuaS-E-eyfMuEXAm_5eh-5" value="" style="shape=image;verticalLabelPosition=bottom;labelBackgroundColor=#ffffff;verticalAlign=top;aspect=fixed;imageAspect=0;image=data:image/png,iVBORw0KGgoAAAANSUhEUgAAAZEAAAEaCAYAAADQVmpMAAAABHNCSVQICAgIfAhkiAAAAAlwSFlzAAAOxAAADsQBlSsOGwAAIABJREFUeF7svXe0HNd54Pn77r1V1f0CEkGACQwixRwlkqIkShRFUZREyUqWRraO83jGO8G769kZe+Z4PMfjtcfjdZ7R2COttRor2VbOVKJIkQSDKDETBAkiEQBB5If3OlTd8O0ft/vhAQTAIDnQrN87dbpfV3XFe798b0NLS0tLS0tLS0tLS0tLS0tLS0tLS0tLS0tLS0tLS0tLS0tLS0tLS0tLS0tLS0tLS0tLS0tLS0tLS0tLS0tLS0tLS0tLS0tLS0tLS0tLS0tLS0tLS0tLS0tLS0tLS0tLS0tLS0tLS0tLS0tLS0tLS0tLS0tLS0tLS0tLS0tLS0tLS0tLS0tLS0tLS0tLS0tLS0tLS0tLy985TdOo914P/bylpaWl5cWNO/SDhcQYNYTA3NwcRVHgvdeiKOTQ7VpaWlpaXpwcVYk0TcPs7Cy7d++m0+mwePFiQgjqnGsVSUtLS0sL5tAPFmKMoSgKqqqiKAqcO6rOaWlpaWl5kXFUrVBVldR1rSkliqKg0+nQeiEtPwwhBBURrLVPa0etl9vS8sLjWXVY772KSKtAWn6kxBg1pQTA4dpXCEHH6w6ndFpaWv7+aTtmy98LMUYFDlIOIQRNKaGq41Bq2z5bWlpaWg7QNM1hS8XHSuVwjD2SlpaWf3gcNSfS0vKjxpgDtRzjcJYxBlVlOByqMYayLGW8XlURaR2SlpaWlhYO9jiaptHx/wu9De+9eu/n17W0tPzDpTXxWv5eCCGoqlIUhQyGte7ctZtdu/fQHwzw3rN40SKOP24ly5YuoSrb3AhAVM15pL8j10w1qsjBBQ3jcxjzbM7lcPtp+cfDCz6cpXqQBYsqVFVXfEwqRggJrMnaUhViTIgIlTOSvxPUGCElxYhBJL93RV7/TERVtSJyaOeCCOgCLX3w7owcvtJNU1RQxBy8PmpSKwefk2pQVAA9dPfPGjnCeTwbNIXRgZ+NwyCIsRKDVxmFtKJCk1Rv+OaNfPrzX2L7zr00IRFCYHpygtNWHce7f+wt8/c4LXjWR+JI9/VIHLzPA2+NHKy4xu1MD7pWmT/e+BwXrHzORFUNvsEYcNaSVGmaiKsqksIw5jZcR9XKPvOxUoqqSbHOSUyqISYwhpQS1giGRFLFWocPgUSidI4UagprINWkNNQQBeMKFKHvEzt3zfDUUzuYndnH9+9bqyedeALLlk1RmAPnpBoVEvmeelQbFclhyufK0/vWkZVXfk6CiBWNB74nh7lfuf0+nUP7XsvReUErkYMbKlhrUAQfk6rkNXUEo2Alj6wUKwhCbxhVUIw1pKSkqBgrIKCa21CKquYwjW8hCmSbOr8/sHH+JH8myEHCx5A0qgCHt9AUTV4RQUffVJQw/g7kT+eP+vx5vlZiVnYJVECexTlo/k5Kkfk7qhCTsvbxDXzzu6vpe4MpOzR1g5PEhk2buejC83nNla8ijo93VISkOQRmnuGa8nbj+7fw/BNgDrovh7azhSSNasSK8sMpEh+TxqRghHysRIwRWxQkIAgEk9twAnp1VEekqg4WzPlcDxA14n2TrRkREBAjqAhgEIEmKU2C0jkUwVoDGlBNCAXWOBLCtp2z/K+P/w03fPM79Ht9SIFFExOsPHY51159FTGp2pEiEbGi6kf3LbGwZwBoVBUrMn49aOWI8TMYP6GFG4WRYjGjNpHXHXieqlEXNpeFx8ltFw7bnuTAcQ9d1XJ4XtBKZCEpJWJMuKKi9gljDd+/50Huue9BZud67N8/y7DfpygcnapkqjvJhReex8tfdhFLFk1grMUWuZEFnxtoDPHggxwGt0BoBFVd+P9YoMHBHeDZNdADCeiFUuFAZ5LRMu4IZn7dePvx+8O9jnl25/J0xFhRjTp+PXT9oYjJx4lxJBg0qqqimmh8oG48iQqDAWOJMVI3TbaQVTEied1ReL7XcvBde/oxFiqTsUoHOciLW/jcnw9K9gqctYgqIQRQQ0zKo+s38YP71/D4hs0M+326hWHRZIfXXHHZobs5KjEq1gqzc57Vt93G2kceZjBsaEJievFiTjrhOM44/RQuu/h8YGT4qME6J15V779/Lf/9Ax8kYEAsVWHZuu0pfnDf/ezatZu3veOteFU1ZE9B5++l4eBWx7xncCQFAgfuuxORQ/sW5P51yF5Hy9Hbwrgtjjm0/R7tuy1P5x+JEhGMMYSYBZLYgr0zA377v/we997/ACFCtzvFcDjM3ooPDIY9jj1mGVdd+Wr+9I9/j3HYPUbVGAMAqs+sRBZyaCN/Jmv4yIzib0dBIVv0mrcVsRJ07EMd2EY50AnH68Y95vlazWPGne25dLrxuBBVBRE0ZQNAF2i3fFpCCIEQI1YEtyBU8reDcODO5HDIwrXw3K7zuVJaJz54TcHjrMU5g2LYvn0X//OD/y9//dkvMWgiE90JOoVhOLuPz77kFD7ysU/qT73/fUd8lrkaTlDN99liuO+++/lPv/l/s2/vLHO9IVhLZ6KLEHjlZS/jox/+cywOK5CSUg+ThgAPP7iG4bDBTU6jCP2hp7QF04sX8+DDa7jt9jt52/WvA8Cr6kLf7bAn9xywpHkP4enK48iMPZajsbCXH9qHW56Zp5tdLyAO7tRCDhMp1gjfuvFG7v7+D5idG6JSsHumRx0MQQtMOUF3ailzA8/9a9by2IbNRHI4ImlAJDdYe4TQaLai83K4zxd+9lwRY+U59Tg5cB/GSuPQZWG47dDPeZ4EVX0+S9SkAKo5yAcgYjDGApBGp2StwRiDQFaWfyvkNnNAxMmC5dmjo9j7+PX5Mg5+Zgyqwlyvz7Ynn6KoJplefAxqK4bR0EjJXJ3wh4nIjFFVDswIAM45FNi/fz8bNjxBHSzlxFLK7hK8Onbu6fPwI+tH+zSAQYwFFURh3brHWbJ4KcEHjAioklLEGou1lqnJSeBAACsvhkRWiIcy7ivP1GdyniPvTTWoHHSEI3Okdn+05YfpEy9W/hF4IgZIKIJ1BUYMs/0h3/jWdzCuYqIosEUHUzpiTAyGQ4YkOp0Sax27Z3rcdsf3OeXUVXTKnFi3AqoB84y5dR018PG/uVFrCorao7rqR2OsFMbhsIPzKfkTOLDdmKd304PF448SIXfhI+1Xyeez8MwFsGIkxqSqKQsoEoLkogYsqqCqiBisdYgc7qp+eMZeYr7Hh17Fof8fnef7nA9FJHvUWUhCiJGiKIhqmOvX2MrhY6J0FuM6DIMyDrAdDhHBWksI48ya4EP2+hYtXcYwOJyrGAyGRBJLl6/ElhWuABIkzcqnLMErLF68CN/UFM6gMVAVBkNibnaGbmFZND2JcPi7p2QjTUijc4GxUjjQjw7vATKvCoRnyr8t/P6Cb80fcfz+0NeF61qeG387PfTvmNxYhJiUkBLr1m9i3fqN+KRgLDNzfeYGQ3wCW3YwRZegBp+E2V7NHd/7AXODZtRpbA6NhfrwvWEhWeIdWOabrSKjpOGRrNOn2+h5WbjNWNCN0+sH0uyHD5VZEXmuy6H7eLZYETEknOSdOBFZ+H4cF1+47sDx8kvutEpMOR8gIqCgKqPnYFEVRsY0z2SxwsL76lW10Wf6jhEr+V6OK63ksPf2aGhMqjEdMUH8bJFRdeDYGI4p+ya2KCk6XVQsSRym6KK2wieLuPLgnSxgvJ98WxVjGLXTbHapMXiFZB0hKT4lZvu9+VZsnYimiKKkBG9849VYEzHJQxiifohRz2RlOfMlJ3PKqhOwjH2YvCz8X5n3Jxb85f/G/ebwz2t8Ww9sl18Ovt0LFQgw8n+y0lp4TgsXmX9/wGdqeW684DyROI53CAiJhJLfgUpuAretvpOndu1GbEntlbKcICLYokAQ6qZGIhS2wPsBax/bwMNrHuHKKy4mxICxeRR1Ss+QExFBkx7orAYEAzK2rFJO+IdajTXEmPeLQEwBBIwYfPQoQmELgqqmmENyqpFslUPd1DjnsKOwDzy9Gkg1KCqguXuK5HMRcTK/btxJdCRY7MGlrOP5q8qylBijLpzbavx/jEGNgaSBGBtlYe4oR6sOxOhTxPuhipBHpmOxRiSELCxSUmLI11mUBV4NzWBA2SkwxpISzNfSaMD7oWaP8+mCXjWoElFNGIGkiaNZriHGPKOwMeJzcl+NWPEhqALGWjQlxAjukPLqGBuNKVI4xziqrtooGJ5v2bQbFSmoGFTBOkfSnBAPIREkYUxBjALGoliSzj/RpzF+2sYYImAMFCYbSU3jCaZEJSDO4GxBVI/i0NxyiaHWlDxWCsRYLr30PP7lv/gF7rj9bnbs3InGwGS35CWnruIdb3sLK49ZjBWRFIMa6ySlqDEmxBiiJqzN1V8xjQwiASNC3QzplJ15VXEoqiNFqLnYxRiLsQcXNnjfaAhencvtOUavmhpyOXku2xexWGMlpJF2FsWZnGPR+ZJ8M94l4xkVxnO4tT/Kd3hecErkAGNLJneUhJBEmJ3rc98DD1M3Ae8VcQ6sQIw09QDrylEVTEHUhBrH9h27eOChR7ni8otxCEnBWUvTeFSDHioURHJnj0ERY7DOSkpRjckCNsWESKKua7rdLkkTMeXOlIWaoJItskgiCagmmpQwZMGaC0gMMfrc2K3DiCFpQsQQVdWHRG/g1RqhUznRmEZSQzggwxMavKYY0ZSt/azIBJD5jiKSZ9F1zkmMUUMIaq2V8Uhy55yMFYqIEEOTw30CkEghKKPQUwqqMUXQhKaIMYJIFhpjied9oKxKBEtVdRAMg/4AKStEhBSVEPI5AwzDUCMJY4REJCSv2c7N5+NjQ3/Yp6gKLAmvAYNgRtscDpGcvG9GY4VUYTCsNSbFOEMYKSGLwatqjIEUA2408MiODI3GNxQuC+cji/RniUL2SKx4VQVBjB1/hojBe4+zBjFZ2RwRyVknY6w0Makq2Y6QfO0iuf1piohJQKAoShAwKKoBYzULbw1MTlT8/M++n7dffy293hBBKY1haqLLySefgCUQ64GS4mgMhmIlC/GsSJQYszKBREwesRbrHLk/w8KEoMZxWa6h8bnYxbkCEaFpAvv27dPpyUXYwsg4pwbZEBpLhUF/jqKoKFxFXdf0ej0VwNocVvXBa0oByH1ARBkO+2qMmy8CWTg9T8vTecEpEQUQZSyPch/KSUhV5ZG1j7F23XpiMtQhMT3RpWlqJie6dDod5np9NAqFs/R7Dd2yoNcf8uDDa9m1ax8nrlyCjPwb544mgKyEELVuAoNBrYMm4lNSlRzfNwTKqiLEOOrsSoqBJFC4DkmEkCIoGNMhp5DBAKpCrz/EWaEqHUay5QbQ+EhMkaKscvLZ5gR1CEmjxiw0sIgxkmJUxSCHmcI/NF59DHS7XRnPUVXXtVprsdaK914hKw/IU5SMZ9hVVYx1iCghRlALCKT8DIyB3KkNihJjg5IwJs17Us4V8wKwLAtU86C3qjOJNQWxHtA0HjHZggaLiIJYlKwkFahrj/eebreirLowFoyjO5FfD481RnqDoZaFJSXD7Ox+liyZxsdIiAlxjhADUXLyWKzFGZvvAYIPQwpnKMsK1UDjG6py4tDD/MjI4czc5kX1aE7WMyPZ0DFkb15IIHkxgIiixKw0XQdn8/2enJ5g8fSpRB/xTWCyU2CNIBLRGDEuK43Q1AiGlMAWFTGBOqgDuJExAJaQRobPUTDWiE/Zmmh8xBrBFQVTzhF8wvts8EBWIEYMYhQwdDpdFCEqlFUFCn5UjZCyOsHZQpJGTRrwMVKWJcY4GQ6HGmNk7I0MBoNnONMXJy9o1Tp+ogojy164574H2LbtSYa1p+pOEJKgmjj5xBW8463XcfyKYxHyuIMYI2oMqOGhhx7l8Q0bUSAkEHJM/mgkY7BlieuUuLIgAk2CuaFn9979iFhCVDQJxla4YgKlZHbYUIeEqkU1h2y8wsDDzFyNtUJ3okNVVagq/UGfmCJ1U2PtyHIXQ1JoPPSHMXtbzqHWUidlZq7WuToRFGb7QXvDqHWI6lNSr6oUjqLTyconxrGnQYw5NGOMYW5uTiFbYqpKp9ORbrcr1jqJCh6hcF0RVyBWwCQwig+JgU85pm8EW3RwxQSFm5CUoKmTFqMZAUJI1HUABFWh3x9Q1w3WGqqyoiwcRkDV0KjQBKFfJ4ZNyuW/ztDtdsAYojr6PqI4QhIGwWdv4gjUjdeqLPK9TIklSxYxHAbqYYNzjqiKjJRWiJFBk9jfD9Q+0R82+Znajuzesw/FkZJhbq536GGeE2JytgoO7pwCoGNFohjNKtLoaN1zJisho3l/Y6UkqoCiI483ew2A5KMYhboBVxgmJ0tCTOyfnc3JedW8nYKIQ1xJOdEVMUKTBBWh07HzXpu1BdYUGJsVz5GupN+oJhGaCF4NanI72LOvR9VxYqwl5ggkzjkx1khKiYBhECP9JlAH6NeJOgBWGDZBB01k6JVBiBqSoBQY22HPvhm899rpdKTT6TD26rvd7uFP8EXOC84TQQ6EsA76GNi7dx8PrnmM2d4QY7tELCIWUE45+Tje++NvY9PGDWzatIkULWXpQIUQla3bnuTeBx7l5RedR+kEDAQfcYXlcJUj4zT4/rk+m7Y8yZ49e+n3hyw5Zhkrj5nmuOXLUFPgygIUZmbn2LFrD9+5eTXr16/nyR27mOv16E5McvLJp/GKV7yC8885meNXLCckJYZEYfPwOmFUvSS57DXEiI8JYx3Ggo+Bzdv38ORTM2zYsIGNGzeyZcsW9u7dm630iS7OOlauXMlZZ53FGS89gxOOX8myJYuYKgyozuc7ICuNGCOdTgeAcVhr7NYPa49Plrpp2LR9p975g0d58ME1PPboevbtm8E3nqIqWHXSCVxw4bmceeapHLt8Mf0QNJFDdP1enhJegBQjzjqiGnwIFGVJpzSEEKjrQN2AsYa52R67d+/jgQcf4/bVd7Jx4xNMdCdYsmSac887myuuuJxVq5bjpiaxtsBIQCSPYj9cDqUqCxnWQYtC6VRW5nqNdruO3iDw+IZtrNu8lYfXrOWxxx5j9849aFKmul2WLl3EGae/hAvOO5dNW57Uqell1B6s7TDd/dHEzDXmcRaQBb3RhJGEAEbzqH/RhZVOz568j1wnlYdwjv223NpUQVWwxoFGfEjUIeKqgs1bdjA7O8PWbbtxFhZPTbBi+SKWLVnCks4E/aahcAXJwObN27jtzgf0ptX3MbN/jqozyaLF06xYMc3KFUuoqpJh4+mUBYnsAR2OOkU2r3+KYb/Hrl17aeohi6anOHHlUnbu6SkK1mVJH31QMYaYIv2YcG6K2g/ZsXs3Gzc/yX33PMzateuY2TeDCnSqgmOWL+HkU07i3HPO5vTTTuSkFcsxxsz3iRCChnDkX+R8sfPCUyLzLOw8QlLlsXXrefTRx4hR6XYrenM1U6VhotPh/LNP5+yXruK8c8/gzru+T78OlK5ERIhAXTc8cP9D7Nn7Ok48bgUiIsN6Tt34UAuazrj+PMTETbfczu/+3u/z1I4dDOqGsuywaKrLb/zav+O973orc3MDNmx8gs994ct89vNfZGb/HGIcwyYg1mFMQdLv8enP3MAJxy3nX/zzn+bVr7qEFcuW0HhPVRgmul1CzIPQYgyoWqx17Nu/nzVr13PvA2v4xk2r2bxlG7t27kRHFqH3ft6zqKoKYwxNXTM5NcUrr7iCt1x3DddccQEnrDgGgLqutaoqUdX56diHw6F2Oh0ZrcdaS1GVPLxuHbd+736+/rVvsnbtemb394gRjHFY4/CxQaOnqCwnnXQcV77mlVx3zWu49IJzOWbRNGE0G0BZ2nyuISBFOQqT5Zi3c4pzuVLu4Qc38IUv38BnP/U5du+dYXpiMRiL956ycHz8k59h+TFLeOvb38Rb33odF118Lp3S5TTNEaRTTKp17UnJEJPq/pk51q9fx7e+fTOf/9q3eXzzk9Q+ZlGrBtWERebDi84K55x5Bv/kfe/mqtdezvLlx1L7pNWznHftmbAi8uiGrTpu69lTSECuIjJEcvXRc0cwmHGCBBDNeQujDiP5elNIiFhK58AIu2cG/Oq//w3uuvs+fPCUpSU0A6YnK9797nfwH//Dv6coOwRg+1O7+f0/+TO+eeNNNHUi+EjhKqyBCy84h3/zf/1rLrvsAkRyKFokhz4PvZaYVL/38Dp+5d/+Bo+uXUPhHFaUetCjW5X8yR/+AW94/esYT7kSYsSJZANLDfevXceN37mVG274FuvWbSLUWV05k0OVmgJKpCgNy5Yt5rhjl/Iz730nV1x6MaeddhoLlUdd189dY78IeMEpkWx5jVPquRMoUPvAmkceY/36jRRFSdN4CutohkNOXHUMr77ickoLL7voPL6yYimbNu8gpIgxo/h8bLj//gfZtm0HJ6xcQROiOpPyMQ5t2eRuHRP0+n02b9mKcSVFZxIfEvvnanbt2c+emT7fvvFmPv6JT3HPvffhXIUxXeoQsW4SMS5XH0Vl376aubkt/NZv/Q4/89Pv5T3vfjvHr1yBjjyvlJRExBgHYti0eQtf+NLX+PJXv8aGzU8S7BT7e4Mcvy1LRAApKbslYgyDfp+kEVd0melHvvGd1ay+/U7uvvZV/PIv/Rynv+RUxheqmuatsPFgNURwRclgOOSW21fzgQ9/nIce3ciuXXuxpqQqO1msqRBCQsVhC0eTAmvXPcGW7Tu5bfWd/Kt/+lO8+/o3MjXVldonBWFk+hJDJCVDTotGXKfDvpk+n/v81/nLj/8N6zY+waA3xJZTNFFIIWGkICRL2V3MwAuf/OsvcM+9D/Av/9UvcvVrr6AzNTFqK09HAVtYIjA7O+Sm797CR//yk9xz733UVDQUxGBy4lcMaCICQlbQYHnwkce57zd+m+vf/EZ+/uffz4XnnX3wQX5oRqGm3AoQcg5hHNY6lHHRx/j9oesBsqgWwIKavB9h9BxyhaOqQVRAQTGgkDSy+o7vgZuAomDgh0xOLGLv3D7ufeARxFmCQlIQV7Fz3yz75oYU1SQUJbWPkCL3P7iGRx/bwIUXnsNEVaAaEVmYUs+IFalT0q99/VbWrF2HSIGKJcSAKyqiJvbs3YexuX+EkBRNiEAdlM9//dv81ee+xF133k2KBsFRxwZjLSIOdRZrKpJGBn7Ilu172bl7D7/+n36TN19zFT/xkz/J5ZddyvTUpDTea9lWZh2WF5QSSXngBQZGORCIuVuxZ+8M99y/lkE/YV0X3wQKK6Cek49fzkXnnY0kuOiC81hxzDK2b9+HH+QEOsYSfGL79p08+NA6LjzvLKrCYsyzaTSCiCNGA2qJyVF1uuyYGfLJz93ARz/6CZ7YsgUVixhDfzAADM5YUgwodpSbiDSxYee+AX/16S8Sk+HnfuYnWbp4koSiUmBtrjfq9z033ryaj33iUzz51G5sOUFIiaKoyJMTK943CIo1StMMMVbolJP4lDBYoiozvYZPf/FbgOE3/uOvsWS6Q0hBSQEBQvCqGGqvGoBhTHzpm9/lA3/+Fzy66SmMm8BVi0ATPkbQgCSl06moa0+ISrebQ2m93oCNG7fx1Ru+wXWvfy3eR0UgJsUChRFc4Qh1oqwqnDXMDft85Zs30Z/bz5btTyFliemWaFR89IhYMAYVoe8jhRjKaoKHH93Ahz/yCRZPT3L1a14xSqBCSl5VIwhEDFGUQcqi+YMf+xSf+NgneeqppyjtBI2HZArE5FHf4oSYPNYKFCVF2WH/7BxT01OEWPKZr93CtpmG/+OXfpomqKbYYIxSuJxvyZU9B5f/RlUFJc8UmAskxjM1HzTmxEiu3IaR4SP4mLIPYrLQX8hC5RFjUiRXHIYIYkHEESKoJVcGQlYisuB/IxjjEM1nlxScdYhxBISkQlRLSAYxFb1eHyNgFBBl2aIJVp20ksnpSQZeaLynwNLtTjDwA+68+15ef82rmTj+GIwaDJFczZfQGFSsk9qrBk1866ZbUFNSlgX1YEAhgsWAJF569umUlUNVUQUxlibCRz7+Gf74Q59gz/455uaUTpX7W1VZxCgx9Gkaz+TkJESlcCU+5DyQFo4bvnMHO2dqfmHoaZJqbBpijGrMwrt9cIj7xcoRHP1/mBxIACZiDKAKCAHYumM3d939ADGVpGSxKhQo04Vw1RWXsWhiAoOycvkSLrrgfIyAdTm/0ISAWMugbvjuLavp9eew1hCOMFAQcp8rrJBGIRzUIVSoFtRe+PqNt/I//uJjbN6+E3UFRbfLzNwsPjV0JkuCNoiFqJ5mNLDRFnmcxJM79vLVr9/I/Q+uQYFhE4lqGAwDihBSYsvWp9i5Z4aiM0njEyYmxHtSPcQlz2Rp6FjF92YoxKN+QN2fRRtPiinnLcouaib46rdu4xvfuZUkWViN4iaIGIZDjwr4BLd//yH+4uOf4dHN20mmQ+0hqlB1u4hRrE04F/F+Pyn16ZYCGkjB0ym7aISNGzch1oyElEBSrIAVRUOgKkpSUnq9PgFh/ZYn2bZrD94IdQrMDufARTABH/v4VDOMDa47QTSOqJakhrVrH2f16rvZvWeGpBBTVE0htxaJQKJJEbXCZ77yDT7+mS+wcfse1E0yiBZjS6wBYxJlZZicKjjhxGOoOjAzu4tePYvtWvopMBcS2p3i9nse5iOf/CwbNm/FWkvWBwkkAHG0HEAhGwgjRaIomuIo23Zgm/F2GENCEevA5DEXTYgkxjk6HY9vVYCQVMfKIwKYbHiFYLBlRTKQJJEkEQWS0XnPN78qKmCtEWuF2ieQsVIRrCsZNgkxjsIWiEIBlMBEYXj5JRdSVQViDUEVMYahbwgIDz6ylr2z+wkjRzd7QWmU2M/nHgUe27CLDZu2wGh8jJEC50piTJz+ktO46PyzUU0EzZWPUeCGb9/Kn33wo+zcOYuRSazpYsUy0bFY8UQ/w9JpxwkrpnEm0JvbBzHSKSpCgH5jCGaK7937CJ/+4g2seexxjCtAhPHTGC8HZgR+8fKSQho3AAAgAElEQVSC8kQA0Ny4QwiYwqIiDJvAgw+u44kntiBSZOEkYIzSrQrecM1VkEblr8Zw3RvfwCc/9UWsKI1GUCiKkhAbvnf33TzxxC5WHLOUZ/3T3qPYch4Xm0gJNm7YRFIPGqmHfaYmOxy74hi89+zfN8P04iU0TcCKIYYGHxs6nQ4aQZ1l7WOP852bb+VlF51DWRRMdApKW5BSot/rE70neU8KymQ1Qa8/y7JFiznxxOM5++yXcu65Z7N8+TGEGFm/eSMPPrSGe+9bw45d+7ACEiOF7WLFsXffXr785a9x/XVXs6hr8rWoYq2VYR3VWNjx5C7++m8+yz333I+UJTElmsYzPdXFxEB/Zi+Ll0xz/MrlnHzyiagqjzy8lh07dzE5tQhEMcbS788RQkSMoCl3SVA0aRZmKeGKAi+CEUs97DHRydOfJEmUFAx6+6lcyfTUFEktvTpRVQX9YZ51AGPp9QfcdvsdvPENV3Lsyy8ihIjRhCtyxV2uyBI2bd3On/35h9iwaTOF7SCmAPEM+rMsXjTBtddewzvf9WOceuoKQoT9MzPcfsddfOZzX+CJbU/RH/YwpkOKA2JUbrvtVm6+9DxO/CdvY2qikvEAxGx2HGyz5YkxF1oq43f5Narquo1bUU2o5rabt87TmdRNw333r+ETn/oqOcyliOTvfvSvv6Cf/PSXMZKNIxWLK0uiCg899CiJXHCS2+1zJ6uasYeU278AaK6aM0XBK1/xChZNT7N/sDdvL5CSIkbY/MQWHn/8SU4/5RQ6lcl9SATMKHCXwBj4yle/wXBYgxhSyrMcx9ggwPVveQvdTocmNBSuREV4+OHH+Z8f/DDbntxOlA5+di+VE2LTp+MsV776cn7yJ97LSSccz/RkxZ59s6y+436+/OUb+P4999PpTjE717Bo0XL27d3FzbfezoXnn8spq05iqluRn2HiwLNqeUEpEREnyTeqGqnKiiijePZcn29++9sUhQMsEClKoWl6nPbSMzn1tFNwbhSWAC668FxOXXUiD6xZTzUa3BaipzsxwVxvjpu+exuXXHQG49K+54MxYFKeoG75siVMT0/wnne/i3e98+0cv3Ixd//gMf70Ax/grrvuwRUlnUWTzOyboSw75DEVBbevvoO1b7qaSy+5CCMw6A+ZmOwyNVEyOVHSqWyeynsY+Ln3v48fe+ubuPwVFyJA4xOqQlEYxMDGLbv46099jg9/5OMMm0Q5UTDozVCNBm/t2LmTTZs2c86Zq8hiVpmdndVOZWX/IOkP7nmU22+/g063Qx0V0Ui3Y+nP7YPgue7N1/LzP/NTvPKyczGuQBIUNnLbnQ/x+7//h3z/B/eSYuCEY0+kaWqciMSkai3ElIgp4irHzP79rFi8CmcN9WAWAXpzc7jKMDk1yW//zm9x2qqTkJj42te+yV9+4lNo9OQxMxBjDneGmFj/+AaeeGIHl10CaA575faRcsxfLB//+F+xYcNmrCnQpAyHQzpFwTFLp/jFX3g/v/iL76coukx28o9EhXQiF19wFiuPXcqf/Lf/wYYnnmSiWzFX9yhcRVMHbrnlVl531avwSVVJxOiJRIrDjDsaiyTIauZwZAUijCvzUoxEIvuHc3z9WzfxhS/fAECut8oifYx1Lo8tUkHFElXodLrMDRuqqlqw5Y8GVWVcOn/S8cu54Nyz2bjtFiY6HTREnMvFDv1Bn9V33Mk1V70MpZMViGYlmxRUFET4+te/wWicBkkD1liaJrB0epq3vOV6hk3AOYOI4CN8/ktf5aE1jzA5Ocm+/QO6nS5VAZoM73nnj/FL/+xnWXXiCqzJ2686Cc4962xOPuF4/uv/84dsf2o3ixYtYm7Q0JmYZN/+GW6+5TaufcNrOOfMM3Ay/p0UyYqv5YUVzgIQKyQZNbQcSWXXzt187667ACUET0oRJdE0A95y/RuZ6AKqmFElyGQlvOGaq0hhiCESYyR4T9M0GGP5xre+zVw/Ytw4bv3cEI00wx5CRNXzqisu5dOf+BD/7n//BU4/ZTmFLbjy8nP5o9/7XX7iPe9CYwMxYIzJseYIxhZs2LiFR9asJzQRUZiempBhv8+S6UmuevVlvPLSi/nxd76V7915C7/zn3+V11xxMeIVfGSqNCyecFJZxahyxsnH8p53Xsfll12IaIOkhtIZrDGghhgCW7ZuRSVblNY4pqenpV8n3bFzH6tX387OXTuIKQ8U0+RxJLqF4erXvYpf+eX/jddeeQlVVTFRGqa6hpgMr7vyYj7yoT/m13/t33DJhWdz9dWvYXKqO3+vVJUUI8bmKT4mpqcYDAbs3bsXawyTEx2mJjq87U1v5KZvfJ63Xfd6LrvoTC675Gz+w6/+a/7gv/5nTll1As2wh0VGISjBWMug8WzZupXhcIhzlvEEjzEBYnhs3Xpuuvk2iqJLWXYZJ5pjjLzuta/ive+8nmVTk/jeXkIzwGjA4pkoLNe/+Q28+U3XUNhE8D0WTRSkMKBuhtz74Bq2bt9FEyFhEONwtpgXkgsRIJfYHq2ZZasfAMleYn6F/b0hngpPRaAz/95T0Kil1yjJVLjOJFJ2GCRlmGByydJD1M2z52hjU4wxlGVBVTix1nDdm66ltIacuQRrc47IOcftd9zBoD8khmwg5svM7VEQ1m/cyeMb14MoSiSlSIoeSZGzXnoGp5+6komqyMo1BTZu3Mi999xLStDr9Vk01UXSgLo/w6WXXMDPvP/dnHrSCvq9OXLoLBCbhk4hvPmNr+XH3/FWNHqwjrnhEDUO6zo8tHYdj2/YytCn0Sy/BjBZ8cEoBPniDWs9vVX/A0dMIZCFbY7NKqtvv5P9s3OEmECyF9D4IcuPXcqrr3wFqJJGORQr+aKvveZqli6ZJvoGS6IqHY1vCElZv/EJHlqzcd5CfD4YlOnJDu97z7v4t7/yy5x0/PF4r5iUqEzCWWXV8dO88+1v4rxzz6IZ9rEmx5pVHMNhwDeRTZueoD/oowp5ahUl+IYrLr+Mv/zIh/iTP/odjl02RTMcYqxIWQiFy9OSNE1fg2+oh31UlWOXH8sF558HRokx5LyQtfgY2LV7N7OzsxixhJjn/AIYDGrqZpZbb7uNmCClhKZIp3RYPEsWTfBj11/HBee+hI5TOk6RFEghMllaLMrKFcv4pz//Pn73v/wmP/3+n2TJ9DSQQxYpKRiDcwUxBLqdLr3ZWarSISlgSLznXW/n13/t/+T4ZUvpWkZjGhWr8MbXX8VVV16BaEBI5GlocjVVisq2bdvp9YfZcByFHdGcaL7tttuZne0xHHoGtUeso6i6dDtdrnz1K1m54hg0JY5ZtgwrQkwBTYk6NExPTnD1665m8aLFhJjwPjAeNLf9qZ1sf2onIebCDTHZQx6bIwdFsMgC+UhCGQDNyjbGiDF5rJA1Joc/kxCiEKLFR0OIBh8hJiHhSFj6dUNvWNPEhHMldePp9QeHHuWHQMhFx1lB29EsBynBFZdfyonHr2DQn0Mke50h5PE7Gzds5JFHN2FH8ZCUyIrW5BHmN978XQZ1gxhovEdTIgRPp1Pymte8OhtdMSfjQbjn3vvZ+uRTDOsAIiQdbd+teOUrX8Epp5xG4yOT3S7D4ZDCWrqdkhgjIpHLLr2YE048jkFdU3UmaaISyNPxb3piGyGEfLVyYEBoywtQiaSYtCgqCSFBUnxUPvXpz9LpdDHWgggxRcTCpZe9jJNOOg4QjAgpRtCc3DzrzNM4+ZRVuMKAQNIci1cx9AY1n/3iV0bezvOjKh0XnHcOP/Ged/LS007ACHRLQWMixUQanf8F557NWaefgjNKVebp6WNUiqJExLB27VoG/TlyojtPEVI4g7OCMYCCtcL09ISEkPLvaEuebNJah3WO7uQUvdpTdjssOWYpPibEOpqQ6A2GdLtdGh+Y6/dAc0J9NN+XVlXJpk1PsvmJLXleJTXEmGgGPUieVcev4Lo3vJaJKv8iHykRfY0zCSMB0YQVmJ6ouPTi8zn7rDMQOdDsFKEoyiwMgBjyQLqJbhdUufJVl/MLP/sTnLTyWJwqXStSEHBECqN0CrjgvJeydPEiVCPeN4wVhWKYnevRNB6ApDC2IodDz7rHNrB/fw/rClICHQnrk085lVUnn5x/qMnmstXaR5ztYExFYUtChLPPPZeyM4V1EzQBkAIxJYjlkTWPMaybec9HEYw98Lvf4wz46DbkhnaExiYiiOQZFiAr8hDzVCxGhMKYXN1mDG70ao3grFBYoXQWZy0peKoyC043yhs+dxRYMDbl0JCOZGPH+0ZFlZXLF/OySy6kdLmxhhhxRYkiNI3n5ptvwQeIMWqIOgrI5RLdb3/nJhBDnkkhYK3BGliyeBGvvfIKRPKAVCMG7wPrN27iqR07SRhs0SGimMJy4smrOPX0l2ALgysddQhUnS5RlQiIs2AtLz37DMSZnJ4xkmWJKmIKHl+/kcGgn9voKDohYseJoNHy4uQFp0TGiMlBgLWPrGPDhk2j30k4MGgJgWuuvYaJTp5QDjELErlZ8L75TW8CEikGVHPi1xiHD8q3v3Mze2ZqRsbHPE3wGkdW+hERpSwcp5+2ipddfC5VYSmNYFTpFobJqpDS5o6/aMrxsosvYNGiSQb9PpCFmYgQUx5JP9cfwkjA+aYBcnEB5AGAoPik2iQhSp76xCsMo+BV8nTfRsAI4irUlkSxqHUEzeNkxOaOqOjIojb5PEziB/fcj2pWLlETxpo8HQlw5plnsGzJNChZmFmY7FYIAUOksEoeEKeI5osbh27EjDorQp5lNVuWzhUE39CtSi572UWcdcbJOIHKGlH1KppAE9bkAX8vOe0UOp0STblEM4QIYkiaB5HGkYIyJidnY4Jdu/ewY9de5noDqqqLcwWQ1x+z/Fgmp5cxqKE/hNobxE4yqIVBY/BqmB0kqmqSolqEmC62mCSqoz/0YAw7du6kbiL5kkc/d3s4FsieI8l0kZwPUQDVUVsVBsMBRkCSR1KDiTUSR+9DA2GIjQ2OgE0NTj2+P4fF5xDqwoM/Fw46UUElJ9hzPxtfa37OVuDtb7sea0bVeCiIIFhcUfHt79xMfxBzGNXkvJMKbHpiK+s3bUZMFlFGhBzWUs4//1xOOOE4DEJRWNDEnt172Lp1G7VPJLGEBCqOfh3oTi1m8TErmR0qdYRkSwY+4VWYGwb6PjJXR8rJRVSTU0h2KAHFmlzAsGfPXgaD/AyfdtfmFcmLkxdUYh1AVQhBVQ00wGc+8zl8E0ELGAmJlODkk07ksssvJ5LtJsVi3HiMbxZgr3/96/lvf/ZBQmxwLs/aWziHGMvWbTu46677ecs1l5FLfRURofE1YvIo9yOTO3pVlZjs6GAkYUZeUP6tCyVqNmROO+1UyrLAlZY8ZXaeHt4J9AcDGh/BCCkqYnIyvSw7hJTDN0qes2vYRDZtfoKNGx9ndnY/M7Oz7NixA4yj3zSIqVjz2EZ8zOXEUWMOI8VEigYRQPL+rM1jASCxdetWxFhilsSIZMEmGjn/3HMwAs5ATuzmu+3s2D6JZKVhsNagmqffBub7XUwJjAHNcX4RgZQoi/wTraJQGpH8Y18JRvcUFCMwPTUJ5DyYcyXR50S7quB9YPy7HGXhRhNLCvv27WNm/36sc4SUqGvPRKeLMcKaRx7hD/7ovzM1UYyOcwAlW6e9Qc2xK49n2+ad1GIpOiXOCZ3Jgkprdu/aRWjyeBtjssUc/GHK/RYcQA/+dx7VXBQCNt8bsuInBc4586WcevLJ+R6rzt9/SKP74UiquarLOPqDhj3793HPvfejmucFey4IIIwNAQEUVPJCPldVxVqbVwGXXXIxJx6/km3b92CtG3kPgrMFGzdsZs0jj/LKS89BJBeBJIE77/oee/fty97C/PPMNWWXXfpyFi+aGp1LPvTcXI89e/ZhbEEMgikK+r6mnJzm8U1b+NMPfJCJTkFVGrwfEkOeDsj7iCsKmiayaPFS1q/fhKoimkezV4XDpFwSPzZGFt6xhYM7X6y84JSIEbIwA/bu7fG1r32Dxic6E12GdQIMxhS87JKXs/LYpQx9xFhDCpGqcNSN5okDS1hx3DLOv+B8vnf3D1ARfIhgLIUrGQ6HfPFLX+H6ay8jT0eeD1oUBYo5UN/+LBh3PBh9SQURKEye7nv58mVUZZ6CRZMiRtCoGGeZ7fWIaWTFiqFuAp3uBComKygRbr3jB3zzxtU8tn4DW57YTK83x7Du44PHOotiGNaeJBalwJUdjC1JGiEkkJHFPFoYvSaFlJTde3ZjTPYWIHt0gsEYxwnHn4AdCXXVLJIEyG7HeF8joaO5Ex46l9XCYyswr4w0YTQXTmfGXzmw5Vg5GZNDPvNbigFjyVU++VxCVEVzXmFurs9wMCSlRGo8Vacippy83f7Uk+zZs4PCCoIsuJQsPjGGuvZ0J6coulNoUnwT86/+SSBR0xvsp1NlyznGBlcYjAhi8o+VjQcTzgughZd2CGMlIpIHrI49m2OXLuHaN1zJT73vHYiO29n4chUd3SLjhIQSNHu3N960mnVr1zI7Hmz7XBjte36ZvzmS/xXJ3oNmBZ8Upiccb7jmaj704Y/RnVyCxkBUpTAOX0e+/NUbuPzlZxNiorSWYaPc9f17swduHcRsaDiBY1cs57xzXsrUREXwnqIQrLEMhkN6/QGKQUwe2S62IKHsnZnjjru+j46KSZwTQshzfM31enSqLsO6wVhHWU3QLS11U5NCYFh7uoVl3+5dCH7+MS0k3+bDrXlx8IJTIuPOF1T1zjvvYu++/XQ6kzRNxNoOhSvwfsi2J3fy//2vT1MP9zHZKREvWLFgHUPvScZiXYcQchyWlKdsN8bx/7P35vGWHNd93/dUVXffe98+K4DBADPYBvtGgAABilpIIFpMyZRMmhRFxpZkx7Li2ImTT2LR+jhOosj+2LL9sRbbsSJHskTZkizZ2iiJOylzAYmFIAkMse/LYLa33Xu7u6pO/jh933vzZgCSFi1xiPubue+9u3VXV1edX51TZ3FFoC+Ou+6+j0cff5bLDu4jJUUEgvMSVTV4aF9ZHTkFk+yo9rBJpjlpBGZmZ1FVmqZBg+We0pRxooxGI1RNyA/HLb3+DG2ylfVzR47zsz/3L/nUZ+7lsSefo24jkCmLLio3JXKOiHjKqse4aYgpIqFgvF5TFpMU9A5TQ0xcm1gwoaCqnDi+YiYLVQRBc6ZNLaAszi+itkjGjMmycYRTsPGSTbkNyKlPT33LyGfjJcHOsfHEfjlndnNxoGQ0m7lEXJe2fUIiGgnOQYa19SHDoTkciFhk/cnjxym8sLRjgWY0omkbpPOo2mimmkAGx/FjRyl7fdqU6c306VcDKmkos2N+dkDwjhRbyiBsDUA/JRqdzVHxchCxuBAz19rD8pjNs3fPTs7duxNP18buQM5LV4bYvp+BJkEoYGlulhPHjxL6S1vO8tVjcqe3KCLWPgQ0I07RlAnBcecdb+SX3vvrxNQCdg1ZIUXlP//xJ0nxf7S9D4Wnnn2ex558ArzDFwVFFVg7eYIgjquvvIKDB/dhJRACqqbtjcY166Nx10ceFYd3BWvrJy2XVumoih71aI1hbKiqAnKy+6nK7NwcJ06cZDga40Ng0OsxMztDPRqR6jGFNxXplBvXwYkVttr++qsFZx2JxKiqYhtvv/O7v0dV9lkZmjnGSyAmR86Oz372Xj533114Z4FJTgva1upwNDkybixVvIkqSFkpKtMGmjrS7w9YWVnmwx/+MBdf8A6sKqEn5qQxmcnplaByJsGgQN4QhuK8NFlVtavpIJA1IdLFMoi5qiIQFXqDipSVJOae+hP/4J/xkY/+Z5qshGqO/swMOUXaeohIJnjPxKUy1i0aM2VRUZSlZSrGk9o40Y9OQ9daFEU7glARsoCnM3+d4rYqGBHpqa+LdEJGrGTF1pk4kULbYNqIsJVERLxYhHAndsXuXaeSbX65g+3BbF6dEYYJ1JgzbU6UlcUbLa+cQEn0qj6rJ0+SYk2/X+GIgNj92jgQFEVg0BvQpkS/hHF9ghBKVtaWme8Frjh0MQ4og8ORUc2YanAqrI/tyKdfQQex/YQczbsvhEDdjmiaBlHbdwhb1LBJ3Doomk1ITgozqkK/XzHT71NvnOBPAoeZErvbqHYdk70uyRmH46rLL+KySy/h8w88jA8lznvaGCF4XjjyEp+5+/Pc8tpriBE+/4Uv8NLR4zQx4SXjXEMoAqXzXHP1Vezdcw5kCMFJTrXa+OwcVkRQF0Ad9XCVHfOzkDJryycpBz3mBzPUtSOnSMo1c4M+9bghac3CzAx4oR6OkFQzWqvJbUu/LLj5NTewY3EWOLWvAZJmtWXdqxNnHYkIdrueffYFvvjFB6mblraF/swidQ2pjfT6fWLTWqbRfo9xPcY720getRnEMZhdYH24DiIEb6k2RBwpKm3bEkJCNfO5++5n/Be/j5mZHt45STlrzunLk8gZnm+MvJxBvL0usLyygiKUZcUwJiy/k6KqzC3MEUJhgl5hfdSytj7kF37p1/jPn7qbwfwOyqisDse07RDvlH6vx47FOZYW5+lXVSdfhaKqOPLiMQ5/6RGq/gwuFFho3nY4QOy/CHPz8+SccRK6vSCxPF0oJ5aXQSbX1wkqkU7zss+iAhu7ldt7Zis6AupgYki3WsYQ50WzFcwC+/T2CayAqoKaSUc73cHume0jVb2SXq9Hzpk6jlGBmdkBdT3m3HP3cMG+3XhnWQ5ExXJCKR0xKSllijKAg6oqOXbyOP1+n9negIsOHOAt3/1mFuZn8JJp2prgPc6dXg/dSPqVodlcrnO2uiaVL7CiXkpWM3W1qemoWLFKfdZ/WR1ZBel0zpSF8bjGdRrZVwsjd+z+2gk33jnlT1th4GyYMzOoeP3rX8+DDz++8Z4CwRW0MfP+D3yQW2+9Bk2Jw4cf4uTKCm1KEDKj9RGLc3Ocu2MHl162n34/4L1IjlHF2XGKwvoEdSAOzcpcr6JZX2fH4iLXXXEzRYB2PCSllh1LC5xcXqbX6xFTpG7M9Ou8x6HE1CIKC3PzXHDePr79zm9jbmbmDASir2oCgbOQRBQlK3ziE59keWWVNmaq3sBspkVJzg2qudvY8503kwPxhKIgNQ2ZhPeeGCMzs5aWXDG7a1alKEssS2vioYcf4YsPPMDNN91Iylm9c9KkfOqoERMEmyJSsFWybeIrmBztvqXZTEpRs7YZjhw5zqhuyXTmIjIikHNifm6OUBRktQV3KDx//IlP8Tu/94fgK46vDBEcMzMz5Niwd89Obr3lBr759tdy+eWXMz83YHFxkZQSmjO/8R9+m5/8h/8UFSU2DeIKwNq6eVF2NSIgIiwtLRqJFJ4sFh2sGbJmnn/uBXK26+sWu6CmsUz+BsGLlzSpdbsNkxcnZieYiCTdfHMrxMjA2izYNLZ/RomKklFNqGQmk3yzvLAw0+9RFgHNkSJUaFKKIjBca7jo4ov4+3/3b3LVoQP2PbX2bPwGUrb7kbLinBLVSCp1e/9eEpDIanXYRey+boWVFNj6mmlWp0gprAucOApvNdWdE7yz+yBdg0xr2/y98T11dj8QigIS1mYjFvvk9vPB1te23wDZ9pKRfKcTotBpqpC2BJFWZcnrbn0N7/13v86obmnbSPABFMZtyz33fYGVtcjxkyf40kOPMxqNKQsj3cJ7NCcuuugAV1x+OTkrKWa1rHl2/6uqoqo6klZFSaCJdrzOoUuu58ff8z9x9ZUXU/iukUlRzKQWbAqAvWzjHhDF7qXDzHIbA3wTdtXW869WnFUkElPWVjPDccun7r6HtXEDvgDvGI1XCb7ABSvBGuOI4BLERFkWxBTJKJ6I5Egcr1BKS+UimlucOrw4GrWUI4gjRsfTL5zkns8/xHU33EDlBc1J27bGldWWySqosPEAq9XQjBsc5mbaCyZEvBdwZt+OWUkIDz3yGOM6MRonfNlDFbwLiCZ27VyiKgsm29DD9TU+e/f9rA1HqOtTDRaIbYPkltInfugvvY23fPed7N21CApO1CaVlKjC7EywVS0OH0pQUE14LGOrIIhmkITDBNWOHYs4EWICpEBzYlyvMyjgSw8fttW+YnsSyWzhKEieLHat8V6c5JxUxEtOWRVApNvLAPtpE9J8jNzGd09HRyBMJrzFjaQc8V5RjdYAdGM/ImbFO4tzGfRnmO33qbwD72nHo+56A+M60tYRnzJOwDmHA7zbXIXmlNRIVgGl54ygnAPxDquH0mWXBZxMdi02IdjYmVwzCJb4ULoVro0nj+C71UhG0La1axIjzs3jbfai/SH2oLs/dkLTyrNpFEbH9i1nZ+z60453ihaodN/oFhhk0IiXjO/2JuyH69YO3ZcFnAgHz9/LoYsPcM99n8fhKVxJGyMpB55+4QSff/BJ1ofLPPr4c8TW0ev3GQ2HzPYqShEuu/gA+87dixNQEnhQzPOsPxgwOzdLzg3OWRyKeKEa9BnWQ1bXV3EenEBbtwQnlIWQM5B00/ymCs53SxS7H6RMW7f43umaZNelr2qcVSQiTlB1HH70MR586FFqW/4RY0tvEMhpTL/0nLN3kTguGZQlkpSYM66oALGBTwIyiAnNjOfosZOsrdf0ez3qJlKUA9ZGmePrLZ978HGOnVjnvF1z5NjYijsnwIOopWEREFFyN3EEz8MPPcEXvvAIl196AMRR14mqtEJU42j+7EdPrnDX3fezujZidm7JomTbseVZisrFBw8wNzuzQSKj9XWeePJxsiptyhRlgZKoxyscungf3/Ndd7BnxxySE6V3pG5jfVzXEErqJpvKHnqMxg2FD0hWnAioiQiyGhEAhXdcfNGFWFZjQXNACMwtFIxXX+Le++7j+RdeYv++3bRtxouZV7yzOA1xDs3CeJTUe1hfH5FT1raJiLcyqZMYiMlkNDHmyDizcU9ez1ERYRItPCkOJgioEnBK6xsAACAASURBVBzk2OJ9MIEuABkz5EBWxeMAZdfO3ezdtYtUj6n6BcSIpkTwJc8+e4QXnn+BcPVB0EwhXlKKWtdjNU8wOwYitijoju+BpEZtIQREPN4VsjZc17K0KPOt8CJigWubhGhi0TDRURxANNNa8AWpjbgAiOljghmruiGyBYJ464U2GWdnNRKxewxG1d2YVSOSjVZOGgLGB51WCc4uH8VrwhznLTWPsUtH7n5yCMUj7Nm5g9tuvpEHP/8F2qTkGElR8VXJyfXERz5xL4NBxQsvreKkIteZoJBHNefsP4ebr7uKXulxLuMkk3JrJkIRlhYXOeecvaCJslTWRmMQIabISyeP8/SzT4NcD0BRKKINaOfwoIB6ENvnGzdj1Ae894ha8GtZOWIzQnNSmbios/UevnpxVpGILcaEz95zH08/+zxCIKlghUQVSNxx55t49/e/lfleReHMlt1GhS75nQ3vzXuegeWVMb/1H3+b3/jN36apx8QklFWfst+nbUc8cPhhHnn8CfYsXY1X8EVgYtHanPz2DBRVK5bzhQcO8/O/8Cv8d3/l3Ry65AIrziNCFsF5pYnwyU/fz6OPP2UbveOxaSk5k2PEa+bQocuYm51Fs0UoN23L8okTtmGujrbuarJXMywt7WDHzkWcM8GjCE0bLd4ieNbGltpj3LQ4LSjK0sxUG+3fFEOCyYOclWuvOYR3Quk845gQcQyHI1JWnjtylN/7gw/xzne8hflBgYgnRQihkBiTrqyMKHsV68Oa3/qt/8j66gn+yg//IINBz9oXE20bN0+90QQBzD35TDM06Wb52MmX7Kdu+ctiRSbw3saA946du+bZu3cng37F+midxcV5Ti6fYDC7xPFjx/nMZ+/jlusuZ++eHayPG1VxuFB0o0xQhdiaWTR4GwNNE0ETVWXm0IlsqUqrKrmlezfgOxt7UovKOe1aT/mObCzuzQl68/qMQoRN6jkVWw+z+bdgBDaZP46JN9rLQQHz1LNndtbNdm39nB1/MkOE+bkBV1xxGTt2LPLiS8dJqe20fmE4GvORj32ShcUF1sc1WS0+ZLZfkUbrnH/uuVx3zdV4BzlFvAfFEncqjvn5Oc49Zw+LC3McWx7iO3do7wuOHz/Jpz5zL2/81jdwzs4FxqOauUEPEUUVsiYmltaUwRcF6ozYYwYvUIZAFgEBVdOmJ9c6uYevVpxVJKLA8uqQhx95iqa1G65qwmG8PmJhoeK1N9/ATddfTSFCUyd6weMcE63+NChm5nj66Sd5/wc+wpGjJ5mZXWA4HOGKgCtKnnnueb7wxYe4+bqrKMqSbllmE2rb8QQQgaWdO1kfrvC77/tD+r2Kv/GjP8j+fXuoG1gdDpmbG/DQI0/x737tP/DII4/iij5t2yDiqUpPbsecs3c3Bw5ciPMe70yHyt18D86Z2t1mrKBVoknCiZMjztk9YDSOkJV+r0KdIBJ46pkn+IM/+gBF1WPURCofOLPQmXSWCYHdu3Zw2SUHOfzQs3gsrYzzntmZXQzHQ37rt3+f62+4jptvuJy6SQTvqbNqyjCYH/Dwo0/ysz/7C3zwgx+g8Jm3ve0vMDc3I0lVU8rEtkVEEN1KyBOBteWFbTil79WBOszAY+YUUcV5G+JZzaylansCZXBcc/WVLC3MM25O0K8KTgLeKXXb8vvv+0Nuv/la3vhtt1Mn8Ahrw5bYNiwtzYLYYiImGI4y3lmqm9GwQbWmV/U2ulFR6qbmTLrCK2EyvrJM/hZUTDsT6frmqzukoZP4m/136kE2XhfrT7BzqVgbckfsk752nT6UpdOa2H5EQJUUE5detJ8L9u/jyNHjeOcIoWLYRDKJhx95BADnPE0Dvf6ApJG5uRkuu/QSdu/aiRMhYelTilDYosZZrNAVhy5jaWmRI0dPMre0k3HTUFUD1leXueuue/joxz/NW/7cm+h1aYCK4G1h4RXjByPDtXFEJTHbt/2cnG3fq2la+j3Pq5syTscrLzu+zqAKhw8/xj13f57YAhrICcpQURWBKw9dxpWXXY5mG8Qzlad03VrW/qNMRKM9slqk9/79F3D+BfsoqwLvIaWGuq5RYGV9yGfuvoeXjr2E807qOpHEd6aWrTPZAuRUEsdOHmMcI+vjlv/3F3+Fv/43/g6//Kt/yPp4nZga/v2v/xE/9p7/g49+/BOUvT4uCGUZCMEEmaaW1732Ji656CDBdcaKrPTKit27d1KPh8RmTBEETZEmKUdPrPGhj32S9TpRVIHeoCCLcHI1cf8Dj/N33vO/88lPf5amtSR2w+F6t6LcKiS6553Iq0JgdjDPm7/rO4AGjUOCy4zqhuMr66gr+PRnP8ff/Ns/xj/7mV/k2SNHGDUjnj864r4Hn+An//G/5p3v/lF++/c/wHqdGdeR/syA9XHSNoIPgaoyLynTLTK2l7GJTSKZtG4TCpjZa/I5QcWoMYmZnkRkQyvYuFMZbrvtNvbu3c3czIBnnnqCpXkzV6KRY8dP8ON//yd476/9HllbTqy2lP1ANeizOkosr0eOLrfUbU0Th3z445/mHe/+a7zhW+/kp3/mZzh+4jiTKoVlKGTQ60u/q1V/JnhxMvn8aejYwgQ4nRayKcxB2FwZu+7xZbBxJju2wQhqO6Jmtf6dmG6F7BxZXEdq9tgOYdIac2YY9AoOHryQ6669iqrwaI74YKWGxTmG4xErqyvgHBIceIv0L4rA7bffSlkGhIlGae32zuNwtHXmdbfezsELz2d2pkc9HFK4gpPLK0hR8szzL/KPfuqf84vv/S2efmkV9ZZ1ok6ZYausN5n1tmWtqWlyw133fIG/+qP/Mzfd+s385D/8KY6dWKbXH+CcJV/cdKOe4qzSRFLOPPr4Ezz+xDOkBL2qz6huSU1LcJ7z9u7logv3UzohALFtGY1qvPdUA0voBwpiMQiKIOIYVJ6rr7qMQ4cu5f4vPMCJ40fpDeZRKYgpk4EHDj/Ek08/y/qo1aIKZEAzqJy6erYpKFS9Cu8d/bIijvt86q77OHz4Sf7W334PRQjghKiZqt8nC6ysrbC0uEisW9p6zJ5dS7zhm27n3HP2IEAbW4pQMD83wxWHLuOjH/8kw2ZECBUhBMiJp55+gZ/7F7/I8WOr3HzjIZYWerx0bJ1777mHX/q37+W5l14iZ6EsB4zrml6/6halp86FjE3+tm1xvmD3jnluvekGrrz0Iu67/0FwwvzcAseXV/FFn1179/HUMy/wT376X/BPf/pnmen3mJ2dZW1tnXpc2x5QkygLz7BpabMy4x04yFFQNfIV2bJNLBm2Pv+ysJ6fCMEJCWa12z4RjSJdRUqFPbsW+f53vI2/856/x+5dO2nqIW0y7SWp8MLRZX787/8EP/9vfpnbbruNSy+7lMFgQEqZtbU1nnnmGb74xS/y4IMPcPz4CYIXSmk5ubwMCjEnbdsWFJy3hcAr1enOOSnYeFNAtpDBhEi3amYTzWCCU1NwCIhs2vBPOaudQYAz69Pdsbf0mwJIAtl8b7J7srUNLwdHJqrQ71Vcfuhi5ufmWDtynJwSRWl7Y02MFFVJ0zRmXRiPqUTZs3snr3nN9d3iLuOdmNMC5kTTpExVBVzh+L63/Dk+97kvcvT4Cqt1y86du1g+cRTfK3j8iaf5iZ/8x/zmf/pdbrjuWvbs2cvu3bsJvuTosZM89vjjPPnkk3z27s/gPQxXVvGSGNeJNirjOpJUdav5amsWza1ZGF5NOKtI5Nixk9x33wPkDCkqopleUdI06yws9LjuqsvZuTCDdHskpXMMFuYkpagiCZsKdssnqnjSTGwT/arg+muv5P3v/xAiQ8btmFA6LCmg8tJLL/Hg4ce49qorqXqTPZHJmLHf9lMRVcyxVFleXYUk+KJPm4TZuR3ENhKqQB4PadqIBMdg0KOtR3iFfq/gDbe/jptfcw290nUbxELOyuxsn9fceB0X7N/H088dpW5HFKEPzjytHn74Mf7BP/gpZvolg37JcLTGeDSk6vVom0jVHyCi9HrmGdOJ2i3t34TzntgRySUXX8hbvuc7eOnIEZ47epLxaERVVayPanKsERF6ZQ/RxNqoZXntKGVV4kJFG5WqP4tqJPiSmBTXbbpaXqcWJWGeTglbI3Y0f4p8297CTUw+Z4JxEzlFBPPK2tj/FLtqUfjOb7+TT37qLj7ysU9w9PgyokJwnuFwRFX1cE44/OgTPPXcEZq2IUVLm6Jq+aFEhKyZUM0QvODzECeOlBMxRnNTFdM0tjTrNBiBWPu2XwOi2FKloxexh+klp3xyC5G84umsb0mYCUde9uPaPQCyKMpkHk1aufUTBukeXlwXyd2RoSo5Ja668goOHtjP0eMnGddDiqJHUnOhdWJmsRQtxUgIntfffhvzszPWRAFVRURAnXkaJkVESW3mW9/wBv78mz/Hv/+N3yGu17TjMVXZw3nH4o7drKye5DP33M/nH3gI75y5OydAPCLeTLUKkhKhN6DysD4aszYcs2f3jm37H6fOm+17Ja8WnK6Dfp0ipazPPfs899x9Lw4hxUjbjCmcrSx371zkphuu7yJkE04zIhlNUVUTTDyyukEvmJnLC/SKQBDh6iuvZPeORfpVQRCF3Joqrpl6PObee+9hbW0NxVKeTI5Ed1SDTfBBv8euXTu58MCFlFVFfzDD+nBMyubaG2OmKEq8d8TYYAnfGnIccfvrbuIvfO+buWDfeaB2hrIoJMVIEQJXXnEZr7/9NpYWZ8lxTHAJJ2aX7/d7AIzrhuWVVeq6pWkT3gf6VY/zzj2XSy+9BDQSnOLFMuFqas2kBJj5B1ClLAvQzI7FAXe+6Q1813fdyY5FC6ITFM3mQm1BW4k2K64oKHo92jZRd2nY2xhJMXH9DdfjOu1NdfM+OM0UHnJb23NR0GS/JziVUewl6JwOICdLr6kpUnjBk7FaE/a5nNWIpFtkoJm52R7/w9/4Ea695kp2Ls3jJYNGBoMB4ixXmfcFihBjxvIr9Sx9vJqm432BDwVtjNRtSygKiqLAe493TnK2tPoxvbz5w3UeP1auQLExC7bktySWwQuxGZNTY+UAnF37dpwqyJS2bdWCEkEExAniFNddq5OEF8ippXATgb95BMHulXmX2T3R3OKcmhdhjgRvPnCTx5k2mzUnyiJw0cELufTSgxSFw3WmW00NZeFQbfAuo7khOKUIwnd8xx2omnda4b1M7K4iQs6ZXmkZnIOHhbmSd779rXzv93wnC7MDYjPGC7R1zbgeU5Y9+oMZMo42Q0xgVRkExON9Qd1GQmHOEU3bsrC4g9nZWes84PQUJy97W18V+LolkbRtwrVty7Fjx3n26Sdp6xGDXsWgKlhdPo7TxMEL9nHo0ovxQOkcQu6EBfjJyhMTWrLxD4tEzhmycujiC7n+mitpxmvkOIbU4jRRiDJcPcn9993DysoyACF0ghAwMW8DzAGiSoo1t936Gv77H/khLr74IOPROotLCwxHa3gPdT0ixobgoVc6vCSqQnjjt76ed73zrdz+uhvxHszCocSU1HtHTpk9u3bx7h94O3e+6duYHRSQG+rhCqkdQY5UZaAI3q5QlV5VMRqOOHjgQv7Su97Om771dmb7JU4j2o5J9Qi6CS5gq/Y86X7Fe0dKyoUXnM+7vv+t/Lc/8A5275wnSLK4G7VUKzk2VGUgeE9sG7wTiuBo6hG9MnDdtVfzl//Su+j1e6SUGY9rgoNBVeIkdynNW3qFORaIJhNOGyNBThGQk14XMsELTT2kV3ictuR6hNOWMnhSypZiA/Bucyw4MZPnhfv38ff+7v/Cu975di44/1zQSGxGtE3dXYMn54R3ApqpxyNytrKsTqCpx7RNTVWWXHbpJVx7zbX0+1a9MWnWSR2Qboi8IrroGWLboJrIKVMVgZxbvFOq0tGrPKkZ4iRRhJefwqrmbi0iE/mHE8gp0tQjHBEvEe8y5JbYjJibmaFtQXVCHjaPHJDahhRbNI4hNXgSmhpiM6YqHE1tsSJbCWRyj8BksBOlKguuveYqZmd6lF7Q3DDoBZrxOrFeJ0ik8EqQxLl7d3DlFYcowsRRG6wejR05eMu0XDhHECPWSy7ax4/+tR/mr//VH+TQxQdIzZB+ZSbf0foqqpmUIilaCQhrrZJzRHNiZtBHBHLO7N61k0suuYhBf2ZjHJ5utvoKbuw3ML5uzVneHPABI5SmsXTQVc9MDZI9KSk5jTl0ySV8y+tvZWm+T3AKJJs4zmFckjeCiTZhz0VgsqSc7fV43S03c/c9n+WJp55FXKauh5RlSVEVVB5y25BjwtTfyXFOhQBF8OzeuYP/5s5v4YpDl/Crv/yb/OZv/if27JpjZWWFqlR8cNTjNbK2XHnlId7wTa/nbd/75zm4/xx6pccy+oL3Ttq2VjAvlF5VcMVlB/jRH/lhLjp4gN973x/x4OFHqZvWNAoVcsqACaDgPX/x7W/lzW/+dg4ePI8PfPBj7Fma5anV47YyBfbuWmLn4gJWFMps96pJU0qEUEqbLD/QwYP7+OEffDs33/I6fv+PPsL7/uB9HDnyAr1ehfOBplknpURZlniBEBxXX341d9xxJ9/yhpu57NILmOmX5GTCxImwe9cSu5bmOb4yMo0s1WhquPD8g5y7ZzeW9mP76s/a7YDdO5Y4cME+Hn34IXIzZFAUtG1k0Otz0cELmJudQcR1JKAbiwtLYlgQHFx04AA/8ANv57W33sQHP/RRPvrxT/Dcc0cYjcbEukHEdigmbsKgSG5JKbE4P8sVl1/OzTfdyE3XXc4tN1xFWW4GpqWY6JXV6QNlC1LOCibwwcYPAksLsxy69GI+c9c9rK4PSSjqMkjk/HMu4sLzzz3DCNwCEYIPklQ1qgLCefvO5eqrLudLhx8B8eQkZHXsXJznxuuvofTgsX6KbYP4gISKqiy57dZb+PRdn8M7wWlDimPO3buTa666giq409KCTEg/56gpNUj2FL7izjd9K5++67N89OOfYvjiMVoxi0JZlsS2pl5b5vJrr+Yvv/udzPQ8/WLTHOi9l5yj2vEnMxlM1XL0Ss/55y7x7nf8BW675Vr+8I8+ygc+/CGee/45ytkBbWqovIeOjGxIRHIyTTWmzLXXXMm3ffM3c+P1V3P1FRfTO6NX1uYLypnI5dWBs+aiU0q6sj7mqeePsro2ph4nUmOmlAvO38XOXQNmBj00t2huCc7qgogUkmKrzk9k0OSSbQUn4qVto8aUKMqS4XjMk8+8yMraGqNRi/d9NLVUPrFjYYYDF+6nP+hJo6rjDL/yG+/jx378/yJlwfuAxkjwyvxsxfe+5bv4e+/524zGSj0e8txzx/lPv/07LJ84wYsvPo/3nksvvYRrrrmKy6+4nH3nLDLX7+NESEnxZIoiCEDb1loUlYzGY7UkkubdH9uGx558kaeeeoYHDj/Eow8/wsrJFYpQcP7553PJJZdwww3XcuDAbopiQFHAaDTi6NETPPvsc4gvSCmxtDDPxQfOpyw8HulMDdA0DaEoQRwZSBmrbyKe9eGQF4+c5OFHH+XBww/w9LPPbFQR7PV7HLr0Ml7zmhs4uH8vM4MZiqKkCDbrA0A2wlpbH3Hs5CpPv3iM1fUxi4s7iM2YA/t2s2dxFo8SCo+3AL6NMTuJ6k458/zzJ1gbjVheXmVtfZ0QSvbsWmDnzgV2LMwRgieISBsb1WxpcSYCo65bBrOzRCCrVXt86egKzzzzPI8+8hhPPvUEx46eYDhcI2el1+uxY8cS+/adz8GDB9i//wJ2755jdqZHvyiogidFi1j3zsmoHmu/ennPLIA2RhVsVSwCiJJxxAjHTq5yYnnIysqYtfV1XIDBXMnC/ID9e/YwU1WnmY8mG+yqlucL5y3Lsw/kHHn66edwKM+98BJNhJ279zDo91iYHXDe7nlorZ4GDnCOKIGM8PizL1KPxzzz3FE0tczP9jlvzy5m+j3O2b2LMEkPsA1Zk6KJNkaaqBRlxQtHllkdNmRNvHh02QqsaWZxfo75+T7z8312zc8x1z+171JKOrG6tW2Lc54QCkkpa8pm9nIhkLJpdsPxmNW1NZ569gh333s/Dz/6KKurq6wOR4xHDVVZcN4553LxwYs597zzuPraiwmhx54dM5RFiVMhtaYtFd3idtK/r8Y9kO04qzqgTaoRxTnzrnGYeh7rzGg0ZHauM4uI4HCoCmhABNTZhuDEmDG5+VucK1CFLICzlQVAU2eaUWJutsA7JTUjmpypBrMMM/zyb7yPH/vx/5OU3QaJFN5qjb/rB97G//q//S084MWOKUAboQgg3aJYBJyz83uBICIpq3onojlpzglVJRS2mq3bqD541kYt47plYd6KKdWNxVR6DzFCbKEsIEz0TVuAk6J5QnlvFeB8sHYFERnXjToRynLTiyhm6yRFEBHLV+Yd3olE3XDMZaIriNhzUQgC3aIW70AFmiYxWwVRjRpjJGVI6pDgyc6ihldXWuYqTxUUbwtGRIxQt2N9OFbnAiKOpmno9SozBXYdLgI5mTlr4nQRgmkUGcFLkKiq47ZFXCBskQvRtihwzha6Odtzu2qhLMXah71OBiGCWtQ6gCWvtJiLjYJc2zC535YWJpPJtG1LUfTJaq68ItbHEzFdt0M0KrP9mTOSyKY5y4HzpKwMY0O/rGiamtFwlfn5RZwLtAlWVkbsXurb+Ktrzakl9CoQYdhkkli80voo0u8VlMHGkgeq4vTiTNsFrGqjOSsZT1IHziwBayNom4bFBUvNMzHhptRAjszPzm0cO3djeKulwo69SZo5Z0IoJXUZv8d1pG4bQllSVjbYm2RzpRta9lDb6/QB2y9pM55Mv7Iqnl5kox3br+3VjK9bc9ZWxGgJLlTjRhK6iWIh2TbfyoUB0pmxJsMiG28QSpHYRQS7LV4yNs+0M0+57muCqjAajZmf60tKWQeFbS5rW+MLT7GZRHZjEG5HcA5JkQIjuowyHK4jKP1+j4DlsEopU4ZAIU7GddZQWfsmAiV3q3XnPaPRSIvS0tXnrMz0C3pVwXhcMzMo6ZVqnjYIVYDSg1NIVrEV82Kx1CTemy06SEEQJ21MOh7VGnzACYyHI3XBXC8FoY4tinTZUoXYNsSmUZ8zwXtJOalHQGB1fcRg0MMB42FNcI6qLMyK5BwimXEz0rapKYqAd4KKp82OlMA5ZWku4IE4HpM1UXR7DGdCryoRQHOmHJRWbMpZjREXHE3MFME8qoK3fkeVprVMzyk1inbVGAVbQGQgWyoV78UYwmMPofthr6ekKJi5TBQQimAk3MRWvbMNdl4BfiMvl3n15W7DXDsCiglywlx8XcL5zKBwUITTCGQrRATvg7QpqTihX1YkVZDMzvlZVCJNjHgp2bFgBNLWrTqnOBfQpkWcZ6aqZJxUY4LFLv9aPbSYmqrfQzVpM1yn7PcBYYPptiDnTEyRovDklInR9sxmeiD9ElHIWSkEQgEaPCIOq2ip2H6RXc+px02aU2fCFrtfmlvVHPF+czGUNKstdpTK2VzJyYIgnQjBe2YKJ8dXhtqb6dOrHODQZIk0U2w2J/4UGzgrSGQyR0QyEPHiAI8qNLUVRypKRwi2EgFFxNlA3hhCthG+3c9bEJwze6d9177WKwKTHE9lsMAoNJtgKUtiSggT+/jm0QBEu3dyxotNHiQx2ytwDlJuUBLeOQofcOJEk2qMmZSSiiioklNEnGNSza4sSkajEWVVopj7sRMoCgdEHGoEow5VN2kuwQspKs6BcwKayU2NCx5zE8W0Bu/wYuahsqpo25akFoFe+ECbLcuxaKb0Yj0qiRTHmlMDIqgIc4OSlFucOGb7BTlFYj20PapQURUFToW2GaNqEffiC7wExDtGI+vzEKCsyu7OudPu3QSpNXfQ8XjE3OKipKZVEfPg0+zxzhGcl1E91lAWqGa7xqKgKGwKxGTlT0NZodp5rU3Gk9pvI3QLXgQblylFckw4JzgpTOiJs3Zl20fyzknMSV9OC5mgaRpNKROC4MQRioAN50xVeMnJVtaK0rZjZMNEe2aYUBVyTmpEUQCK5kzlA3WzjPcFReghYt5nAE7UhnJWRLt9ghhVXdcPHSmXvQJxwQZZTpRVCSgg9msbTIQLqooT0+BismNtWBYA5zLkSDse44tAKGwub/p/GWLsdDT7jya7D+IcmiK5jeR2vGEj1Bxx4oBMm2z+lcEjk017zeTUqorF4OcYKYJHPNYyBRS25s6a4iwhkYnqmjWpqpmrFCX4U1d3ObeasyBOEBxhi11i8scpBOLFJiZqAy8rtlz2lL3NFYymrKogIQAZxFbnoorkTBBHQtAsqOvR5oZx2264gbpuEKfU4p2jcmIrTc3gHJqSqkJRbbY356jiPE7M9JZTVFBmZ2elbVtVzTg8WbMJ5Q3/fXAofkvfpKhadBpOjra96ktLXKddzziHEQ+QulVd1avEvOQU5xyVm5hVPEzsCpiWNPGdUZSUldIHBBOyIJS9HoiZwoxinfWjC/hg4iOrEhRm++ZxoymDYH39ChO37JmZT1PSnJLGpqEoS4p+T1JK6qxb7P4CggMnII6cEs5BWVSSNGtWxYnDixPVqDZcFOcKUY26OZIMIQSKoieq0RyZunMZtpivTn3jjLDo+o1nTM5lwre7u6qg0Cv7qCa25gbbig1zrXZjK1iOKlWFGPFVwJczAGgGccpk79qXpWiMigO8mQlzzDgPhRNCCJJS1KyKV+sfANxETTvz/XIu4L1giqASnDO36e794ERitH50PlANZrouEM5kyhSBnJUQ7D3NNlZBUQTf65FiV+fee3tdwYvrnucNj6sJpOujwntp2lrpjmhj8PQ2THGWkMgEX877wbmXjwY+0woWwL3MRuBWiHedLdQIRhEQR6oTuW3wWL1odQXqStpxIvQ8SYRknINXwblAQECTaVPiAAXR09rhtg1Yt0WFL14h6vlM8GGLaOom32GNxAAAIABJREFU3Ha4bTbmCbbbnr+eIWdo69b2D/r9097fiu0BgdsF1/bnW3Gm9/wWQRq2mWDOhIkwfDn4bWNENekkvuTl8Eq2e9WXD46TL9uWV37/TPCu/LLf+XJ9sBVbF0rAGYnrT4Ky24Oc4pVxVpHInz2EjVUX4L2jLD0p1dRtS9IIPhK80DRjxuNxtwC1SNy2TYTyTF2+bTk0xRRfAV6OAL5S/Em/P8UUMCWR/2KoKm3Tglig24wvIPSoW4u2npsZsDA3g6C2NyF5i6liOnenmGKKbwxMSeS/COY2WVWeHBtGw2Wa5FhY2gMpUtcjXlgZmnVYADF7d3AVSsQsa8Ip2fSmmGKKKc5CTEnkTwJVztu3l29+w2088uiTNMmSJy4s7OW8nQscOnQZ3ol5aKlpIuNxQ7/qsbmj1xHKFFNMMcVZiKn0+gphG+sTzw/bYo9ZiVlYXlvjxSPHGQ7HjOqauZlZ9u3dy9LiHMErqNLGhn5ZAJnN7UDZiOugqyg3KWc6xRRTTHE2YCqwvkJsJxHA3HqxhNopaRc0ZzmWHJBTJudMWQRSTgQnpNQQNvIvCdKZtcR50ZR1SiJTTDHF2YSpwPoKcWYSUUAwh/pTzVIT3/dTkQGLzLBPypd1W55iiimm+HrGdE/kK4AFMYERRvfaxruTSFp71cxT4J2IhXlN3jmVPqaYYoopvhEwJZEvg00CmWCSKGTyzChkEqimWxI6TgIcN8nECMQIZUonU0wxxdmPKYl8WUw4YavIN2OV5e0RvBPRpJs77t1HNzKPTiljiimm+AbFmU33UwBb90FeBp3pKk8IZMtDU97YPPGykaL1NGw1eU0xxRRTnG2YkshXApmwg+XvOoUQtlLAViLZ/OMU5O5x+jtTTDHFFGcfpuasL4cNyrBsurC517EVmtSctJTOcnV6JlOBU5LHC2c+1hRTTDHFFFNMMcUUU0wxxRRTTDHFFFNMMcUUU0wxxRRTTDHFFFP8idA0jbZtO3VwmmKKKab4M8ZZ5Z2VUtIYI2traxRFQdu2+tWWip1iiimmmOJrh7OKRJqmYXV1lWPHjtHr9VhYWCDGqF9NXeYppphiiim+djirgg2dcxRFQVVVFEVBCGcVB04xxRRTfMPhrJLCVVVJXdeac6YoCnq9HlMt5OsHKVmuMO+n6e2nmOLVgrNysrdtqyIyJZA/RUwIYiumZDHFFFNMMcV/EWKMGmPU7eSy/fkUU0zxjY3pSnKKl0WMUUXkK9Y4Ukqac8Y59xV/Z4oppji7cVbtiUzxp4sYI865DTJRVVJKpJRwzuGc4Jxnkug+d1ntu89t00jsqYjgtiWmnGKKKc5eTCfzFOQcFSxhsWWxVxSlaRq89wjCcDjk+PHjrCyvMBwNKbxQloGZmVlmZuYpiooQSoqywIcC7z2KksmIKDJJp58FEYcTq0ufs4I4grfKkK8EVWvnmSAy3R+bYoo/C0wn3qscMTYqbjOD/aS6VtaEZkWcsLa8xn333cv7/+j9HD78JcbjNfqlMD8zYO8557Fn7/ksLu5ix87d7NlzLku7djG/sEBvpsIFR1kGgheUjKjgXUDwGImAdIQiIoh09emzqm5UXrEs+4giLztkpXuwkbL/TwIrc6xIR26qUTsaZHKuSUnkjc93nbi95MwUU3wjY2rOepVDEYKzqP+Uo6KKqSSetmlYH67x6U99kl9973v5+Mc+wvLySTQrVRHpV46i6CNuQFHOsLAwz9LSThaWdrJ77zkcvOgAF1x4AefuO49zztnLrl076JUVKp6sAqp4HwjeSdtmnfBD6uxi0ukyqhkVQTCy2Up5E+KArw15bECsfJjmpmtXBraSCGSNKkjHc7kjkK9hG6aY4izAdMBPQRuzAhTBSYyqKYH3kFLk/R/4IP/fv/l5PvSh97O+vsLOXXPMzw1YWqyY7QdyFpZXxqyujhmOxqyvN/hQktVRFAN27NjB+efv54orr+Tqq67mqquv4rx9+1ha3EkIHu8DvcpLyqoTDQQwrUUyE9Oa4BAE54KoJhXxG79PvZqvDcx0ljafdwRmVGJwp1DKhNDc15bMppji6xzTwf4qx3o91BACTgpUldgomgTvhN9/3+/yr3/+X/Lxj32I/gxcfc0l3Hb7Tdxyy/Wce84CVeVo28jJk6scO7bMs8++wJNPPMeXvvQoL75wnOPH1hiOW9omIxKYGcxyzrn7OXToCm659VZuvOFGLrn4Uubm56jrmn6/RwgB1UzWCJoQZ5kKnASc+7Pf94jaeQ8AYVtVyv+apDbFFF+vmA74VzGyJh2nIYUvaNpIijBTzXDyxEk+c9dn+Ef/+P/mwcP3s7Sj5I13vI47v/2buOa6Q8zPFTjXItKiCsEXeF8SY2ZtvWZ9veaJx57lvru/yIMPPspjjzzF0089x9GjQ+rWgQQGgwEXXHABt9z8Ot74pjt47Wtfy8zMHGVZMjc3I2D7NTFGVJWiKAnhK0+2qWreYV9roR4nLmhAmLilbcF/rfNOMcXXK6YD/VWMrFETY7K21E2Dl4Jm3PKRD3+If/uLv8CnPvlxdu7u87a3fxdvfft3su/8JZq4TEwj+jOBNtakFDtDkwCKEyMUJxUul4zrzJHnT/D5+x/k3nsPc/fdj/LUM0c58uJx1tcTmmFxaZ79+y7gjjvu5LrrbuS6a67nwgMHKKsK57qjf5Wb1X/awtzMXxv8gk2tU0/9p9WWKab408R0UL+KkTVqk4e0uaUQz2htnY9+9MP86i//Ih/9yB+za1fFD/3w9/J9b/0O5nd6cEPKItPkIUkTqkrwQvCOlCOaM4UvMDcmT4oOoST4HqmF5eWax584yRcfeJL77vkcDz38GM88dZSjR4c0daQMJRceuJRvet3t3HLbN3H1lddy/vkXsrAwhyuErEoIm4I4J9MK3BkIJudWzZvLfdXuvzknpXNNNpi7sqp5h4nYlr8dVIHMxJPMNv+d9QFgnmcTyJRIpviGw3RAv0owqb3SpSrp4jgAB22M1ON1PvWJj/Gvfu6f89m7Pon3kR/6oe/m7e94M/sP7KRujlMOMokxqgnnS2z4ZNDOk0kTYA5eTjxOCpwUoI6cIOVAG3uEYo711RGHH3yE++79Ip+770EefPBpnnnyGCsrNaLCBfsv4pte/0buuOM7uPE1N7L7nF2IV0Qc3geceGwTe8tFAuZVpahGkK4dnffZdmyNyI9xEisjgKK0CImsCSdiVJESwXsjEdmcPFlzp4MImgXUIc7IwwgVnHfIBrlMI/qn+MbBdCC/SjAej7UoCmAzEj1nQcSzutrwpcOf4//5V/+EP/i93wFd5013XM5f/5F3cMNNV1JULcPRScq+QyXhxBGzQ3Vz+AhgK/9OcIKtykUAQRVUHV4q1AVizKQotLXwwvPHeehLT/L5+x/hSw8+yQNfeJwXX1ym8PNceskhbrr5Zl7/Lbdz2RWH2L//QoIvyBm8Lwg+bFn1gw9GKynXRpYu4Jy3D2xDzqZddHsuklLcSNsiIsTYEmNLGQRxgqgRpoiAcyAeTZkYFVxAVcja4rwSfEBESCkZqXqPE4/I1Htrim8sTAfzNzjS/8/em0XZdZ33nb9v7zPcsSZUFQoozBMBAiBAEiIpUhInyTKlSJYl25GXE8dK7KR7rX7qhzzGjLp7rX5Md6+VuNuxYztyLFuWbVkDKVEjRRIiQYogAYKYCGKsKlSh5rrTOWfvrx/2LRCkJK90YoXF9P0t3HWrzh3qnnMPvv/5xu2cWmvlVhFZ9UQEQ9aGV1+9wP/xb/43nv3h35C15zhwcIj/4X/8BI88dIj+0Sq+WKEocqI0xjnAWJyPUDWIWMAiWJBuKMfDahGTioebYSGlcDlRbBCJcA4MKUZSityyvFRw6c3rvHr8LC+9eIpXjp9h4uoMmIStO7dx15H38dBDD3P73oMMD6+nUqljbYJdHcFiRZwLXX+Cw/m/W0QAvPcURcHbBdai3uIyBQqMOPKsSbu1gncdvPdgIqxJUW+xUZVypQ9rwZsCNS28D8c4iRNETAh+qfREpMd/d/RO5vcwt86n+mnhkZ+2vkee5+q9x1pLnnkuXpjh3/3bf8uff/HfUeTzbN2mfO5z7+MTn3gf69db4qRAjCI2QaRMUQiYFOcNngjRGEhAE5AYNAKJUQ0hH1UH4sE4BKVwLYyhK2IWIwnOCa2Wo8gssa2BJsxML3HqtfMcfe5Fjh17hdfOTNPJIjZtXscHHniQDz7wMHccuovt23aRJmWMEaLYSKfTUVWPjcAYQQhX/z+N1bEuq55HnueEvIdBC2F5cZmJqxeZnLzE1PULzFy/ysrKHEVeIMRd8RhieN02xsa2Ue8fpG8oYWh9Sv9AH+VyGe+CUMVxSmRjQPj/mqPp0WMt0zuZ38OsxvGBn1hb5WcJzKpn0mw29eLFy/zJf/gif/JH/zfz85Ns2Aif+ZVxPvvrB9m+PSJOl1HfCKEYU6EoSiBVoqQPYxOUCKNlkDJoBagAKd7HKIYQ7VJUHOBAHCWT4qRDu9MGhThJESKKAoxJUBeRZ0pkKqRpjYlr13nmmRf5zvdf4aUfn+PcuSmEiM3jY9xzzwf48KMf5e6772HT+BYGBms391M1V+12kaM/2xNZHSypqhhj6HQ6XL50kddPvcqpEy9x8sSLTFw7R1YskmdtWi0lzyDrQLstKEISRdSqY6wb3ciGzevZtmsjBw4e4M4772Lb1h1UyhW8Bu/MGAtqsbYnJD3++6B3Ir9Hcd6pdmP6AHEcksfeu5vtcKs/FEU3fNVNGnvvOXnyJF/+8pf4wn/8I25MT9LfDx99bB3//F8cZMvWNpXaDFG0QJYvIxKjWiHPK1g7gJgKUVJCTIKlhpE+jPQhph+oUrgEiBFjEQNeHE5z8A6fg7UJaZwiKLnPcc4DgnMea1NEI7JOgUhCKa1gozrn31jhBz84wRPf+A6vHH+N2RsNhJh6fZCHHnyUhx9+mPe//362bdtCpVJGxONcgQKmm+R+J0KossqyDFVlaWmJV145zg9+8G2effarTEy8QZoKW7ZY9t42yPr1NcolIc8KbswsMTHZZHLCcf68Y3YWhkfK9A0M0e4oaanMgQMHeeyxj/PA/R9ibGwDtpu/EaLVsBb2p1SW9ejxXqJ3Aq8x/C39BkaCMKwO9/OExLHzHVUKQFAfErqRNYRS01AhBaA+xPZFDHhwTml32ly5eom//eqX+b3f+z+ZuT7N6HrhyD11fvO3dnDHoYh6bZrIzpDEHYoiXD0rCYWLEVPCOYt3EUKKkTLG1rCmhkgNpIq1fYitYKSCmBSPxavinBDbKh7bTTiHaqsweNEgWAqviBrEWNQLziuQIAzRbEZcfPMqzzzzAk9//yinXnuThbkGjYZj9569/IOPfZyHHn6U/fsOsm54GFHBGIOx3UopceH4SBCQIg9DTKwRpmeu8p1vf4MnnvgbLlw4Qf9gi5274OChPg7fsZUN4xVKKVgDoglLy8rMVIfLV5Z59cRlLl/OWLdukP37HiLP6xz90Uu8/vpZ6vURPvjgR/jFj36SffsOUyrVbu6ztW9Vl/XG4/d4r9I7cdcQXp16PFCgKEYTRG1QD4XcQZR6lCaeNqoG70rgU4w4okhBMlSDwIiWKPIYnCXPocgyzp4/zZf+6j/xla/9BVevXaKv5nnk4TK/9tk93HNvP9XqBN5dI7ZtDIr4CNUEFcGLQ40DFYyrIT5sBwlCQYRqShT3YewAkRkkskOI1EHLeBIKSXFEeA+oQYkQiQlTfW0YtKirU6kgNIgLEGNMCVRYXmpx+dIkz//oFZ794Y858eplJicXsZLy/vvu51c+/evcf/+DbBgbJ01ibGQwkcGrw1GE8lw1iBhUHZcvnuGrf/sFnvrWl2i2Jrjvvo08/MgoO3bmrFvniJMmhc4jkqPeYBhAdIhIRllpxGR5zOx8g6wDWzffR628m8uXZ/jmU9/nb77yQ65ca/LIwx/ns7/+Oxw6dA/Vag1jII4FVY8rcmwcgwhCOJ6r9JLwPdY6vRN0jeG00CAiDiHGSiJ+dcw4UHiP2A7GOLLCs7ysrCx2cHlGX3+JStWgdChcjroI9QmLc47pmWnOn3uDp599ku/+4Akmp68yst7z0IcSPv6LG7jnni1UKvPEZppy0kRdE6MeoxavBhDUgJfwUYxGQWDEod1tKgZPjGqKUsXQh5EBIjtAZPvAVimkilJCJCEMkU7wPkI1Bom727p/T0N/BoSR8RC8lcimOG+ZvbHE5YtTvPzyaZ4/+irHXjhPY7nFli17eeD++3n0kY9wYP8+RkaGKVVq6C0Jf1eEcNe1iTN87Wt/yFf/9ovU6zf4+Me3c+99WxkZblMtLxDFKzi/gNNFoggikyL0o26Q2I7SKcoYU6PZdhSFpb++DdERnKtyYy7nqade5o//6Elmbnjuu+8j/No//Cc88MD9VKoVUIeNLL7wqICxwluTigM9Eemx1umdoGsM750iBTfdDwyKJZQ6WbLcY62ystLg8qUrnHztHCdOnAIPmzatZ2zjAFGc02qvsLLcpNHMuXZlhjNnznLx4jmu35hgubXA+JaIDz04zD/8lfXs2OoYHowxLGJ0kdg0Ma6N1Vun2FoUi5fQpKhScLOx76aIhKtoJcL7GO9SVMsYUyWKqlhTo6AfpEZkSxhbQaSMUAJN8T7Bk4DG3X22hOm5hjxXrE2J4hjvhcKBVws+pt3yvPnGNZ599iW+/70XOPHqeYwk7Lt9F48+8iD33nMfu/bcyWD/ZoyUUIGsk3Pl2hm+/o3f51vf+XMGBq7zsY9t4kMPjtPfX0CxRGIKoI33K2DaWBPCbupLqNZJ01Ew/VjbT7strDRyrK2QRH2UyhtJ4o1MXBO+9BdP82df/C6TU00eefQX+a3P/TPuvOsuquUK1saohlAkJnTE90Skx3uJ3gm6BvE+VxFH8EhyFB+8AZ/iXUq7mfP888f5sz/7U3747PdYmJ/Ha0S5lFKtWcR2cC4jywqyjqfVylDNabZa2MRz4NAYn/jUPdx//xh33N6k6LyGlUXq1YxIFqFoEovHOAU13bCTBdHgiYinMB6/2v/xzrNoNcTlbXitroarSjj6UaljJMWaKpGtYUwNkSoiFVTLwZORFCEhjByJEClTeENeFITqplAB5p1QFIK1Fdptx2snz/P0D4/yo6MvcebMNYQq+27bxgc/9DEe/tAvsW/vETpZkxOvHePJb/4BL/z4ScY3zfEb/3gXh+6oksRzWFkhQhEngMcYMEYR8ahTkBixZQpXwmuNOBkhjgbpZEKztYy1ltiOgG6knO5hYkL40l9+jz//0reZnWvx6KO/wG/91m9z370fBCLy3BPFgrG+JyI93nP0FqVaY/jCqTFWVHOFHMhR2sFgesW7iKPPHeeP/8Of8J3vfZ0b81cplT3VUolOW2k0OjjVYMcV8jzcq4IWUKkJ4+trjK8foV4eYGW+TX9thFKagJ/AaYZRR1FAbAg5GY0JgaUCIwWe0Jkewk4eulqyimrwWyKzWmKboQrer2CkheoC6hKKPMFLBTF1ROqUkkGMqaJaQaSKkRRMAiQ4dYDBWsGaGBGH86uJeUuaWmrVMkfu2cXO3WMced9tPPXU07zw/ElePXmCl4+f4+izr/KRD38KYx0/fO4rnD7zNHccMvzGb76Pu+6u4N0FjMyRRBmRCFhDUSiqAi5CCZVeYjwqHZzPEQH1FYz04QpPozFPuRQRlcpEpknh5hhZP8Jjj91Np1jhC3/6LZ588isMDg4zOrqFrVt2YIxBvcLPrkTu0WPN0rvKWWNo4RQRxBpRbanSwGsDr4L4Ps6evs7//r/+X/z1X38RxxxDo54tWw1DAwk2MohxeF/gnNJswPIiLC0qjRUoCg25BQPbtsO992zm8P4N7N3bx7btUKlOUy7dIE0a4Nv4TBGNMN6C5KjJUBPmRBVicSRvNaOjhK4J8N5hxGOMYEwISIVyY8UTkvDqLU5j8CWUMt5XiJP+rqBUEFPB2grGpIiUaOdlkBpJUkYVWu0OzkGa1kBinLN0OqAaUasNIZowc2OeV165wHe/fYyvff2HXL28SK3ah41gaXmBQ4f6+e3fuYuPfmwrhvOoXqK/3sEXi6i2sQLeBSHVIgyWjCKDNw6MUHhLHA+BjKJ+iGtXlzlz+gzlSsqO7YcYHd1Np1MmTtchto9zb8zy51/8Dl/56xcolTbymc98jl//7D9i+87NhB6SnifS471HzxNZQ6g6xQUr7wuv6h2YEs7lCLCy3ODJr32Nl196hsguMzoiHHpfmc/+4zvZNJaSJIoRcM6TZ55W09NYUWYmV7g+vcz1iUUWFh2LSxmLixnHjl7h7GtX2LRJOLC/n737amzebBgeqlKrVoisw4rHW0eo+AoioSKoRMFLeScqRN18jnEevMdrd5VCAbwiUmBMgRUHxuF8hqOFy5og8yBlrC2jpnyzUz6Jxyh8m1arIEnKVMtlVA1Ol/A+Ik4qpEmZrPC0WnMIMQMDZe5/4CDbd2zhrrv38+3vvsAzT/+YqYkVSgmkUYmpa45zJ1cY21BnaHAc154hjh1eFOc6WAuxtWhkcblDrCOOgtfgOm3UN1FaWMkppQkz1y2T12bpNKaI7hgjTjuUqoY4zdm1O+XTn3mA5cWCJ79xgr/96y+za+cuRsf6SUsxIqGoYLUB8h1rXvXosSbpnaVrCFWn+BywFHkwJHFqWF6ZpVxOee3V03zun/wzrl66QL2vzQcfHeTX/tFW9h+01MoLGGkjKiAGNApX+b6EFmWsqaKuxMpKi+vXp7lyZYLrMxlXrjkuXctYmutQqyibu4Jyx4ERRkYN1XpGlLTxuoKYHGvA4zEmrIQYGh4h1BUZRIVIVq+nfTCGhJ4QJHStIwrhH9BNxBPjXYTTCIjQ1eotiUFSbDwKMoCYGGtSxKQYU0KkhNcUryXwJZxP8UWCkiAmonCOJKmgpJx/4zpHnznFMz94mZeOnWZmap7B/oK7Dq/ngw+OceedCZs35wwMrSDRFNgVbNhhcF3BlJxwBCAsKlzDsB78MEU+xEvHbvBnX3gFY5XP/saj7Du4EZO2KNcTxAyA28SPX2jzR3/4NN984hjvu/cB/ud/+T9x1513Y22JyCZYG5FlGUmSoBqmDIc/3qPH2uOnXEr2eLd4/PHffRyf471iTIIQBvdZk7Awt8Qf/sHvc/S572JNgyP3lvjVz27j7iMRtb4rxDJFLItYs4yVFawsY2WJyCyDzmLNHNbMUiktMTLs2bG9yv4Dg+zYW+PA4X527kxJkpjZGwVXLzd588IiRWEoPJTKfcRpBWyEw4AYVDOUnNVxJrB6y7teR7fCTDxvu6B+K/61ugFBEXEY4zEmx5gCpIPQQmgCbYqig3Mt1K+grIC2gDbQAc0xRrFGiSwY47HisOK675UhdBgYKLN79za2b9/G8PAwAizNtzh35gavnZhkca5JHJcppXXi1JCUDFGUkudCnnvEghgPooihewVmQEsYkxLZGpZRJic6vPjiHMvL8+zeO0qtXpD7G8SJI40r9Nc3ksaDTF9f4Nz517FRxvbtW+nvHyGOElZneTnnMMby+c9//l/fPFw9eqwxeiKyhnj88d99XPF47xGxeA39Ec4JR595hj/9T3/A9PVLHLijxC9/ZisPPjRIrX4N0RkScqwqBsXgMTgMBUYykjjD2hZilhBZwpgVoqhBFLeIa47h0RKbNw+ye/cIO3YMUa2kLC50OHt2kYXFDs4LJkowUQzWErrlOxhTYEQRUTAhpm+sojhCd7hHVj0PARHwrPZ/dDcAoCgaqpPMqgCFogIhQzT8jGYIrRBC8g2ca1AUDSBDJMdITkj+ZwgZxjhEPUYAzXC+QZR4hkcG2HPbTrZt30q5XGZ5cZnpqQXOn2/z5hsLFAX0rxukUgsVY1kWAnlxYlF1OPVdERHQGPURYIlsQrW6mSyv8fLxq5w/P8/YhoKx8T5MvISxGdYYapX1DA1sJIkrnD7zGleuXGR0/Qjbtu0lLVW7k4RN8ETjpOeF9FjT9ERkDfH447/7eDC03VCPWIyB2dk5/vhP/h+efeZb1Ps9n/70ej762DhDQzcQP0Ea5RgXYXyMaHTLzSAozhUIHms8sTVYC0YU1QKVNtZ2gBXiuM3IcJktW4fYsXOYdUM1VlaWOHt2kampBmILKuWEKIqweEJfeTB2vlukJab74bumT4TQPyIGFcFr6DdRQtOf3tzX1ZcoaEjSGxQjihXFWrC2wErX+6CNd02cb6LaRn0L7xs4t4LXBkgDYzpooYg3GPGIyTFRThQXJGVl/YZBdt+2lc1bx4AO1yZnuHIl5/LlBnNzDaIoYd3wFvrq68hdgXcdbNzN76hiTIQQod6gGhblsmmdcm2EdrvJ6ddvMDm1yPYdNcY31VCaON/BSEKp1MfGDVtptxucOvUyzWbO1q37GBkeY3XqsDGGz3/+f/nXRVFozxvpsVbpJdbXECJWCp+rGEPhCowRMBHn3zzNj479gJVGmwcfqfDBBzcxPNzCF1PUqkqEofCW0I8RUEKISPFhrpaE/ETuMtQJ3oV5VmodUamFEUMugjXLxH0DlMsVtu/YyMx0nTNnrnD23HVeOpYxc32JgweHWTdQRlJLFIMxOUgbKFB9y8FQgQLBaPCPUBP6XcLesqo2goYo101F6T5DQUQQIwgZKhlIyLsoFpVuLkWbFMUikKJSRqRMFFWAPmy8Cbn5t8GLxUmOmjbEDca3DrFh0/sZ3zpK39AQ33nqGBcvzTH9lSWmrjdotWrc/4HNDA1vRIzi/Q1UM4wIqmFNFpEC1QaFL8iKi/SNlHj4o3dw6dIkP/jeFC+/eJE9ew9RHfB4N49zE0RSZ/1YHx/5yN1cvHiK18+c4YdPP82WLXvYuGEjRVHgnAvHoZdg77GG6Xkia4x/9a8+/7gTjydHxbG4OM9Xv/pXPPmOqF3nAAAgAElEQVTk3zC6XvnN3zzA++6pkyQTJNECiRFc5sB4vMlhdb6VKVApUOOC8TOEq31jsFFKHFdISimRLTC+QLwnMkIUe2zUxNh5VpoX6Btqc9u+dezdN0J/3TA/0+b860tEWNRBbKvEURlrI4wNi0OpegBUCcZeY1RjPDHBx1jtcpeujAT1EOl+xq5rImowWAwG1AEe0RAiEykQE25KB6SDmBykg2oTrys4t0K7sYAWbaJyirVVDBGdDDIHlbhK27VYas4zvmUj+w/cQbVWY2Fxjpnri1y74rh6dYqiWGJ4pEJff4TTFVQLIhOhLhQ/WEI+RkxOR9rkVhns30a9NM7VS+eYnmmxbsQzuiHBJm3ECNaU6bSFwcFRSmmV06evMjG5wqZN29i0aTPGGKy1/O7vPv54L7HeYy3T80TWGhKqnRTFK0xMTXD81edpNnOOHBH23l4jSRewpkk5TSjajRCaQkFAxcMt/ghAER66aaCdd+S+iToPmhMnkCShMDfL2ngUE0P/AHTac6ysLJMmI+zeOci6vgEW55pMTF4ncxlO2wxSpVIF211GNlRXgYgFH4HGqFrC3CoPGEJ2pOgKSBAdVqu6RAg6ZFG1eHx4SbdQSjXcvHpUchCLQTA2xwNOC7y2cb5JlLRR16S5sIixI5hklDSuEduUQudIkwppUsXljk3j/Xzik/fTVxe++lff4cUfnef4yx6nU2ASPvjIEFt3DFNJY9QtodoJIT1jMDbCSESiGc1iEmsneN99t3H54of4y798ipePLbJ773rWxTnt/DpRtUSWO9YN1Ln7yB6ef+Esz/1ogpd//Dy7dm5n67adRFFyc+13VadBaHvrkPRYW/REZM2hGCMUzuKc8NprZ3j99ElqfZ67j5TYsKFNbOdR1yLPfVhvyQioEkzwrYSQ0c2t2pUVKTBWwEIIJoVla1UEG4FVEwx+JiRGQC3kyyS2zdj6mPVjli27+5hbmGV5qcPsQge1llotwYggxBhjsaaEEIPGOCd4B6phXL0QkuAhvxHETsMdRkz45Cp47SqgEdR0y4klvGK1jECd4NXjXQ6ihBUTLUKBYQXkOrjFkC/xS0Tah02rCFWQIfAltPCINNm0IeYTn9zP+hEhLcHzz13j1VeazMxfZb6Z8dgn+ti+NaYcWSKjVMoRebtD1vakSRXrHPUoo9M5S6VU4sO/cJijR3/M2dczrr1pWT86iIkmabXOUkojnBtgoH8DH3n0bq5cWeKZp5/k9r23sXXLTlwRZhg7dRqKGTxeO2okFQAtNNQn9NYk6fEu0hORNYYguMJjjGG51eTMmTNMTs4xOqzcvn8D9bpHaGGMYozBecF5z88OeLzzgVW3pGu4u/c3H0MAQVQIl/8E6y4FoZy3AyIkiWFgsESlGgx3koCqC0lmASk8HocRgzURsU2QOEHVUHilyMN8L/UpSIExHi1yBI83YEUgUpQgOgo3HZYghOFnETBGUXXdR3JUDSioKio5xoBaC6ooLQpXhk4ZZJAkBisDoAneK9YU1Gpwz723o76G4ShPffsFrl7r8PWvT2GTJX75k6NsHquh0sEXOYJiDYgUWAq8c1gx5G6S+uA4+w9u58UXTnDt6iz7Dg5QqTvQFkVxgyKaIUpq7Ni5jrvu2s1fffkHPHf0+xw5cj+btu6QPH8rixT2T1F12utk77FW6InIGkMUfOGwiWFxYZ4zZ06xuNjizkMx27ZuxJoGRdYijVZHZHRzCT93uuJzU3McpTSiVAplr96H0NRqfsOrR3035GRArWAiASqIiYjTKpGCdz6MafEObAGa40yGl9DfoXRQ9W/lRlbRMH4FdV0hgTCw8haUEAJTg0oH/CKeFuoN3icYsxzEzQyAgCtisAYTWfr7KzzwwN20miUmZyY5eeo858/Ai89l3HMHbBxaR5JmFMUcBhDrUWmCKIrFRDlZNk+9nnPknp2cPfc6l69OsrgI1VooDnC+QZbNEleHGBkb5s679/Dc0eOcOHmMl19+gZWVRli9sivsb30Bq+G/1R3t0ePd45b/lT3WBAoWC16ZuT7F1MRVYpOzfrRGrRbjfQs0wxpFNRju6O/9UiAIwU1jdes26W6X4CGAR0QxFsQoYjyh6TAkwJUC5zPyokmns0I7XyFzHTASRpWU15GWNpAm48TJFky8GS9jFKyjYICcPjJfI/dVnKvgfQXvS3gtAaGr3WtYAdEpeIXVnIlKWMgrc4ZCPd52MHYZGy0Q2RsYJnH5FVx+BZFZoqiFwaEe2u021VrCwx8+zC//yofYvWcMLeDShYJLbxjy9iCRDKAu6oqYJ1SP5YjJiaKcQufwTLNr7wCbtw6xvNRgYX4ZISKyCWIK8mKOzE2BnWPL9gHuPLKHhcUpnnn2e0xPTyBGuvsTJPqt7wLEivRCWT3ebf7ezU+P/0pUECx53mF6coLF+TmSRKmUIkqJwRqPTQxx5ClyjzG6alN+TnhCEmL1KlhBILIWp4r3YclZkeARhZ4RDwimu8Y6BMFT9XgK1LVwvoM1VSLTT2TrxEkZNKLwHqsZKh1U2hS+SZ41wRegDnTV83IEL8QhdENt3dAXKGHkCqhYPGEUvahDtY1IB7RA1OG8RSUhiYU4tWASnI8givC+xdBQhY989E4uvnmFy29O0VgQJq/AymLK0EAFJYTv0LDvCFgDKhnWNmm2r1DrT7lt7yAvPH+JxYUcnxuixJJESjtfIHNlIhmhf3CEvfu2ECUFLxx7hoce/RgbNm4lkphwID0ICIr3hZrg2vXo8a7SE5E1hghYlFaes7iwwPJyA1eAtcHjMHTzHxqMqIEwbuu/2qf8u+yR6xqxt1BAcFjTDVl1jbtISNTTfVzEBIMtgoqiJsPhcUWKK6oU0iCyAxjTT5L0Y0yKlX7EhFxPp71Ca2WZkk0QCWuzO5dTFDnOZXhf4NUhOIwFYwRjwXYFrBCHM4oVQ2w8sW0R2QZR1KBwTYpiBqzFIRiJuzmcddi4RKuV05ZpxjdVeOTD93Ly1Tc5+9oFrk9mzM0WbNxoutVohtXwmhA+Q6dokaQJK81J4qiPXXtqvH4KGstK1g5jTeKKx7gM7xcQu0JscjaM97F5ywg//P7r/ODp73HbnsNsHN+MMYKIgO1eMYjv5UZ6rAl6IrIG0a53UeQFWZbjclANF+OucEARVh3UIDreB9vif67mZNVEAuLJOzlYxVrbfSxUThkrWATvFa8FeE9YuU9YDXFFVjGxQ72GfEjeIvOL+GIIY/owporYCkVmaCw45uc8jeUmeQbtVodGs0VjpUGr1aHTyWm3OzinIYEfl4iimCSJsZHgohYSF1RKZYb6UkYHqqwbKtHXX8ImYEwTlWlyDz5PsNKtKnNVkigmZxEbw4FDOzl48DZOv3qJqckWi4tt8gJsIqAWVQ8qiBhEDS53JFWP6iKFn2VoqEy9llB0PC4DjUNdnLEh92Mkx2ubwaEqO3Zt4YmvnePo0aN8+JFPMTq6gSSNeUusVr2xW8ONPXq8O/REZI2hqngHSZLgvBLHFudgemqBdjtH+yyKCSPSKSgKj7XBjP+X8VOUZ7V9/Ja6oLeJCBDHBi+eIAxBzAC8Dwl1ABEFUUQ9wVVSrGoY5IviaSImw0qLSEsoDYq8itc6cTREEg0yOlinrzLI9ZmC2bmcleYSyw3P7FyHGzNt5ueExQXL7GzO0mKbRrNBsxEqpApf4K3HxlAtweYNwu27R7n78AiH7hxkbLMlrU3jZYFmdpnElqim/ViGUQbJM4hrSktb1Pvr3HPfAV549gTzC9e4Pn2DPC9jIkFIcD5MAUgig3M5RoRWq0W1mqK6jBjHbXvWMz8zQ54VDAyW8K4J3uF8B8qeyFhqlQrVaoUkhQsXzvPaaye5ff8drEsGWP2WQxn1T/neevR4F+iJyFpDlSgWXKEMDa2jrz7ANTfBzHTB3FyTjWMVcAmuyLFiQ65B3l6o+/fHO981CIkoqPj/TDO2KiAeQbE+6r4uzKAyUqAUqGR4WmBWEG0g2sQVK6AVREps3DzC2JY+tBhFJcHlEa0WNBqwMJ8xO9tmZdmxuJgxPb3E/NwyN2YXmVtYYm52kRtT85w43uT08escf3GOe9/fz/0PlTl4pMTg+irilkDmcW4Kp4NYM0Ca1vGaYU1BWvJs2T7Mrj1jnDpxmekbDXJXpWIqONdENMGQgA+DL62xeGOBHGNbpKWIoXXg2oL6AsGgPlSeiYZeF7USyp8LR6cDpXJEFEWoD0KNvFPy//O+gR49fp70RGSN4ckxVhAvbN6yjfXrN3P61Flu3Mi5cnmW2/eOYCnhCkeURkCGjZUif+c7/T0g7xSRVcL2tz28as/0La/kpgbd6tloQljMKgeTIXhUIEz9dVjbQWmCX6Hw80FEbJlOcY1CY0RS4qhOWhqgVK/T7+ps3jaEpx/LAFmesLDQod0WWi3PylLOhXMTHH/xNK+9eo6zpy5x/NXrTM7cYHohRpNB3vdAHRvliHZw+TQFfYjtw6RC7hqIAaHDpq3r2H9oGydO/Jhr15ZptUYZGqxSuAaxjcGHcmcxYMXiRXDkKE3iJGHduojOisG5FZAKqhmGGGPLqE/xEpF1lJWlNihs27qdHTt2UKtVb4rIW7oh9LrXe6wFeiKyhlB16n0Hj0esML5pK5s278RGTzO/kHPhzWk6nTFqpSrqg2oooQT058utf+CmMtyyDUKJ0s+gqzahhyR8ZugOZSQkpHX1KtsoQobTAqcNRBKsTUmMYNTjnFAUZdT3IzKI6iDejqCyDmQYTI1qvcTgun7wFRbnLLh+fFGjlI6Q5SmvvtpkamaFZ4/mDG1YYdPWcTZvHcVIC1/M4/QK4ktEiUHJEFMmz5rU+/vYs28rAwP93JheYP5GxviGEqgi4lAJyxOHtVEEI0KhGd4pFkO9L2Vw0GJsE0VRaWFNhJUS4ksUPmF+doUrl6eJIs/hw3exZ88eKtW0Gxpc7Q16m5r06PGu0hORNYUiRil8jkpEra+fXXtuZ3h4iLkbLS5caLMwn9G3qQp0yItmKGjN+Ts61v/b8/aps3qLvVO8CaW14EMYTgTohuNufZl4sB6lANNGVElUIQKlhXc5RZ6RFx3iSoKNS8S2jlIntsr8/DRvXpjhuafP89JLl7h8dYIsMzQaio8TGssRF6/kvPhiizvvdoyNDZOkN0CXEL1O4WKMTzGmn0jqNLUgjpRt2zexe/cYs5OzXJ9ssXdvDRsJKh2UAttdT+WmqJoC7woA0lI/g8MJVppgVjCSob6M80ISVdCixMTVK1y9MsP6kTEOH76T4XUjBK9j1cULQtLzQnqsFXoisqZQFI+XcHUeJRF33XWEOw7exfe+O8W5s57LV26wccMQsUlwRRMT/zxtyc92cd7ShZ+sLb6Z9F0dBtl1lVQUb7O3v6sKSgTerv4a7lVBQr7He4fJwXiwJgGp4H0VcTWMq0MzReIyxBVuzC1z+tQEx185z4svneLkySmu38hodpTMQZYJWgixLePFcPZshxePLXDHgQ2U1ickxmNZItMpsqyCSQ2GMayNUJTR0VFu3387z01fZGqqQaddozYYPBYvFrGCuvCZJTJY64PQaxshptpnsaIobWykuMLhHFhTptVULrxxjaXFFnfc8X7uOHiYSrXSDWWtTgOA1aOvTrXXbNjj3aYnImuOCKMOrx5Dwe37dnP4ziP86LmnuPRmm6uXPc0DVeq1DioLJEkE4nB515iL5+3GXwhTGldLcd07nvPztkE/RYiC8/GOXwXUoF5RUW5ecQN4iKWMlRLepXhfRuknsSOYeAQxI5jSetTVmJ68zJkzb7K4sMKmTVsYXb+d+YVFLk9dYH6pSaMNi4vC4myOzx3TM8LpkytMXTUM1yuU+hKsXcIUc2QuIXJlVMdIbB8+71AtldmyeSMvJBUWFjLaWUqfVFC/EqrQjKAuBOlEwnh9VQWniM9IJMVGYRS9WBAs4iOcxkxfX+GNNybJOsKe3fsY37iROH5LJLwWeuuB6wlIj7VAT0TWECLBrciLhorkiCkYGkz45D/4BE9/+wlOnvgRLx5rc/hQzPYdZeLEkucFSQShFwPCcrS8dVNFXQKaBPsjHUTaNx9+q0Xup/Gztt+C/GSvwk0zd/OH7vusNiTeqisK4IG8O+IjPKgaMicAYhK0qFHoABJViKI6xg6CGQQZBBlA1dDOMzZsXc/HxzYiNqVU6iOJajQaLS5NnOfytUsstzpMXFvi2I/O8/KxiyzNLvP6iYwXj15j57YtVMoLRNEixE1EZ/FFSqsdkdrbMKaOjzx7b9vC6Pgg0wtvMrvg2bhxA+3WIiXbxrcVb8CIxXmP5orV4EXFYohshKqhUPCFoDZGkoTcR1y9tsyZ01cYGxvngQ+8n756hazd0ShOMFbE3BLCCqPhu8en13DY412kJyJrjKyTqRGP0zB9NrIJm7ds4VO//GtMTp7hxy8v8urJGdZvGGSg1I81GZ1sOfQOSGhAfBtvzeQAgRASCdve+dSfP6E8+CdRQLt+x+oTwv3qtiiJEBKQCLE2KJEpQDqoX0bFE5dK1CJLWrZgPHFsIM8Z6E/oHxrntv3DKJbFJeX9983znSeO8eRXv8+VC9Mcf3mC99/fT39/hXZmcTYD00RYQNwswg2QGkLC8EiZ7TtHOHHyApPTDXbvGsTaPiADUVQNKhbUdfchlBHgHd6HuFxkDV4iHDE2KtNueC68cY2FxQaHDx1hy5atJHFYl8X8DI9D6YYLe/R4F+mJyJojR4yFwoAGgzk0NMhjH3+Mc+ef58knvsgPn7nK3n0VavXhMEbEZaRxGKOOds2vCoiACkLBzRBW915hVUveAyhe2hiWUGmDbwNN1K3gWcBrGTFVjK0SxQkmilGxRLaE+ipGqhA5vG/jNWJoYIDK/q3UkkGs93zrG09x/sICJ09eZc/eLUTlfiDM6lLXwDNLoVNYWwITUyrX2Lx5A8dfSVlcdBSugjV95G4JKw4whPAhoCGpHg50KGMOM7+kW2lmsUmJGzeWOH36LOqVO++8i/GNmzDG4hG882qs6alFjzVJT0TWEKqFetdG8AgxisUaK1nudev2Lfzqr/0qly8f55VXzvHUU1fp69/B+rExSonB+0kkTIBCtNvVLhByIAWYW/VCQCNCUnxVYNYw4nG+QUGGqgWNUVKcpqiWQEogZYwtIZLgsRiJUF8iZh3WDKCiRFLgSVDxlEuWvXvWox97mMSu8LW/fYKXfrzIvR/I2FUfwZgM/BJCC9VZnI9BLCIxSTLOpk1j9PWVWF6CVrtCqTZKu7NIou2w4BddEafT3YewH2J8CHOpUBSCSom8k3LxwnUuXbzK2IaN7Nu3n1KphIhgEPj513D36PFfTE9E1hQeY0OWwpgy2i1Vcs6TpBGH7z7Cp3/ls/z73/89vvHENBs3D/LggxsYG4vAzeOlQDTCqCWU2YYkeigPDc4JCngDGgcRMSHksrZRkDzc1KBqUd8inL4JqjEQkecWJBQRiLFYSdFiiEL7kCTCpqFR0anDYNE0Zu/tG4jMQ1y5/AqTU1OcOTPL2Mbt1KsDGBoIGcgiXkE0Al8iSvpZN9zHyPAwFy/O8OaFJar7h4iTTYjOotoKn1k1HPRuDE9xYMLMMLAYKWPsAI2ViNdfu8T83BLvv/9+xsfHca4gSmy4KAiq9FP4ycq4Hj3+W9M7C9cYisO5MBYDFZxTFTyKp1bv45FHP8ljj/0SeV7mm998k2d+NMn1GzGF68f7Mp4Eh8GLI6w/7sNVMGD0pj1DoVsF9V5Au2LoMeIwkmFsB2tb2GgZaxcwzBLJNNZME5kpLJOgV7H2Kugl8s45Oq03yFpvUmRXieQGVmao19rsu30Ln/jUhxnbaDj/RpOZGcG7GoaUyEAkGVbm8f463k3ji1nq1Zjt23Zx9twyX//6Cxw/fo3FpQSlDsSgEUHk3vovFlZa9Jhu4t2aEqI1ZqYyTp28DKTs3bufwcEhVA0IhLH6PxvTS6r3eJfpichaQ1fX4wBXgO86Cl491pQY37SLX/rUP+Xw4Q/wyvE23/rmZS5eUjK3AeeGcb6KxxKWlH2HAVrVDLnlyv6WINdaRRBwgivAOcV7RX2B+gy0DdoEGljTIjZNYtskMssY5nHFBK64guokVmfwboq8c5k8u4RhCnSKSrXFBx44zM6d27g+nTN1vUOnXUK0giVCjCIUCEugC7hinnrVcvv+21iYtzzxZIuvf+Mkr52aYHGpCCE3DCFceKuIgIqACW6hdzF5xzJ5bYkrl29QLfcxPr6ZcqmKtRZVpdNp33z9rfQqsnqsFXrhrLWGQBylqAcbhd+jKFQj5c4RSZnbbjvMb//Ov6SdtXj+hWeB5/jn/3Q/e3eOUK61UDODSTp4FxaLMqthrBCYDyJiusO2/Or2d5/V8l6gG47rbveAWOzbPqcHURQNH98ogu+ubRKeYQUwTYgzDAbns26oKaPd9PgkJ45btDs16oOD/NIvf4QvfekvOHf2Gjs3j9NXrgBN8ixDUeKkoHAr5PksygLbt6znrsN9vPJKzovHcjqtK2SthEMHyqwb7cPamHbuiWLC9xgLvsiwcUxehBLfTttw4vgFJq8tceiuzWzYsAFjLHEc4wtHqVTCu0KN/ckO9Z4X0mMt0BORNYUBuhYHQnEV3BSAyKbkHcWQsHvXQT7zmc+BaXP8+It84Qun+NVP38aRe8cwpsBlDdKkQL3HA6KCaEwwvt2KofeQCRK1qEZ0VY9QDOCQtxUFhGlcb0McmNXGxTANAK9gPK5wGJNh7RDWOMbH69x95ABTkxeZnVtmeF2EjSpY20LJEC1Q30D9Ar6YRtWy/8A4GzdaKhWludxgarJBvboIJqc+WMLGEdZ4jOjNAjktHEJCFJW4PjXPhTeuk3UiBgb6qZbrRFEKYuHmYl/voS+qx//v6InIGkIkEuezcGndzVcE86GgJlRqtZ1aA0NDQzz44C/gfYuVpQ5Hj76MmEsUNuHgwUHK5RbWzWOlhXgBtcjqiJLVZO/aj2R1EVB56/NLOB7hXrsFAxqeR7hf7ToJOSEN2zXHqAZhIcf5FkXRBObxukS5MsLhQ9s5YRp0igVaHUuSplhbxXgPYrCmoHALKNOkpZS9e/uYmFhg/74dGBZZXnyDJF6iXImJY4vaCKFAvcN3+wPVO0xkiE3K5MQMF9+cw7saffVBkqRMGBMf9kOMWd2THj3WJD0RWXPEWCPifXHLpWso2/WFKsGW4fKCvlo/H7z/F0iihN/7/X/D0RdOkPkLmGgnhw5uIolKZNkUJlKMhuT8zXJez6pCvQdYnRvlu7fV0SjupthC0MawUxJ8klVdWVXLroAILQwZNs5QyXC+QbuzjNcWIyOj7Nu3hUbT4G2TXD1ogvgY8/+y92ZPdiTXmefvuMdyl9wzkQkgsRYKOwpELawiWWRRpChSlDhqqXvMul/bbB7mb5nHNpsxG+uZsTFrjc2DZqQxtUSpxbWKxWLte2ErrAkgAeSeeTPvEuHuZx48biJroUSyJLEMvB8skHeJ8AiPBM4XZ/tcwFpHzXbxLOJCwfjUOrfvzKPUGBnNmByvkyQFSWrxGtCgVckvhAAGQURi4hxhZaXF+logy3KGh0dI05xQ8Z70l8QdYIDPMQYk8jlD3yZK9bQc3+SIMaJFpQUiAdUSLR0TYzN87dk/xlHjz//v/4W33n6JNL1KKPfz1BO7aNYtISwjbBHEIwTiOromOiQ7T/q5hiLi6OdCIKoAg4JEmlCIieuqNHqbVLbvKYhGTasoD+NR2qS2h1JSduPqgnt2D9MupgmsgLRwvoMEi9UStV3EgnNtXFhgcrLGrpkCY++RZSPUshJVh/eCV4PJICbZoz9hTGxCdN7jvNv2Tmp5nbHRCbK8vr3PTgzWUx/g84oBiXwO4UNQpYdQEo1ginpVHNGAakmSKeoMvmdo1qf41rf/lHx4lD//P/8nXnv1BUJxGRMO8KVnJklNCzVbCA5QYqNhFk9me8DnvFdEFHAV1/W9EB7wwwOeABQkduQrBg0xGxIPCZFEJWafvI8d5JqsY8ThEXqdjFpdaTRTCq3hizYaEqzJMPSJfYskAZEEY3KGmkq3u44PXWKqv8QmCYJFxRN89ECsMRAMSsD7gDHCxMQYo6OLbGwm1GoNrI3/JXfmQgZ5kQE+zxiQyOcQ1hgJ2tVo6gRkR2hGNK5PYQImzVAnJLnQbRm+9uw3KXtr/M//aYHXXr1As7HA6OgkJ07MkorHmgKREuMVUYtogpoA4nmQY4jn+CfRz09s49ONnIrGYbfH7B+nPPAq+h+ZHd8/gGyHsOLuEkCkCmzFh/xIItuMIsSsiEfVomritESAEO+qQGpBEvDBE7RNLW8S/BoaBEsTkRLVgAA2yUlMADxBy5izkJIk6bB/X2wIrdV6hMrgWxvJqyg9op40SzBG8N0ylnBrjTxvsHd3k5mZGp2u4kpPKAPOOUQEMQl24H0M8DnHgEQ+Z+iL7Qkpff2lvrpvH1HBNbJK1nxgZLZ66/rcV56jtf4/8n/87/8rf/+DiyTpEv/xf3iciQnP2HhAiyXEO+oJ+DLERHPfEsMDQ/wRhB2v43njfvH6ouBgfwzZ4SkooaqgUgnxGK2qzySKFX70VAZCigZblep6xCjGAuqxYklNDiEQXI8oZAiFQllCYnOs5ARXktkSVzhUBLGWeFf76XYBYheNVhFDKwphHUuH4FYoe6Nk+RBpphTeU5ZdJPFR6BLIJE5XSxiqV1PXeJ8EIXgPWpJJihgBX+C8x9QS8AbjYhn3yJDhkUM1LlxY5JWXX+bRo2d54unHyWoWRfGhKnyu7lOfHONc4t/mY/8+BhjgXxMDEvmc4h+Lf3/ad15L7fa2GB4e4xvf+GOWFlv8b//5P/P9v7/O8Ljhe9+bpNEcxrJOPRfUOaxJUSBsE4hEw74NrbaPQ8FE7+DBMdxCcl4AACAASURBVIFtzwm2x4nho34YSSDG5NjZSQ9UVjiq3xqxROYAKmn7YAAUa8CQVE5TifeKWIMYi9dRgksIxSZJDnmuBA+uz1XbfxkezE1BTfVVSfRUHGiC+hgGM8YTTAD6RFhRkcS3QeJ+CtW8Nc5PPdvaVybeD8UhYhAL3rVpNBvMzlpqtVXefucF8mZCqf89T3/pK9TqTRTFa8BKRdhEDyciEskAA/w2MSCRhwSqFiM5PnimJmf4zre/x62bc/w/f/F/8V//6kMO7fdMTTQZHx4jZJtocKTWE/olstEE9kfbJoHt9x/HtrEE8HGXKqktsO3YxFBUH4rpv68Oj68FxRIUVB0aHMHsSICjqFFKAsEXGJ9jNENNjqrgfQ3va4iMghfKnkVCC82iJxOvcecJ/zEoVOcJ0sEYEFNirAcciiIYVCGG3wTURk8MReiBiQrA8UaYSCjVuYMHYxRjHb3uOs3hGgePNHn05AoXrszzws//mqwu7JrexdFjp8kSs+MexvMpFisiqu5XmdAAA/yLYkAiDwu8kJgMpcT5kgP7D/Pv/uw/cPGDt3np56/ywo/vceTgEcbOzFAWjsy08dqrQk87bNFH3v8TNuoTj8HxWNnxlfJRPjIat35boKqgsWyKJIkKt666Bq0IQFGCNXgygm9iGcbQIDiLCwk9l7G2oawuF6yvLGJDi/37hdk9TfJaQVQq/tg8P4HqOwmICqqO4HuAYkwJlITtPhNBVEANSiVx0p+PFHHusrNYIZKICJEoUcQUFGGVeq3J3v2WJ75Upz5h+cE/rPKjH/0de3Y/wsjoNPsP7gUt43iaAfbBpUoyIJIBfusYkMhDAmOgLIU0TwnBIUnCqVPn+Nbv/xkX37/Ia69s8uS5dY4+coRkaBOSgl7RJU3hoyb/17BJO3fd8XonaezkGdHqWXrbABtiiEtRcZTe40I0tMYK1qaI1AiaUvqUwuX49hC+26Tbsqytlays9bg1v8r8nRa3bvVYX25z5BB897tjzO4dR8wGysaOq/jH5qdAJDTRAMGj4hBTgBRRs0tARFEVUE9AQAXtexui1RD9e/nReypC7AMxPURKgqwxPp1w/EyNpJny3vsd3nn9Hj/4hx9y8sRTTM+Mk2QAgmqCaAxrea9qf8liVQMM8K+JAYk8JDBWpNf1WhY9ktTgXGBoaJg/+u6f8vZrr/P8T/9fXnlpg6eeLDlxahgXllDTD2X9Elv0Sz4GQC1RqTaGWuKulcGsbOb2Kop9GyqgxP4OFUUhGmGJmQgsSCKIZiBDuDBCt1Njcyuh1YWVdc/irZJ7N+9zZ26Tmze3uDMfWFjytNueThvyFJr1HGNmCJrj/RbGxjNtQwEMaGA77rb9RXXNVESgPm4oQeNhYkCr7+LU+l5HiK8fcAbbIS8A8YiA92AIpDVFZYOhkREOHM7wJuXosYSL75acf/c8Lz7/Cx49fohDR2aq88WB+yQdCyx2hgsHGOBfHwMSeUjgSlUxntI5rFjUKt4H9u8/zFe/8h3eefMVzr+/yIeX1jh4eIhghFpNP2ZE+6/7VkoeWKydUENcs/0BiUCgH/sPEmLISgDtJ4IlEoipjlBBNcNTI6hFsTgHhbN0uzU2t3KWFy13bne5O9/i8vVFbt/uMX9TWbkP3U2l14NeAS5AYsFIJJHh4YyRsWmwG3GZ4W2r/vG5yMc+e7CfSDWdEIkhaPSQRONecXGsDCWJ4S/xIK4iTk/0ufqhrmroSrMrhBjSyzJLz3XJanWmZ5p0y5TZ2YTJMeHatSVe+fmrPPfNZ9h3YJI0eyA/WUXUqvMEBo2IA/w2MSCRhwRJKqKh1DQ1BBzGCKIByVO+9yd/ygsv/D2vvvxXvPrqPKcfP8jJMxN0e1tkNsb5HzSzSfVa49YnmY+RSYhZcEARG5PgQT3ee5IEsP2wS//J3IAqZRCwBg11StfEmEmcG2a9ZVhaLrgzv8XczTZXrixy62aPqx92WF6GzV4s4xUH6gS8JZAQsAgZXVeSpx3EwOyBGRrDik23sKZETPgoV0B8socd864gcV4SYmWVqsMXnmD6UxJckYMO48ucXiFkaYrTAtUuadLFmi4JgoiJ+XURxNiopowjSwM+xPJnYwy9botu8GTZBE+cO8XFt24yd+M+czdv8s5bb/PY2UeZ2DVOmihWoKxy9ol1kZirENcAA/w2MCCRhwSqTtGYQI4UoGA8BGF0fIyvPfdN3nv3Ra5d22D+To/ZQ5bGUALlJ4lCofIedljeqgciQsjyBA3gvSOox2mIPR0pKELPOYwI1mR4jSEcsTkqTXxo4MoGa2uGO3dKbly7z9xcyaVLS9yc67K0CPcXoduOxNHPW2sACQbxNZScgCGgsSQYh0eRRMgaPZJaC0nWETpEL6m69E80Se6AVHOUgMFXYTcfC6wERA1BGxAm6HWGuDvfYW5undZ6m0CXZhMmJmFqCibHheGhjCSx8R5tLy5lUIm9NP0/SCCxSp7DxETOsUf38PrkGveWr3P5wnssLXydmd0zaIi1bWkGAcWH4lMlUgYY4F8TAxJ5CLAdG5dYfgoghBhiMZDV6zz39W/yD//tL/nw6o+5fHmTY6eHqdfHUDbisro7HsglmrYK1avtHeL7styK5xMBiaQVk85Ckqa4ntItDNbUQFO8txCG2dqa5P4i3J5b5dq1Lc6fX+fyxU3u34e1NVhfAyQl1hwpQTyoxrREEERz4j9bRfEgHjUlql08is2hOdIjr20hZhO03MGFO72Ona+12vqvwYgDiQnz2KMihJChYRTR3dy6scUP/n6eS5d7pAnsmc05dLjGyIjDSCd6HwJBPbE3JJ5PNQa8VKt7ZiDKoBQU3Q3yfIJjJyc4+8Q0P/nJbd5593Vee+0VZvfvY3i4FkNZFqw1UhTLaszgv/AAv10M/gU+LFAFMQhRmwkqXSjxuFCw78A+vvTlr3L1+mtcuNjiq6vTTEyMk9sSkS0eGNUd3gew/XReGfX+phoXuzK2OlIFHwwhpDiXQ2gi0iCEJr7MWF3pcmd+iyuX73HxUpsL55e5txDo9iDPU2b3TVKvlXS76xRFgmj0AhAhRIsLaogyJDH3IBJQ4ytHyqMKxgpDjYzUegjlR7ni43PbiR3hOkERPIKgpsqPAEoKIWdtreS99+/ywfkezabl3ON7OXZigv0HhxgdXSFN75KYHqqeQBk9NEMkJa0IRKozaeWPhLjglQv3SfIOu/Z0GB0PzN2+xYs/+zEnTz7GuccnybJ8+1JFduRcBhjgt4QBiTw0EFCDmER0W61RQRxiAja1PP30s/zkp3/Njavvc++OcGD/BHltA6Qdj//4ePBRu7ttaBVVcC6AE8CCyRCpodpAdARXDrG+LizcL5m/0+LyxSXef6/FlQ9LWhsBSWB6Fg4/WufI0YPsmz3BW2/c4/t/8zZzcz3UReMqFtIUfAmRzjxR0t7H7PS2RQURSK1QT0cwKqgTtu1s/9Jl24J/CnZOVoEqNCiV4SeunLi6tsJ6a5MDh+HJJw9z6swBhkY8WW2LPC1JrSU4RaUgsaGq5oobAkLMO6nGoCECNlGGhgyinpWVdXbv6zB7EN5/v8dbb7/P66+/weFHzjAzM0QIoD5o0E41l182nwEG+JfHgEQeAohY0eBVqoUrRKwEjWIfKpAkoEE4cuwEZ06f5YWfvc+VD1ucOTNMPc8RLA8MUTSe2+8/Yp+ikRU1ZEkTgsEHQUwO1OiVGZ12xuqq4c6tFpcur/HhxXU+vFxwe65kc1MZG4cTJ3LOPjnBiXNN9h9OGZ0YI00ULLz+RuDO7UBuoXSGEAuQqlP3L6Yikv5lakx6J0BuDDU7jXEOyiYYx4MSXOLO/5TRrcZEiV6IAChBCzwdHAVTe0oeOTbJ6dOT1IeWSWstkqyN725B6TBSYm2I6i0CoaoviI3tkZxAkJhtx5hAoxloNhOybIh6Yxcqi2xs3GJh4T6/eOklzpx5huHhcer1WiQSIlkN0iID/DYxIJGHBH0CUa8qVsRIIk7balQI6siyGqOTYxw/eZqXXhnh6rUOK6vjjIyWKIIRoV+iK4D2E/QS4sP+zuosFVyR4J0luAwXcjbWDXfmt7h9Z4XzF+5z6ZJj/nagvamsL0NiLceOTfKdPzzBY+dqPHLc0hxfQfIFTDpP0Danz9bZfwAuvAO9AKWzoFGIUHHE5H6lc6XRKPeNvTUWaz3WCjapAz2gkmOv8kXVxRO70uM8tgllhzyJKlEPK54Bpe8FBaDNyIhy4mSd6ekxRkZbrG1eI7UOBLwG8tSSWgMmoF7xMb2yHXiKuf04qmAIakltrATr9RYZG7PMPPMIqZ3k6uV1fvb8Bu+/f5F333mTo8eOUavvjr8lzQjqMfxyFon5sohBGfAA/xIYkMhDBqm6mEPwqsFhJKFXdknyhCR3nHz8LKN/+yhvvHOd/T/d4uiRknpNqNVyavWcNLWYqmTXGkPAY42SZglZmkRDGaB0CZstx53ra9yeW+HG1S4XL62ysOrplJbZ/dM8+ezTdDaVuStXOH1yhu/98Um+cLZHo3kTMUuEZBFYIbgSF9pMjhzgicfG+fHf3qfjDUma03FdsA4UjI8ZH9BogqUiEqAoPOSQNRS1LUxeINkWpbhY0WWqulhA0BhiCgoq9LvAo8JwFTRLAl5AVDHGYknwEgjFFpkJTE8kDNcXSUQZaXTxJaCxTyUExamCixE3IwbDMEENzvUItouagJc4Dw01pFeS0It6ZqzQbX3IscMn+MM/eIK5a7/g2tUb/PBHf8PpsyfYPfstjMnptB2NeoIGjevNEK9BEhFfevWhWiumH0eroF5VA5i0yvYPMMBnwIBEHhIEr9qXkd+GCKglz3NUPSLK3tl9nDzzBW7+/Tx//ucvsmdXm9TEsEuSQpYasjzBJoY8S8FUhJIISSLYJPY/tDa3aLcd7fUUCSPUs/0cPPhFnv7KAfYf3cf+Qwd57+0rfPDO23z9W8/yja/v58xpRypvYriLmC0MmyhdorR5m5EGHDkyzSOPLPLee0rhCvphK9G+GZRt70I0GmGMgRAwpk8uBZgCsdFziXIhQtSzigOF6vZss9C2n1BVZAkEiV5JUu1s1JDYQCOPKryqJcEbrDQQG9AgBE0wGHwoSWyUs3eloMEjJoANMccixAlVtt9gsMGgIYBpkdoUW1/m8CN1Tp6aYO7WXeZuX+ODC+9y9onHmZzaC9Zgkwe/c3WqqsRllEVJbArqY4WYCq7oqTFpnOUgHz/APxMGJPKQwhgrPpQKggaDCyXBK1OTM3zr978DWG5c/ZBua51et8fmRkG7U1CWDgiICXinYKKxFQNJItRyQ54njE/uZWQ448jpfRyYPc2e6ZPM7jvKnoP70bzH5WuX+OlPfsj8net88/f+DSfO1LHZeUK5jEgbKHnQlwEigSz3PHpkmtNn5rl4eZl2UWKtoBhiFZPhQRe4EsNbGl0SAsFB2VOKnsP7SACiBqNxQajIHNGrEaFyZcyD8QggARElSrhL1MsioOJADMYmJEmGmBreJziXI7aOklCWiuvncWiTpSWJ7RC0TWJLbOLoS9sLsN0DqQ6LwZBS+CJWnJkNsPfZc3CWM0+M8vrbC8zNzfP6G6/zzJefY2JqN0mqFN5p39uJ/Z8VK8ammiidb6r7J4qqR9UiO8OTAwzwGTAgkYcEn2YShGj9BRAjeAxJYnn88S9yYP9hOp0unc0unU6XzY0Wrc0NOp02ZVkS1IHGsI8RUALWWur1nEa9wczMHkaaQ0zP7GJ4aIrMDpNkdbzAe5fe4K/+8r/ywgsvMzleo3SLBCxqbiF2GaVdeR8hXqWCkUAILSZ37eLUmV389PllNrdAxeDVEohP8EYTHngNAVSryXuC9/S60OsUuBI0B4NgVZBgUGMR7Y8Tq6NQgyKR0GKiJN47jfdPUKKYYkAAa1NCSEAbJOkkIQyztm64d6/F3btrbG4meJeiAZrNwOSEZWq6zuQuS7PZw1R5l9jzkoCmSMhRhRCiN4MoKj265X1svcaBIwmHjjW5fmuDS5evcPHSh5x87BzNRhobGb3BmgQjtvKQtCITpfQe1bgUr7UGQVEt2V5DZoABPiMGJPKQQFU/oexqTCIhOBVjUQ2ARRAmxqeZGJ/GiBA0SpM453C+JPi4xghoPEYUVAkh9mykSUKW1sjsEFpakjQmj4UESQyrKxv8w989z9/+9Y/ZXO8xOWpYWrxDpyPYdIFEVqMnogbER7stgoon0CKrtzh1ZoJjx1MWFks6XUW9iY/uogQ1PKgmC3ETEGJ5bFkqZeHQkGFIsRSIhkhSWu1HJIjY6Wd4sHSvxmHjqSrvoLoX7PCaTIYPTVobKfPzXT74YIV33l3i2rUOK8tCr2swBEbHPKdOwZe/MsypsxlJ5qnlJaIeCRY0w2gOwSIEjEkxohgrmNTQCyBJh4mZYQ4fHeKtNze5d/8+H3xwmee+sUqtMY4YxUqKBsVr7JUJISDEcUQSfCjxPnpT1pg4OYSB5tYA/xwYkMhDg74h/CiMSaQsYybVWouqkNhMyrLQMgTEClhDYmskkiNUI6lGgwMEDR8dXS2pzaTsqZJ4+mugb7W7vPnWu/zsZ69y6/oClgbdTUdrtUNwAdfrYrIOxnQIpIhINOgiiASMaaMs8ejxwzz+1BQXLt5l/s6OM/erpxBiZ371nWi1gXNQOk8IFsgQCgyO6IdVXoAKIja+fDD6RyAaPSQRg4qv/KYYIut0S+4vLHHxwm1eednx6msF1685Wi3olaACVmB4CPJceOKLYzSGamS1RZR2ZcM9og6Dj3EtLCJ1QlnHFxkiDYIzONckz0fYs0eZmt7gysUW16/fYm21xZ79ExAU7x2m8jJN9QwRyUTxzmNsUul+xfVaRDxGYm5kgAE+KwYk8tCgH8L4JNL0wdOmc0GdC2oE0jQ2KXgNqiEaHfpjqKJqCKoIaezDMEZ8COoDlEHVeU9iSjSNHsXC4l1+9KMf8PZbb9PreRr5EN3OEvfvrrOyuMn4eAObRJpSoijWg8fggNDDuQVmdh/i2IkhJqdgZVEBQw9PwIFxVDokRE/Eg3pUPUGi1lZZgCtTgs9QY1DTRSR6LBF98iFafCCGyGIzh0jkJINgpL8fBI3eWafTY2mpzZ07BXfmAxvrYI1hfHSU9ban1W7hg7K6Dmsb0CvreJfinCVNDPG6FUMJJobJnBfK0tDarNHppCS1cbaKjHaZ0d4aZXioycjIMs4vsrbaoug5EnLUeIxYgnf0ijZrq8vM3Zrj7t0FBMPBA0eYmZlhcnKSNEtRHNFZNQy8kAH+OTAgkYcESZL8SgYhSarutgqhVCW2OHzEpPcNpyX+xEEo4r5WKjMsBZ5u9V557Y1f8JPnf8jq2hJgcM4jQVm4t8X6WocQLKmxFCVICOSZxSD40Pd0Sianxrh77wKnz+zlqSfHuDO3RqfTBVNdTPBAiRIwEivHlBJTrYKYpJ65uUXanSmmk3GUDpgeIUDQWIEmAq4IqBJJot9nUYXYIJIIAVQ1fixgTKSaeqPO8WN72b9vP0ND96nny+ydfZaRkUd47a03+dHzP2V1ZZORJiwswOpKB2GKUG6CdDGmRLXAGMUmsXKrDEoRlMVlz9tvzHPj+m022nUkGWFk4iBBJ3G9DO8CzaF6TKQ7IfhAwNMr2rzz7mu8/PKL/OQnP+H8+UvU8ianTp7jD/7gu/ybP/m37NmzC+f6isSC905tZPUBBviNMSCR32GoVyUo20/mO0kEHnz8KYghJcF5COqZu3mbt95+k1u3b9Art1BVfPAYlOWVDe7OL3Fs05BlCVWULBroOBhGooPR7a4yPjGDauCxL0zy6kvrbG14ykC8vEoYMXpKHnCoxAIA72FzEzZahk5niHZXkLBILbckKfgQKHtRx0oEjCiB/sDEn2rY9sY+FUqtltIFSrfJ7j0jfOcPT3LyxHdQJuj5+1y6moCP/7nUKXduzHP1suXwIcfERB2bZ6ApRehgXCCoIUiKzYbplZa7d3u8/65y/kLB+uY9pvZsMrNnD8uLLQRHcC1c0aLstfG+YG7uOj/80fd5+ZXnee/9t7h1Z4XgDOgqy0tLrK6sktiU7/3R95jevQvDPzXHAQb41TEgkd9hiBVR39NtWRCF+KxNtKu686fs4BqLqiWxNQhK0ety8cJN3nzjPdbWV1FTggUxCgaWVja5fXuJXrEHpY6RBBWPEnMM/SS3Rel0HEOjPfJsi1OnRnn0WM7tO10229V1aBR+FA0ocQyqyxOBdgeuXO1y8VKLyckpRoZnCSR47YLtkKYlInHBrhCgnziPE+0n3WPeZTvX0p828byiJUlSUK8X5LXA0tINLl/5Ma1Nw8rKGxycLZkZqzHUTBhpQCIFVy9+iA11EhnCjmfkWRKrxaTEGiVowlY7o+dqzB6cZahxCNXr/Ozn73P9w03m52/Qc3HOadZmbe0Gb7+5zqVLF/n5L57n7XdeZXH5Hkrg7LlJZndPsLzc5cOLy5z/4C1++INdHD38CFNTXyXNErzGQokBBvisGJDI7zo+0XVWGZa+8ezbmR0GRxCCU2wmoClbm5t88N4Vrly5SVFWqroGPB4JsLIC1687WusJk5MNkrSOSIdYMaZE4y0YCeRZwLstRHL2zo5x7vEp3nn3Nqs9cFVXuCBYiZVl/RGCgrUG7wLnz3f5yY9vMjHa5Ny5vSRJRlGsEVgnSbukWQlSouJQBNFQXcNHESRS6nbaRInhs9DFmg5JYum073Pt2hqq7zI8PM2RR+DJp/YyXM8YaqY0a4J3K1i7weiY0mh40rwHxuPKAsVgtEawQ/R8jUIT9h86xoljz3DnTpNXXrvBaqtL15VIAmkON26+z3/5L/+J1oZn7uZd2t0lbFqyb3+Tx5/czRe/dJbM1rl9a42piWu8/OJV3n37Nd564xXOnDnF9PQuJGgUpxxggM+IAYn8jqBfzvlxLSUx6cdt56+EXhE7DZzz3J1f5N23z7N4f4Xgo/eBheDAKbTbcON6mzu3PLt316gPpyTGEbSHagyMoYayCGS5pfA90rTHyKjn7LlJDj5/n7srJUUJqgYrBiOCqkEIMRTmQMVgjWFp0fHzF5dI5APaW7OcOFVj9+5Z8sYkXhcoyzWsFcTEUJyh8jCgIilitzqRQB74InGHNAkUbpP21irGtnj00YTRsWH27J1mdARGR3rUah71bbI0gBqggTElxhaI7VC6AjUWY0YxMkGpI3QLaPd6bK3fY3XhJc5fuUDPt0nShCCOyV3C3tk6zaEeq2sXCa7B5FTCsanDHDw8wuzBJoceGaXrVlm6f43RsUnOnNnDtcv3mLsxz+1bV+hsbYBOMAhnDfDPhQGJPOR4QBqKqtNoEuNH20q//RDWtrl8sM9HP9/xXgsAXGgzN3eNixcvRf2qaJKxmcbVDLFoUG5fb3P5gzbHjzdIawlJ1u/1UEAIQSjKQGoMmIBID5O0OXhojHPnRrh0fZmtLYMjQUjpS56IAGJQFYLPMGJwvsvtWyU//MF9Fu+v88Vnanz5K4d59PgYtcYIYkuCeqzx2H7zn1S3prokBVQkNsNL/Bri3QKHdy28K9mzG44f30W9MYExPTJTkCWbGGkh6Sax4iuWJGsgBuDUo1isHaHXHWF1JWVpo8NGz5LWhmmQsby8xq69KbMHRrh2fYG8bvnCuRme/vIjDA8ZLAlDzd3U8lHq9QaeVTa2rvPee69w7dYq+/YYnjj3VZq1IXbvzllZDDTqhnpuASV2rH/89zrAAL8+BiTyO4MdFnLHZ/H5O3zks08al48eA4oRT1l06XW73J2/zfz8XPQKELzGRj3vA4ohBJifL7l0ocvvtUYZmczxONASxcWiK/XkqQFR0izDdR3IFhPTozz1zAw/fanF4v0C7UUFXsVU104Mi5kUIxnOxZLkbuGZv6esrna4cq3DhYtbPPHFXZx+bJoDh3YzMjJKnm0gZhOkjZGCKhNSEYeilQQKED2S6jaUrsQHZWgIRsdShsZAwxo+QCOzhKKF92vUG7G4wBVClmYEEpwPWKmjWqO1VePSxVVee2WOm3cUZwRjLXk2zMjQYb7ylSeZGN/H97//PDYt+erXjvLk07Ncvfo2N6/O0cinydMxNjfb3F+6R9d36bkeBx9RvvrcaWb3jHD1YhebeLIsZXhkhFotA+MjqcXpDDDAZ8KARB5y9HsBPjWcBSSf0isQduwD0E9eAzH8pCCSkgTD2sIi59+/QFm0gR4WT2ItRSuusV5LAOdRa3jlret8e36Y4RnQpE6egJUtVAvSrApLAUVXMZpg0x5lmOfomSZPPFnn5rWC0HUUroOxDbKkSbdYr7yIEg1bQI6S4DRDXQ+vcPEK3Lpb8OKr8xx9tMuTT+3ji09NcebUbsZGFmnUFzDJOqWPeY4QhBAKrI2J/z6iPLxgE6hZoVav7k1YiA2GFkovWAtpEnAewGASofSe4BUfUhIZwvsRLl26w09/3OL+fCw9Hsrq3L7meO/dBVQW+OZ3hpmcGmJiQhmfqnHqtGH/gTWGmiWdzU0uv7fJxgpkOTSG4dghOHk25/iZPQyNGHrdu3hf4lybLB8lzccpSVFTElBEGw8mN8AAvyEGJPI7gj6Z/CoNZuYf2cd7r6KgzoNXXFHQ2lxm13STztwq3nsoHgiTCAoWemVgfgFe+NlV9u7fy+TYGGU5T5IWhFDiPFhT+TnBgArGlOQ1ZWzS8vi5Gm+93OKtxYARh/cOLwaTJAStlsFVHzeiHpbHYCTgFVpbsLElLK+0uXr9Q37x4vucORX48jMJz3yxyZ7ZqD/lgkdIMMYSq9YqFlEBEbQqLwYFUWK3PhipPoLqL1NtfQhiDWmaEXzC7TtLXP2wxcxMna8+e4LR5j7eev0Gd298yNiwZ2XN8ubLL2NrhqXVDR47N8n0TJvpacfMrozxoRmefSKjswU2MQwNpBSCQAAAIABJREFUZwyPW0YmAmlT6RabbLWUjY0eW5s98mwvo2P7yGvjKB5Vh8QLHWCAz4QBiQzw60MUjNILbVZbdxkaEZ7+yknWNldYWW6hQSEIQQ2ljw2BKGxswM9f2OTcFxyH9k2SJG1U26gh9m4EIFhEM0QtEhQSz1BD+cK5fTz5xQ6XLm1Q9qBXligZVOq1EQGkALXxNVEvqw/nlI31HlutwNJd6G3BoX2KPpmhocQkgncududbg7p4XF9by+g2pUTzu122JfELqUhze694q1AlhsoM3W6XjY0OGxsFu/fUObD/FKMjB7h6eYmbd+ZojHm+cWKWZmM/i8tdXn31A4abwqOPpoyOdxGzQm5L9s02sbuncKWC9LCpEqRHyRauDLgioejA4v0t1lZLxkd2sXv6CPUsBU0J3lVEOcAAnw07H5UGGOBXggKSCCb13F+aY98j43zz21/k1GN7qDdj1ZM1gpDggsFVMiUhwI2r8JP/tsCl813QXZQ+w8cK2+phX0gkJTUJEjy4DkZb7N4jPPvcfg4dBjFQzxQNPsrV90uoBKL34Kqf8ZwIiBjAkiY1jECWwqGDDU6e2M+uXbsQESIJwQP5GIuoxajBVB8JSr8UwYgQ9b8MIgmyrTAs1fZxBMBhjGN8os7pU/s4eHAXC4tzvPbGm4jt8d0/OcS/+w+n+bN//zhnz+0mzwP7ZzMefbTJyHAb7+5SFPdQv4KwiJH7JOkiIgvACsZ0sKIQErptYeF+QXtTGR+bYmpyJjZlOkH7XfoDDPAZMSCRAX4jOOdI84yVjXuMT+Wc/sIBvvaNU4xP1mP/RlCQBMhQjWTiPWyuw0svbPLSi3dZX60TwhhKDecNZQDnA6qBRBRLwGqB0S3qtXXOnhvj8SctaaaAA3WoGkTtR12EfsUVIBJDTRoEqiR/CDA6Zjn7hVkePXaQvJbhfWxCTFNQPMEFJBiiEGMM/BiN4StBMaIY4rojIiYSDZYoDPlJAokeiifLhNHRnF1TQ4yMpqys3OLGzcsE2px7aoInn5lh70GlObLOysplrJScOJGzf1+dRr1NmnSopwVZsoU1qyR2FWGV4FcJYRNrFENKr21ZW3YsL/RAU3bP7GJ8YgiM4NSBOHZ6TAMM8JtiQCID/EYIGhCEVnuNxrBlfCrja19/nKeePsTwSFxiN3ajp4hkBDW4AM5blhbgxRdu8cor82xujhKYxJOjYnAEfOgABYmUMVFPSZa2mJru8dzX93D0UaLulHiihEcCwXzUJlZ23ACiFtWE6DHEJPaBg0McPT5DowmlW0fpEoihrEg6fX9C2V5PRGI9mEjcYk5k5wafzDP03yuxudKjlFhbYm2P+4s36XRanDw9whNPzZBkWzi3wvLSdW7evMn4hOH40Qa7JiwJXYwPpBLAlahrkZgemQWjnuA8obCoq6N+hG47Y2W5R5Y32D07yehkAsahdgNjehXZDjDAZ8OARAb4jZAkGRtbm2y1txgbH6JWE44dO8C3/uBp9u9vUqsbwBEruyxIApISqGHtGG+8vsX3//YGd24ntDsTlG4Um45gEkswDpUOYuLaGyYErGxhWOLppw/w5FMN6g1idZcGUAuaRhLpE4lC9Dws3sefAMZ60hx2zzbYu69BWu+g0samMTQWgsFIDEvFpHlge1ndT4MEBB/zPoRqvr8EAmlqSJKAao9ud4XVlS2mpnLOfmGc5kiBahdR4erl89y9U3L2bJ1z5/Yw1ACch6KqjlOwNiDGU3YLBKGW1kltE1fU2Fi1LC8GWhuevFZnanqU5pAg0sPYLkZKYnhtgAE+GwYkMsCvBWutWJuIItTqDVzpSZKUxCY06hl/8O3f41u//2WmJptAgUhc49sYizEpQkK78Gy04JVfrPFXf3meG9cTSreX0g8haY5JodSA2EAtryEq4Ho0647RkR7Pfe0QRx6J3kCaRg/AmhpJ0kBM3yMxQIpSQ7ROahsonsL1aAzDrt3QHOli0jWcLuNDXGdeA2hIUSCIQ43DVSrDYqIdd45+sRYioCYQl7R1IJ5AiHSicQMwpuqyD47UgivaLC6sMT0Dx47XGR71iNmgUR9m4W6Hl15Y55FHDN/41hQzMwGjHVLNyUwd341lxIIiwceueBxJYihLT1kkCOPcuLHB0pJnfGyWQ4eOEOX3PbFQ2WA+IXkzwAC/PgbVWQP8RtAQl6HttHuoE6xY8kwYHzb88R89x735ZdbX36Td7lE4QwiKMVG+o/RRauT+Avz0x2sMDc/RbB5nevcE1rRp1j15XSk7jna3oFavkyVKWW4xNhI4c3aCp54e586dVe7e60WfIVhCgJjyFgSLIcGQoVhKX8YLF0gyGBoRsnqJTXpkNq5FjkDwBrCIBNQEUMUpGA9WwFjBBcWVgjEaFU0UtivB+qEulCCC1eqklYeiXhHryXOYmAQNGbV6ikm7GCzLd1d5941bjAwrXziXs3fWkNXWERRCgkgDjANK0DiqxkvGa0FROroFrKw4Fu57Oh1hctcudk3vp1YfA4TgS4JJBiQywD8LBiQywG8Ea6AoCoqOQ5wl0YxEHTY3PP3MCe7de5qlxfu8/votihYkSYL3JcYYgneINTgPFy8F7N+t0hya51t/OMv0LijcCsG3sOLJawbvYtdHt7vJ0HCLPXsbfPnZXVy61GJl1RE6DtWU6JMkxMos2d4qvwDhgQx8kliQgKqr9ovEGF0LS9CSoIoVkEQgQMAgYrEJxGouJdb9hpgj0sqqfwpiAp6q811JE8PIcAbUAChDj27Xc/vmBhtrjsfPTXPuiT0Mjy+SJgWhlFj9pSloDgRUAkgkMhEIODQRCm+Yv7vJ3K0tvBvnwP4zTE3sx0gNI0aKIi5KJuaja8sMMMBvggGJDPBrIwSvIh5Rj6hgSBFvCM4hpksttzz39aOsrJ5jbWOJ8xc6UQJFQTXg8ahacptRlD0uXSz5i7+4jg/Cc8/t4tixUXrhHgktmjWD920kKKkAuoqq49Rjozz79Slu3LzHzRuOUJRAApIQ1AOemAavOjREUIlKvd6BdxZCHbSB90nsmxDBJILiCRIQibVYiCEEgw8WEYsRW/FTXG3RGAUjiI0korG6ODJGP2KscTyR/mrtitGAp0SD4nzJynKHTkc4fmIXJ44fZmi0i7CFmG5cxjjUQS0q/RxTiYriQqwrcGrwIafTTbhybYFbcy3q9cMcOnSc5tAwrhS8VyWAjcsbDjDAZ8aARAb4DaColhjjMSIQBPUgqghdnG+xZ2/G1795hPmFm/TcZT78sIuWMZUrRlA1dAsIIWFzs+TC+cBf+JusLG3yJ//dCR49sp8kX6Ln1rA2wahSz3OQDj5ssXs25+kvj/P6G6ssLvYoXREJzVgIWuVhQNQhahASVCF4CCV0tyyuN4LRLpY1VAtikjzgtQBRRATvBcgQU8OSIZIhYgnqUS1QKfChi1KABgyflmiUagMi3+BV8aFEATEGKQVfwsyeOntmdlFLOyjrWOsoXZfEChgfPS6N4TqMI2BxwRDUUvo6nV7O4lKPK1cXWVlTHj2ym0OHj9AcqmEtxIo58E7VJgMiGeCzY0AiA/z6EEVDQZpCag2+9LjSU68FrClwYR2MMrMXfu+bx+l0A93eFW7NdSkKEMnRYCjKKDGS2ARXeq5cKuhu3WdzveC7393LmcdSRkctksYy2xSh9F3SXCFZYt/BPTzz5Rlu3bzHlQ89m62CEFLEhLheRn+pWzwKBAUTLL22Z+76FndudpgYrpGPjCJmE087kgMeRPABQrCkSR1CnXY70Gn3QAxJakkzS5rlmFRQgUAgrk3yMfQlU4JAfFltsSBYxGCtZXQYarUGzeYWWxub5Gms5ur0AFGQuCwwIUcrD0k1R2hiyHEuZW3dcu36KtdvboFp8sjRY+w7OEtWS7C2RFDUW3S7236AAT4bBiQywK8NUQVjqOcpSSIUZYdur0uzGbCA2IDQo5Zvcfz4MBJO0N1s8aMf3GLuTsA7T7+TnErbypeeolCuXYdOe4XV1S2+/YfjPP2lcXbvTqknnlI7FK7L0JBlo7vB6NgEX3tuPxfe32RlaZWtTa36VxStnvahb7A9eIuRGq3NLd57d5X3P1hhZnqEWqNBrdYgVGEzY6OxD8FgTQORETZawocfLnDlaoeyhLFxw9Q07N4NE1M5tYYlMzlIEd0dFCSSlxAIArEMOJIZIlhrCcHinEPIGRsdQqVL0PvkDSGxhhA8qRWMKkE0kpQqKgISS5J7ZYbYUdpbCXfv9Lh8aZNbc4EkbXLk6FEmpkbBVsl4IKZCYsnzAAN8VgxIZIBfHxLDQ+12h+ZIxsLyHFnjEMFYnDYQxlBWSaTNcG2Dx8+k5GEPTVnm//ubTeYXlV6vh4jGp3ijhADGQKeEm/Ow+XyP63fuc+G648/+7VkOzOY0a5sk+Qgbnbt4bZNnGxw+OMrv/94o8zfWuX/X41F6HtQImIrwAgT1iLE4D2Jybtxx/OX3zzO+9wS7j05QlvNYEYZsQigFNY40MWx1hDSZ4O7dgr/7uy3u3Vd27YF9wVMbhqIEvEF6FjEgiUWl3y+ieHEPwlsCRF6DEIXzqUJTIg41vf+fvfd8kuw67zSf95xr0lRmeV/V3hs4ggQJgASt6ESRFCmJknZ2Y79sxH6Yz7sTMYoVd2b+jYnljmY2lhpxKDppSIIOBAjbjW6YRnejbXVXl7dp773nvPvhZMOIUsSqxVHEgPl0ZFRWZaW7Wf3+7usRyRAK4ghEgQKsGnirf0VQkSCK4vAmJy47tra6NBrDLN6K+cmPLtBuRhw9doCTJ09QHkjI8jalKEIkAkIlW58+vwn6ItLnH41IJKq5GikzOjpKoRt0spwoKVEyVYzNQFuo7yC6zkAl4oHTCZXkGF29xE9+ucOVS1B4UAe+EOISuEJRD4WPWFl37LSVjd01rt18ht/7/CnuO11nanqMKG5jtYuVJuV0lccenWRtqcXN6ytcv60kMXRdEA8g9H5AKI2VCCWik8OVa22eenqB6T2OUyfGGKxEZN1tYrF4JzjxlNKElZVNzr58G4/l8SdmmJwepFrP2TNrGRhokZo21ZJHXUZeNJFIeiICCGE/yd9FCC9MwOBDrggPOMIM4pBbESWEw7CgER4F7fWlOPAWOrmn3Y25davNG6/tsL6iuCLhwMFj7Nk7T7VcxpgCEYtgQc3bYtanzz+Rvoj0uSfUR8RJHWNqvHbuLEcOH+W+U8fwmoFr4K3gUTLXgm6HtJRy6FiJP/6fZhmayfjetzKuXVI67RTxFaQj4MNOEhOBCHTbcOMabG102F47xxOPD/HxT02wZ3+JOEkQukRxm9FRz2OPHuCV8w3Wv9uk6ySUEKsFJ3h9e+GUmi6o4L2ytgY//9kaadQk+cpBHnpgHqMRhe6SlIL30s522G2tE6WORz8yy8FD7+PixRtcO3cHn01w6sQ8uVui4dZJkzx4QBr3jpJg3nXGr4CnN64YCCPsg2DYcD9NEFzv9hC6AgfiUXJUBMXiRfCa0O2W2G2k7O6mvPnmKufPL7K5BePjwzz00IPMTE8TRSY8DFC4AkuE+fXsf58+90RfRPrcE3nmiZMaAwOTPP/8BZwzqE85fXIvpVIKmhJHZZLUIr6D2hZRSTh2wjIwNMPkUIu/+e42r71csLVV0M4FoxFGIoxanM/xvku37VjPlGeeyllaWGVhYYePfWyE++6bZnxcUONxvsv+Q0N85avHWV8/x6+eztGOJ/R7COHPPCSVvYTuc/Xgcrh9HX78t23K5hap7Ofo0XHiOCcv2iCK2C5DozHHT5WYnjnCzjacffEOZ15aY+mWY3L0EFPTCbnPicQhxhG6Hnt1WmoA6X3VnoAUCAUiYda80NMKD2AIQxxDb0wYlOhRUZwQnBIxqCYULqbTqdNoDrF4W3njwiZXr+Z02nD8+GlOHj9BpVqmKDKM+FAm7ED66ZA+v0H6f0597ol//a//7M/FWDY2Nvnrv/4+Z86+TmO3xdBgneGhCkmSIbJJVqzgdQNrmyi7KNuMDJXYOzfDxMgA1uS0mju0WxnqwBADFdASEHo2EI8obK7B9SuO1cU2rlsjjcYplwdJEouaLiOjFZK4YHlxh9YOqBPCbpG7Z/MEe957D6IGnxvaO8rmWgfvcsYmygyPxoi0gII4taSVKuXqCEkywcU3tvjh397g3Jmc7Y2cNK1QHxpgaKQMUYe82A0zrVCQYPXf+qehT8VomAAsere/nrd/T4OI3BUSxIWckYSwmBpQSciKCp1ulUZjmLW1Ic68uMYvn1rl6pueUrnKV7/6xzz+4Y8wMjqIaIE1YekWhSBiQeHr/+brX+8dij597pm+iPS5J/7tv/s3X//f/tWf/fnm1gbPPfcCFy5cZenOMhvrq0xOjDA8nFIfBK/beN3CRG2gHcaA5I40VmZnK8zuSRmodcF0yTJHp1OQFQ7FonhUCox1GCP4wtJtRawueW5ca7C5nmFtSn24io0yqnXD6GgN1Q67O012tn1ochSP0144666IKKhGoClWSzR3M9Y3OlRrOfP7BhgcMpRSpZsXOMok8RS3bjl+9uQtnv7FJku3lO0tZW1tGxHH6OQQlYEIY7pYE3pOEEUlDGjkrpeCQ+jtI9Gwr0TUIihhSnBokRQVRHxPRAhDintfCzdAuzPA9naVtbU6r18o+PnPbnH+XJM8t3zgAx/kK1/5Y06cOEGpFCM4ImMQLOoMIiEn8vV/2xeRPv90+iLS555odzIVG0afPPfcc7x56TI7O20Wb6+ysnyTOFEmJwYR28H5JmIy0BzjoBynxFEX7BZjk8q+gwPM7alQqjggo9MpQLpAF+8cYZGSxWkCWkJ9mc2NnMWlXW4tbrLb3KJSjRmoV6jWy0zOjGPjLp2sQaOptDqKd0FAgpIEJ8FKCaWE0QoWYafRJU49+w9VGB1NKJcNWR5RZHXa7WGe+sUi3//OHS6+VpB3Y7KOYXmly9LaLu3uFtVaiaGhCnEU0uQqBkRBwmBGxCHiEAleCGIQtYRO+yAYvUx67/4hgf6WgAg4Err5MI3GIJsbNRYXK/zyl3d47tkl1laViYlpfv9Lf8JHnniCyakxQlVBgTEGnEELgzEG9fD1f9cXkT7/dPoi0uee+LP/43//c6c5nW6HK1eucu7sWbrdDt2O48b1Le4sXiGyMDE2QqkckxcZUSQkRhHtoNLGmAw1LdKyY27PEIePjLL/cJ3aYJtON6PRVJyDKCKEdLzipcBEBd4UNDqepeWcy2+2WVnZJIqrDA6OMTY5yOz+lLl9lriUsLHRZXvTv7VBUYwJZlpC97eioA5rM7qFZ3g05uiRMawt8EWNONrDmRd2+Iv/+03OvliQdWK6eUruI0SEnd2Mmwsd2t0W9YEKI0MjWFuh3fFUKmWwSuEzTNSTB6NYGzwV6L0e8XhCl72ieB9yGN6GUFbRE5BOt8bScsr25jDLSxWefXaVHz/5JrdvOZK4zMc/9lm+9rV/wYkTRzHGBK/HgBFBejknEMT2w1l9fjP0RaTPPxrVQq1RxDqsjbl29SovvPACjd1dvEIcwfpawZUrCzR2txgaGmZsfIw4jrB0QNs4l+O8IkYR41HaDI/GjE1a5vek7DtgmJ5SjPHsbkO3AC8aztitQ3q9JUUBzV1YWPC8/voqy8srJOWYiZkhJqaHKZdmuHG9ycpqA1WhKAxxnGBssOiiiuJQ6eKdJ8ugUjEcPFBjfHyISmWeK28W/OX/+zLP/SpjbRXa3QivJSwphc/oZAWNJtxZylhb2aWUxAwO7qFaGUfF0M07ODrEiYYR7r2QmhIS/ahHTIGNwdqQX3cIamIKFXIvOFJyV2dnp067PUVezPPC86v88G9f58aNnKwj3H/f+/jKV7/Go48+RqVSwnkfNh324ngilrf+yxv4+v/ZF5E+/3T61Vl97hGPKzLKccr87BxDQ0Pcvn0br9DOoNuFSxeVZuMm6xtNPvO5Izz4viGGBlqUU4/EHcTnRJFFjMF3MsRvUK9FnDiZcujIJA8/HPPQQ9u8/NIWL5xvc2OxYGMdOm3wOSFvQIQWlu31jN0tZW11m6vXz/H4Ewd538PHMTKAEuM9iAiV6gAzM/OMjo1SFKHyyWUZ3fY2qm3uLK1w6VKby5cyDh3egzXjnDlzll/+os3qchAAEYvH4yVDRFAPpZKh27Y8+4yjtbPC1sY47//gHiZmBqhUB4ijJbJiDaGFqAMf8iKRKN4UofmvC2IkzPfCYCXBEyMmpduNWVpV8nyMzY1hXn7pNj/+8WUuXMjodiKOHT3KF7/4+3ziE59kfLwuRaFqjSAiICHngkj46BSkPzerz2+Ivoj0uQcE1WDI0yRlemqWqakpLl2+SJYVqIKJBCspdxYz/uYHa6ysd1i4PcETj42zb34PlVqGy9fJixZxYrAi4MPKV6ebJLbJ3MwowwPD3H9ymkeurnPp6iZvvN7h8uWclUXHzqan1SzInAc1GPFsrivP/qLDtcsXeeHpbcRUePXVOzRayshojcce/RSf+ezvcfDgQWxkyPMO7eYWjcYmiwvX+NZf/RXXrl7klVd2uf9By05FOXv2NksrkHtQEUzk8L4NRghTfIWpmUn27JlmeXGZl8/dYWvnDW4udvjAB2c4eHiIoRFLHCck6Q5R1MJIF5ECMb0cSAEiMSE/IhgtobaCK2KajZjNbUtzu8LWziCvv7rND390gVdf28JpxOEjh/jSl7/Mpz/9aaamxskLr6hi3oozSE9ABOlP7+3zG6YvIn3+0YhYUV9oYi1GI8aGp9i/9wBnzjzPVrGLNRFFZil8GUPE+lqbZ3/VYHm5QWPD8f6Hxzl+apj6YIK1m6jvoq5LEifExpAVu2jRQMipVzJq5WHm5kd5+KFRbt5oc+lyh6tvdrl6pcXNmy1W1zrs7DpazRAmyjqwcLVg+fYdvCidQvEKlYEyH/344/zuFz7L8PA4kYU8z/CuiWqXG9eusnDjFou37vDK+Q3evNxm776YlbUuBWATKAoNzYsGjDU455mbG+EjT3yIkdERXnzhZRYW1zj3SoOVjctcu7HJQ+8b5cSpQaanxxkaGqQ20CWyDRxNCpuDz1AfYWwFsDineDW4TkqrHbGzE7O7W2V5JeHc+VV+9cxtzp/fptWKOHjgEF/6vS/xe7/3uxw6vB/UIRiiOJI8z9RaQwic9enz34a+iPS5JzS3RMZSZFCvDXLwwGFqtQG2dnbxKngfAWUMFZyHrc0mFy8qja0FLry+wcc/Oc7DHxhlbn6QctIFv0veaRFFnnIMxijqHFp08a5BwS7jwxFjgwMcPjTE+qZhcSlj4XaDazc2uXmzzc1rLVaXlMY2tJuQdR3tzOBtjJLTbLfYaa7TyZo4P0pkDKglScpEUcz09Czve+iDnH3xVa7fOstLZxcpV2eZmdvPnv2X6XQceW7Z2c1ptgqc8wzVSjzy6EkOH5vn6tWrLCzeJK2WqQ0Psbq+yo+evM0bb6xy4mSN++8b4fjxUeZm6gzWyyRphVKpILIF3gmapSDgfIFzSrdr2NoWtjYtCwttnn/+Ji++tM61a212doWTp07xpS9+kS98/nc4cvgg5VKYhmxtjPdOizxHe63pCiBKoYVCcEbEv/Vx/hrW2r7H0uf/F30R6XNP+EKxieAc1AYq7Nt3kNGRSZZX1ui0PEZihISwd8MgTmg2lWvXPeuru9y83eLy1TUee2yMY0dGGB8ZJ4m2QTxeO+DDOHe8A5ch0iUSj6TbEEO5ljI1V+XoyYTd5izrG57bt1usLBqWbxuuXmpy6cIWN297thuCJ2djo8mTT/6YI0dO8bEPD5EODiEYrE0oipzawCAfeORRXnjhZW6vXOXZX11jcHCc4yceoJPB6vomRhK6GSgRpVKN6elpxsfHuHT5VZ597gztrufjn/oYp0+e4pVXX+bF51/kzvISK2vrXHhth0MHljl5cpj5PWVGR4WR0ZiBapk4ToiiEs53aXeatFttNrZaLC91uX6t4OKFNleudLh+0xFFCe976D6+9OU/5Atf+Dx756eIoxjBECeWPM8xxmKjGEVRlZDMV0G5mxrpCQlwN83/tqoI3rt3Oy/vUBzp1UqLsaJOVayId6qmHyr7raQvIn3uCRMDBqJEyTrKwf0HmJk8wKU3bmLJegniXZQcY/JQruqhWwjrudJ6xXFncZdzL7d49LEmjz22h2NHxqjVE6xYXLaFUSUxgkkFpwmZZBjdRUxOpBHWtEhKNUaqKdNjBfefjtnYsrR2Zrh2scx/+L/OsbC4iLUxA+UqO40GZ164wH/d+0Pmp/Zz+vR9pGlCURQooWprbu9envj4R3n51V/yxqVX+dGPXuKxx2H/vgPs3Z/T7rRJ0pTJqVniqMLGRoNXz1/kJ0++RKvp+fjHH+drX/kjPvD+x1leXuSHP/42v3zmx7x87hUuXetw9XrO8y81GZ8wTM/A9FSFkeExBgaqpKUuzndotBpsbGyztNTk9oKyuqxsbXq6HagP1vngI4/w5S//AU888THm5/YgYsPwSgzWWOl0M3UqxDZ4IQJ4VcQLpte64j14JeyWN4r6AvU51loEIbRm3hUaJdSMeVQVlyvWpnjn1TvIO6rewV1BAVDNNdyn5wVhMBL3ReY9SF9E+twTYgHvsLEllZjxiXH279vP2TMv024vUrhuGLUhnsLloBDHEU6FwkOjoTSbBaurBdevLfOrZ5b58EfGOXmyxNHDw0xPThMnSpFntBoNokqCTXOI2ohmCDmatVFvSJKMOGrhoiaVckw1rbN62xIZRylVBuojJGmZoihoNZr8/Kc/Z3Z6lqGhGgcOHKDVahHHMeo9Yi2PPPpBvnjjazT/47/n9Veu09h9jkNH5qhUhLRiqVRLrCyts7a+yxsXbnDtSovIlvjkxz/K//DH/zMfevgJBmvj1MoTTP7JBB/+8If5xS9/ytPkX7AhAAAgAElEQVTPnOXyxVssL93m8uUGFy8rVrYpl3ZIS6FDXXolvp02tJohv+NyKCUVDh86xEc+8mF+93c/z4c+9AiD9TpFrpjIEpff9gKiJGTUc5+R5444irBiQEBdEBt6I1hQsGKlcB1VPFkeds7HUdp7NAm/1BMRQbGJCddVERsGtHjAuXAP9U4hVL7dlRAQVJ2K9MNk7zX6ItLnnhBrpN3saLkaiXNdHRuv8L4PHOH8a2NMzZa4c2eJleUtvFfSJMY5pcgcJgp9C+IjrJTIW56FKzkrt5SLL6+yZw+cfiDh5PEJDh2eYM/8HGNjFYpslcwvEacxxmRYwMQRNo4oigxHQVEosRnCyBgri00WrjVp7iqffuJDHDt+gu985zu88cZFrl+/yfe+9z0mJycpl8uMj49TKpVQVYqiYGx0kt/93B9DMcQ3//I/cv3mBZ5ZvgXiSFJHqWRwTmk2BGsSDs0f46Mf+SSf+/yXuP/0A1TTIYp2MOTjw/sYGZ5jduokjzx4i9deucL582e4fOU8S3cusrbaIO9AlikOT+E8XkMi3GKYHKkyMbGH40fv4yMffoLHH3+cAwf3UioLODAUCF28a2vuMsIG+12EIEqlxIbhi9z1SApAMaaM+gR1UGRODR5jyqH/RsEQhTDYW5+4A/GoZrisFV6dKTCmDNbQk6R3ELygt0Wkz3uVvoj0+ScgeFeocy3SMpw8tZdjJ6aZnZtlY32T5547y2uv3qDZ6GDM3ZWswUCKOIwkQILzMZ12l7VuERoHb2Y8/YtbTM0sceTwGAcPjnLwcInR6ZSxyTHq9UHSuEC9UHiDWCGKbTgT9jFZ5llaWmVnu0VRwNDwML/zO79DqVTiW9/6FhcuvMHFi5f4xje+QZ7nfPazn2V2dpY4jhERbByzd98BvvoHf8LxU6d4+fwzXL70Ehvbi2xtrbG7u4sRy+TpGU4ef4AHT7+fBx54mPm9+ymXU4zJ0ULxzpBniokd01MTjI9Nc+r4/XzqU4+zvr7Axvp11tc22N7IabW6NNsN2p0GKg5rlDhNGBuZZHZuLwcPHGNudp6h4UFEM/KsQxQZbCqoDwY+joO34DRsVDRiMBgK7wk7SsJkYBEQyVHKIIKqwxUeFYiMDeGxPAfeKSJKGM2SESW9Ln9yfAFoBCZGejXFYqyoFvq2kAAIfS/kvUlfRPrcE+pUnVOQAmMVlYzJmTr7Dk4wOJTy/kce5+EPnOYH33+S5599lfW1HRqNDiIh7CGqQIaKogpKaOBrZZ7WOqxswLWbBedfXWJ4aIm9eyrMzBsOHIrYfyBhdiZmfGyAwcEycZqRRjliU7yrsrPbYWVtk1a3wEawePs2SZLwR3/0R8RxzE9+8hPOnTvPuXPnERF2d3f5xCc+wfHjx6lWq72wljAxM8To9Ae4/+E57izdT6O5SqO5ye72FrFJmZ6aZ2Z6nuH6CNVqDRM3QNbxvkC1hkQDRNbhJcf7AsFSqycMjQywZ98MRV5BC0O3m5JnkBU5hcuw1hPHYKKCOLakpTJJVAHfAGljIkOc5HjNQxWcj1B1IcQontx3UDVENsWrwXuPtZZIDKodvM9wKniNMDbGikUweA3+D9iwIvhd3oX2Lg71DhXBe4P3FkOKMSXE3A2BgUj0LsHw+ncS9X3eM/RFpM89IVbEFV5FBBGDV6jXahw7dpRXXzvLkaMHeOKJh5mbHeN9Dx3j5Zdf5ezZ11lZWqexG5LEqmEYoUFAwWuo9gIwFrIMGuuwsWW4fdtTPuuoDzYYHYOZWcuBAzX27a0zPVdlYqbCyOQwaTrC7s4Au7s36HTD9sQ7S0usrq7y4IMP8sUvfpHjx4/z85//nHPnznHr1i2+8Y1v8Morr/C5z32Ohx56iNnZWaoDA3gKMB1GJmLqo9Ogg2RFi7zbxRIjaomsUCl1KIodfCcnSXOQjEJr5N1qSGgbRYzDmBjUgOsSx11s0qTrlCgZIknLVI2gWJwrEOkSpznGdCmco5tHGKkQmSrOQVa0ULoYrRAzSJwkKAWenEgg9552q401Cd4BkSEnp8h3EMlISw5PRl7keGcwUkJMAljUAWIACUMrgbeuaBzCYGqwJiZJqlgToZJRFP4fzHuYv+dnfd4b9EWkzz1TuJzYhjEdhRPKpWHuO/1+XnvtVdbW1jh8YA+n79/HgcNjvO+RvZx5cZpnnnqeK5dvs3CjS6up4HtrXhWMxMErUVBvUBEK9bgiIitqtNqGnd0mi3davPGG48UXthke2mV4PGV8KmLPwZjp6Taaj3PjhqPZCTvQb926zfnz53nsscfYu3cvo6OjHDp0iOvXr/P6669z69Yt1tfXefLJJ7l69Sp79+1jamqCmT1T7Nk/SiV2GDLa7R0uXnqNSxcu4XJFCyhyR7WU4nyXsYk6J09NEyc5b17e5sa1Bt3Mk6Qxhc9QhCRJmJ6uc/r0AUpl5dyZC9y8sks3M0gUIcbQzVqUU8e+A2NMzQzQ7jS5euU2u5tKlsUYm6JSgMmopEMc2nOa48dPUBuqIBQURc7ly1d4/fUrNHYy1AvWKKpt0CZj41Vm5ipU6o6FW7dYvrNJkcVEtopKjMsdIgYN2t4jJOPRFNEKpdIAU9MzHD50hNmZ/Vg7EHTnHffo89tBX0T63BNeC1X1gGBMQiwWpWBm8ij3n36c86/8isMH9jA5sQ+JMo6fHmZ+34Ocvr/Opdev8PyzF3nl5VssLUBjBwovqDcYSngs3mswlOQoDkcbT0SBxzhoO2i0leU1B1damBgG6jAwuENir7C54Wl1E5wWbGxscObMGRYWFjh+/Djlcpl9+/axd+9eHnnkEZrNJsvLy9y8eZPNzU3yvKDTAXwFl6dQVqxUyfNdzp65zP/zH77N+koLnGBM8KSM9dx3/yz/y//6aSpVz/e++1Oe/NFt8syjSBgeiVKuGD73uYfZs2ccVyT8zfd+xk//6yWa3VDPFM74PaUUPvaJ/Xz+C4+xvr7Cf/7mz7l0oUXWFfLMEKUgkTJYG+DLX9hkenqSgcEYYyyFy3jxxTP8p7/4Ngs3t0NQSpU4Uoz1HDxY4Q//6JOMjA3y1996jheevU2nDVYMhXvbGyQ4IyBB2EFQFaw11AYTnvjoI4yN/wumZ6YxkiBEhIqsPr9N9EWkzz3iEfFAjDGxeKeq3mOJeeiBj3Dr1k1uLdxhz/46TjdI0y4DtSYn76uyd+8BTp4a4urlg7xxfpnzZ25x6fUGO9td8tyRqSXD49WDuJ4xy1EEJ4pHEI1RYrwzqOa4PKPRUmQ19KX4QlBnSZKUouhy4cIFzpw5w/z8PLVajaIoEBEGBgaoVCoMDQ1x4MABVBUjEd6XiNOYtAwRLXLJ8UWZ7Q3H4kKb5TtNNIcoAjR8HR9v0m7lRDFsbjS5c2uXdlspCvA9Y1wfhK3NLnnXkMeG9dUOtxYa7HYg61XEWoE0gY21DvgShjLbm47bCx3yDnRysNagkWd40LN0Z41ms0FRZMQ2ptVqsbi4xNWrt7lz24EHEYjjcJmaUpKkjhY1ttfh9s0ujR0wIhSFJcid712Cb+EJFVsiBUkJBpvC1tYm3udAgcG/K4Wiric7vb4Rr077Ia33Jn0R6XOPaM+w3P2OXrijxFBtmg889DhvXHqK5TsrTM1HqHYZqMBOY5lKbZvDx4SDB0d45JEaN6+Mcv3qNi88e5Mb11ss3MpZ2fBkBagFicIo+MIreFCvqM/xCmiMjSJEPOpy1BP2hoiCLXDeoapcv36dp556ilOnTnHy5EmMMTjnsNaSJAlxHAMgIhS57yWmQ66ncB7FYqQEvoQrDEWX8FqKYGBDGM5gTIq1DjQiz4W8qzgveBQRyLuARliTYE0ZNMblkGfBE1EPrme1fZFSrQwRRRGD9Tr4bYqsjFKmW3i0aNCKc9Y3tmg2W0CowMrznM2NHRo7vVBhz7PwRXj8keFBJifHKXIHAoULl2D2DcG38qg4PKHSC4lQb1EpyDIocoK3qB6RuzLjwxP9HUJS/R/Ol/T575u+iPS5Jxyhp/kuAiESI6DOcPTIaW4vvs6Na0tMTO1HbUqedamUymTZGll3mzgpmJhWxsaEE6dKPPrYUW7f6vLGhXUuvbnJjQXHneWc9U3Pbjsk2rMueA8KhC2BgneKUmDuhl96r0UMqFOMCO12h6effprR0VE++MEPsn//fsbHxxkYGCBNU8JYeEjTFDEGn/eMuSnA5ETGY43DGsH0Ls4LKgK9yigbGyTWUI2FD0ZZDWCJbDDKYkCMYiIwVkNzoQRPwRhQEyHe4zRcbOIZHqgyMVUjSkDFIJpgACdtCtdlfWOTrZ0Ncp8TY2hnbXZ2dvA+PCZesBacC5N9xyemGB4eZm19DRUFuXvYEjwJgqGgE4QxHE5AsCYC8aB5KB82MSY8Qc9rcW+dVLybuwLz99/a579v+iLS5565e/7pVNWIiCtUVaBcKVMUXY4evZ9XX/s5V95YY/+BMeJyTGI7mKiBKdp43SSyW9i4S7msjI3X2LO3wvGTw2xsjLO0nHFjYZuFhQ5XrhSsr8LWZs72ZkazVdDteLI8w/WMnSrBO+m9NnrfG2txRcHly2/yzW9+k+eff54DBw6wf/9+ZmdnmZubo1arEUURcRxjbUR9YJSxkRFKVYeYHKWNagv1bbxzFD50Sqh6EMgVChxOunjp4uniVHGqeCz0XqMHCs3IfIPCO5x2ej/reVAKRsLvFj5sgKzUK4xMJMQpFLRxhJBTqAKDnWaTja01unmLuCRsbW+xtr5OVgQPAzVYDGIKKlVlamaGam2A1Y1lvAZvRAx4Zwml1gYkCIaIJ/T3hGMpGhRHezms4L0AKO/sKgHeMXbeEd5539y8F+l/qn3ukdC6JsGU9n6kiPGoOgqXs3//MZqNDd68fI40HuLA/klECiJtAzmZb6F+B4ky4qgAn5FGDcZGagwPD7BnX4lT94/RaCo7Wwlbm5blpQZ3FrdYXm6ystphcytnZ9fTbCntRhgX4nrVXt4Jra6h1fEYYxARFhYWWFtbY2FhgRdffJEkSRgaGmJ4eJihoSEmJyfZu2cv959+iHq1RFJSrMnx2kXDJiwQIbhdEYjiKejZf0RC4tlY29vnkaBEeJ+j5m2DLWFnLWIM0vuZegFvwUSYqBN6OCKoVhMmJgcZGIxYWSlQVwQXwyoItDtttrY3yIsuXhM2ttZY21wPx6DnCSnBGxkZLTE/P8dAvUKUeEwUvKEwxiaEpxRFex3qWDCieHWoy0B9eP0YUEE1tDEGAXm3iLzN3Uz9W4rT5z1EX0T63CNhf3fgroh4IATe01KZLGuwf99p1lZ3OHfmJmtLDU6frFGrzRBbi5GIwoEvDE4bGM1R7WJwIA1sHJOklsFBw9xchTyPabag2x6k1aqzs5OxvZPTaBgau5adLaG1Y8m6hm7X0+nAa5e3Of/6KpubnhCfiZiYmOPRRz/E3NwMed6h2+1QKpWo1+vMTE9z7Ogx5mZnKFUSjOklPwjG0/S2BRoBjwm5FV/0jkCoXvK9s/TwwxiIw1UtEB/GvkRGsdYg2LfCXsZYvDegpvcYFvVCkqSMjo5Sr6fYuCB3HmMN3gTB3Npqsr6+SqezS6Ww7Oyus7O9HTwHY8FbClcQGahUSwyNDBHHBsRTeB8+AwUI78NYUNPFxkqcQBQT9MEX3NWWtGSIogQjMWiE9kJVd2XkbS8EQhhL33Frn/cSfRHpc08YLOCx7+hMNiKoRCGBXChQoTY4yImTj7N454d8869+xItnEj74oXlOn5oIAxalg7WGnGWMbGLIsJITi8eo4h1kucNHu8SRMFSPMIMl0IjCGYrMYO0A+BJZJybvWvIswuVC5hJ+9sIi7b/a4OyLjm7To76G+kEO7D/Fl7/yGUZGy3TaDRIbYSWhUqpQrlSJ4giTKGq6KB1UcrzJKKSDmgIvijUO53KMQBIBXohFsN4gKvhCwhk7BisRkcTEmhH7NlZ3sV5AXTDCnl5Js0NViIygPgVS4niQsdF5xsYHsbZJEofQl/iwzz5v5awvr5F3d3E5rCzdoNXMQ+jJW0J1Qo6iTE6PMDxaw0Qx3pehNz/LuwivFiUDo0SxcuDgCCdP7GdgICaKC6CDNSnddky1OsTp0w9QLg1hqAMVilyIY/21BLqRsvh+Uv09S19E+twTVsyvGYS7RqLb7WqaVsU5p91ul6HhGe5/4FFu3V7iZ7/4Ns88/xynTk3z/g/McfjIAIODE6QlIY1SnN+iyBtI0SUxSpyUKVdLdIsGmeuGM3ppYMSSWENaNsAW+IhyFMFABJogWJxUebxc5dZGnaXb6yxcA2MSllfWeOX1i3zyM4+y/+A4w8NVynGKaBLOtKMIr9rr7bAY7uYKLKqGu2PUI7FYExLo6iHPg+gBGAmhIhMVaGFQDSEhAQwOoQvkqChOej6dhuoqETBEoDFoQhQNUB+YYHCwjInA5op6E3IthaPbULY2GrRbDfLMsL29TrsJRUeCgPQ8gHIFpmaGqQ+GmVkQg6agBu29R+hgDNTrEQ8+eIg//OoX2Ld3nCTt4PJ1nCZYO41zVWoD40xO7MPaOkIayp1RoCCMgjdv/U30y3vfu/RFpM9vHO/9W9edc6RpypEjR1H/Ra5ducKTP/4ev/zZTV565DLvf/8sR48OcOrkKFNTw6TJDmncwNhdiqJBkWVERU5SKhPFYZx74TKc86gJvR5IDhJCTT3DFYw9TebnD/LRJw5z6bVdVhe7aL7FbnObs2d+wUtnTjC/f5TxkVE0CiLSzXNMYTFikQIwEWLDOBApcnBDiJYRzfG+EqrD/DZaOCIbgynhTIfctCiskps2XhyoAVG8gCPCEeNEcMbhbIGG+NhbBFkJ7ye2KYODw4yOjpCmN8ibBUgMvideRehL2dzYoVYvsbPdIu8Gcw6KqkNRajXL7Ow0Q0NDoWqLonfsPEgw/uEeICIM1oc4evQ4hw/NY6SDyDYhPDeJ1xLOpcED7GaAIYoibGR5m/AK+ry36YtIn9845XJZAFSVcrkccgjGcPTYSf7lv/xXjI/u5T/9xb/nqZ+t8fKL68zOwuFDKQ89OMW+AymHDtWYnZmiUskxtkVhumRZF7TonUEbQumtYiKPakEYpA4QSo+9Kl4zMrfG3Mwcn/z4fdy49AqXL3QpJ8Lq2k1eePEZHn7kPkZHpsjVYLH4GLwKViFSwBvUGoSQQEZCLsNYwRV5yImIkESGKIrJi4S8KOMoIbFQqAYjbSzOCw5wJHhKOAPOFKgJXo8I77C7vStqECJq1ToTExMMVGN21trcVRwR8B42NpqsruwwMFhlc6NJ4cJtChgJR6c6UGFycoJqdSD4JlL0BASCCxaqyCR8erRbHbY2dlm5swqmTa3qKFUGEXGIiYmjMupLISRmYkyYe0J41rsi2Oe9Tl9E+vw3oSgKDZVKVpxzqqqU0pTTp0+R/f6f0ml7/vZvv8vCwnUuXehw82qXl8/cYG4Ojhyvc+TIAHv3pczMlZmYGKJcykmjgigGMQWFdvF5F/IMsQaxijGK2CAiiqI+wpiI+kCVxz50iIUrERsrZ1hZ7VJkbS5ceI1XX3uVqdl9DFRHSUsWY0xIAxceMAid3qWFkXDBtBGTBU8oiqEocMDK2hbPP3eZUqlgccHhPWDDgErB4H3otvckeI3xGFQ8GtImb3siPSMeCDeWK1UmJycZHIpZXGijPhh/r5DnsLuTsbnRZnijy+ZGOzQEOsX2GgFFlHq9wujIEKVSGUMG4sIFCJ5IQD20mgUX37jJD77/JEP1EsZ2OHxwkgfe934mJ2cQiVENRQNiEoxNxBdexYbn63shvz30RaTPb5wsyzSK3j0KPI7DatQ8y/X4yYP86f/4p9TqA3z/u9/j8uULNNsNuovC+rrj8pUdnhrcYXQS5uYTZmcrHJgvMzacMDhUYaA2QFyukyRClICNHGIcGIficM7hfIErDM4lbG9u47IRatVJButDLC+vgMDCjdv84Lt/w9Zmh737jjA6OsbwSI3hoRojlVGScg2hQHq5DFFFVPEueA1iwIgFLN7Bws0dvv2Xz6LOs7C4Q7cRg4ZTe2sULRSjIGoQ7f3X6zX7/RrSO5vXkBgvlVImJycZHilhzA7e9xotvUFRWu2CleUGaXWbjfV2EDAgzBXwxAlMTIwwMTFOGpfwLg+Pf5e3roay7TyH11+7zfLi97Ao5YryyY+fYs/eU8xMl0CSXgVaqFbzThVVRO7uEunz20JfRPr8xrH2nXFx6G0MVBFFyUjKjhOn91Ed+AMGh4f4629/h1dfeYVmcwfXKegWyua2Y2HR8/qFjHIpY7i2zUjdMDScUqsnlCoRaWpJSwasonjEaDiz94pzHueUdmedZgPyziXu3Ia19QyvFu8du9s7PPOLX3Lj6i1O3/cA+/fv5dCRvZy+7wjD5TBQUMgBR+iKCfbeCFgrFAUUhQcN5cq72x3eeG0DcZbcRdgoxcsuaI5Yh5FQ3mvVYVSx3mC89ISFf+Dk3QIxSVxiZGSE+mAZEwm4IggMQUS2t9q8+eYdGu2MWwvbFEUQueCxONISTE6OMDExQSQlujR5t3qZ3uN51HtUPc0sp727RSRQrsLqchPRElkGSSnC2ARcBFgEQvc+8PerYp/3Kn0R6fMbx9p3V+Lc9Uq8Fop6rPGQwJ79U3z1a19gYmqE//yX/4Wnn/4Vu7u7FIXH+xwypdlWto2yvuKIrCOOWljbuhu+R0O6IcTxe8/qlVAxBaiE7322RdaO8C5G1YAUiAPNM+YmJ3jiQ4+wf98Ms/PDzMzWKaVtJJKQe5EW3jVAumAy0hIoGiquyBBRnHOoenzmiDHEFHjfIY4LbExP5EIpcGIzUvHEGhG5iESh5cIbUPEhgiUgoohGCAk2ShmfGGd8fBRrFzBGcYWCsSiOVtvx1FPnScsxy0tZKBn2hBCfgVJJmJoaZ2RkpCeOMULU8yYAwvMAqHcoWRA8I0jvYKbJIN5FRCYJB1YM4YMQ0N5nAO/wRn693LfPe4++iPT5Z0MAp4QqKlWiGGZnJ/nEpz5CbbDC+PQYP/vZU7x58RoiCVFUIs9zvIdCQ0lsoBerEbAmRr3i1RMMYShVFQyIQ6WNMQVWEkRTEI+RHGNAHeSdnMhnDFdS9k2PMjc/QlwFtEGeb2EjH/IfkuG1gdKicA7nYXhYSEoJrWaHwjtKiWAzR6JQqSbkJqejUKnByAiMDKQMVqvsmasSS47vGkxuScUQqcURxAl6SXYALGiEkYSB6gAjo4NUqoY8d73DYXDq6GRwZ7kBAkUBrhBULRByRbV6ibHxESrlau84JYRKq54AvFXia0EVRfCqFIQQXNYF74JSyN2MPQQhuXu9z28lfRHp88+GSCTOORVVLA6VMBxxcnKMT33mo8zsmeTw0b381be+y8tnXyVr74IJ3d5JySLG4b3D351b5ZXCdXnLpmmvc/xuB7UqUeSxEWjhcPkuImHM+sAARAYaO8qF117iB98tc/XyYQ4fm2F6vsroZJ1yLSFOhFI56T1Hiz37xvn0Z46zuxNW0+a5D1Vo1ZTBWplaYijZsMfcpEp1TBkaLpNEMeWohuSWyfFBJsYG2W4U4GKKrsX7njslQUoQCAY+iAjEpOUyk1NjjIxEbG8X4XZCMXBRQO4IToGGY4AYvDoio0xMjjA9PUWaloEINAm/c7ePRHvuD6B4RCC2BitKEgVRK3wbaxTvHaZXwAC9uylvdakHL8S/9Xh93tv0RaTPPy8ahvbZXogrK9rqXIaNLCdOHGNycoIDBw/w7e98l2eefo7FO0vk7Q5F0asiUkUJU3CjBNw7xlndPSM2WgQjbsLPjYU4dqSDMDpmObC/xIGDo+zstHj+2XUWrrb5wd/8iJ//4qfUh8pMzdcYnRyiNFCiXqtQrZTwqhgTsdvoUGQp9YE6quApKJciCs0psm3aNHC2iVOlWhpmsjbN4GCdvOO4dvUWN68ucuLYPLPzM8RxPZQLm4h3Gdx32d6ed4AlTRImJ8cYHq7z5psdRATlbqNgqIhSvfsACSKCGMVGMDY+yMTEeM9zuytM7zho4gEHFIg4MIpXDQuqFGwEzjfwtFFywg7dkLQHE3TIqb573Emf3wb6ItLnnxcllLoWqiYSMRJTqMd4Q2JixkbG+dhHn2Df/r08+MApfvLTn3D50mWyTkYSRUSR4FyXTqdD1u3gfY7BYY1ibRgDUkqEtGRIEyGOoFYVxsZTpqdj5uZr7D84xfzeGRZubiGcZXNjh+0tpZkVLKzucnFhF2sXUYVSCmkaQU9E4ijBGkMSRzhfkPkW1UoOkTBYi5mbLzE9ZRgZGyFK61y9ts0vnrrGrWsrrC628TmY/6+9c3uO4zru8NfnnLnsAthdXBYECFIUZVGOLYuSVY5LrtgpO0oeU3nxn5hK/ou8xLmUFduVcuKUrqZMXSiKF4AEsJeZczoPPQOClBRdEiskdL6qLQK7szOzs2D/prtPd7uKn/xswWSgqG/AtwgP+k89dLFw2H9Tj/eeza11JuurxHjTtuhEVQQQEDypX3pLQkQoS2Fra8J4PAY8qUuGA50CK1Z46EAbEGttPxwWrA4H1AWEMjHdqXFhgfhuabC2mPBY6CzLxzeTLCKZrxUXInZ760gxqvWJqnEIMSWqUFCPViifHbC9tcWLV5/nl7/8V96//i4rg4rNjVVC0bKY32Z2/DEx7oPeR2ROWbZUVWK1FoYrJXXtGVaR0YpnY2PMaL2iGiq+TLhwi9FkzO27l7n2hzd47bVjG3zlbG6JE7OTx4d0ORUhpQUiC4KHsoSq9mxuD7n8rSnjdeXy5U1eeulpRFr+7dd/4F/+8b94661DDu9Dc+yghckIUhoSqjUoHQudsaQhOTrvoOPEIAvgQRw+eKZbm2xubRDCO6ToiK3lL1Sl88Z6L8PRexmDYcl0usloPMK7gKRAVIeoeS92mAhiK9FwsCPny6cAABBfSURBVLLqefn7F/nRKy+zOamJ6R7ffm6HyXploaxOeDQ1nTNi4TDtBlB1OyUn1c8+WUQyXxsWK1/ivIVAVAtEg60AAguzJFCFMgw4f+4Cm+vrXL50kevXXufOnfc5PrpLXUem0x0mE6EsDlG9C7KPcI/gZxRhSVEmyqAU0uClwfsWwgx1CyKRVmtWy5KrL1/ix+8o1977Le9cS2ZSxXQuCLgAKYKIUpTCaK1me3udvb0Nts+tsLVdMxguuHNwjeGqcuGpCxwfwUcfvst//PuMW7fA+xKJHm0b5oWwbIdEHZBwREnWH9EntE0ImGMAZthp6UNGwQ9Yn2yysTmmrKFdCLEbumVConbxRIGEDe2KDIcrbG5ssLY6wkkNroBuNZgdpz9W96uD4UrgT757ib/+m1e5sLdB0+wzGQUGwwnOdQKiS6z7bwLFhlbZzro92eosBXLvrLNLFpHM14hgf3KK3aU6JDwIgqRWLScMFL4AIlWxwsW9Z9iZTrm7f4MP3nuHGx+9y61b+ywWkY2JsLO7y2BlDOk2cBdlH+EYkSUpzrpCREW7AUxISWwLFosl0+0JP/jht/jFL37He9cTbWsn4Jwl4NsIVQ3TqePyM1Oee+4yW5vbOC25e+c+7/3hBjduXOPO/QO+c7fhlR8uKcMWzSxwfAgpQYoRIeFIJDzOrUJcJS09BasWFdKE0ECy2Ryqirp7JL9PkiM0rRFkzKCaMt0aMZnAR+8tsXYsnT8hDkggC2ABoohEJqM1LuxeoPADUmtt5M0JKRD1J84I3X5UwXnPaH3AZKtiur0GBArvsOmHc1BH2x4BNU4GeN93+yqQrrOzNWE07ybpTIUyeyZnkCwima+NzzMg7pSgxBjVhCbgcVA4pltDJqMdzu9d4c7H17l38AEHBzc5OLhLWR0yWouMRkOGKwWhmCNuTigWCA1NXLJs5ngNFNUaZbFCCGNUx4Rwj7puGQ6gmQMCKrA5Dexd3OK7zz/N1RefYrq9wq07N/nNa7/j2psH3LqRuHcw5+jwCClhb8+T2hJfWGhHABFIKfYrZ1GxehFNBZoCjspaa2G5DRggKYEuQGaoPwS3BAJCxbCecm5nynTq+fiDSFJrpXI6fGXJcfscVQHrkxU21jcpwwBrTW8vihbY6iwQFftZFdRathweHvPBjQ8pioRoIrhAivdQDhEpERfY3NhlUHlEbCm2c/Wp71iwc4rdo3jwUubMkEUk81jS99wSBCQQXIEA9dq6aGp1d/oMh/s3uHv3fd659ls+ev8dfj/bR9MBozGc31tnZ+cc6xNPUbWEkChLWwLcRmG+UEJY5+bHDb/61du8+aYyO4bRWsGFvS2ef+kZXv7TZ3n6mT0uP3OeS0/vcO/+bf7ub/+ef/6nt7n+ttIugVQhBOq6Jc5LUqxAZog7tLxBZ8wBs/MCyDG4Q4uVydyeh+7FfiNAHZbfCKSkCEpdDdnd2WVrYxPvbrJsBBtLeFpEupig2vCo6XSd9ckWVbGCSAlYp2Nr7tjjMHMQ0Nhwf7/h169dIzb/wGQ0AFU8wSr0nSMUgUtPX+bPf/wqly6tUZWK6skHAUAknBQdPnwhMmeJLCKZx5ZeSABEQBPMj1QXs0RZrDHeGDKe7PH05RdYzO9y+9a7vP/hm1x/7w1+/dq7HBz8J8h9BiuJyXiN9Y0xw7UhOE/TwPX33uXttz7kjddvsHNuzNXvXeLKle/zwgvf57nv7LF3ccRwpcSHSCgSx8czyykkhyPidIBnhLJE4xGx8WhS8HMQCyc9RG9LXQPuGFyFJbN7ehFRUMHmfXTeglryvAgVW1u7TNa38P6mXRd6EcHEAwVpUIWqGHBu+zyj0aa1KdH+GGDJ9NTZ9tQ9bNnw4f05v/nVNd54/Zq1ZQFqX9AmG8hVDTw//skrfPvKVS7sPQOlnfejFeoiQZJGBeur1T+fOTtkEck81piQWPpWBIoCwHW5Y4+mASkFynLI+Yu77Oxe5dkrt7h160P2797k5sfXOLj3IUfHh7z9+/sczw6ZzWcsm5aqWmF98iKv/uVf8NTFKzx18Qpra5tM1rdYWS1wvkWIeA+qxxBnOF0lxoImRhIJaEkscbTdrPIEsjTjDGa0+wrAE1GJZsBJp57r6UQAOgEpQQt8MA8CKZl0s0UGA8d8YXkXKxaEXgh6warrIdvTc6wM10AcSTxOBSVhs0S6PJFLoAuIVu0v4pkfRxZzcApOhbqINFFRD2UVmR21OBcoy7o759j9C10+HfEiOal+tskiknns8d5JilERtcgNoCpIcqgIzheoK0DAFSWjyQora7s8damhiQtmi0Pm82PaZkkTlzTNAkWpqwGDwZBQFpTlgLoekqLiXUFVVKhG2rZBnAcqnNwjtpUl3wWkT2LrAnEJ55PVUACorTQjlZAC0JgHYmuVuofHqsbpbK/adiT7uQ9nKWb0FSCyurrGdLrFYKXk7sECE6VOOEj2O+AcrI0HTLe3GQxtrouIhcusJqWz7ScmPmH1Iw7VgKAUzqEpITjatiDpHOcU5wSxyVaodjkP6YXExEOjai5APPtkEck89qTUqkiD0mJt2B3iAirOwkd4M4SiqBPEBZwXUiqo3AhfT1lZi4QiIKK0sUVQUowUwQZMNe2C4JzZddSEggLnKgCW7RzVCnG1GXfAZqI70LbrQZiwmemOPgRFqu38VCC1WK6iF4eAeRv2Oe2HhgchJkC7YVgn4abEaLTGzs42q2sl4uZIau3YAqIKYqn2EITxZMBkY0xVl4jraknorlmqTeBORKwTNw2YGAiaBOtNBt4VOCIxLbH+Z4nlck4b5xRFiSl8g2qrIkF6ISFzpskiknnsMcOXEKLVtAHd7FrEgSWwBUVJ2AAmRRHX3XE7j0uFiQ4gzlYJCZEktn8fPK6rr0gpgkvEtETwCILvDrxsl+DNqDonxLjEeaFNShOhaRXnPaqK80pVO+bzFnERVUUcxNggAm3bmuHHzkE8qCacYPv3pjmoIpL6C4FzjnM7U7amY15/4x7iFGtDcrIJAvgA48mQremYonR2nUgslw3O1ZBWiW2Nxr5OxwGepCCdR5KSIgqOZCcjSgjm5VjleouTSGQBUmKelKfPjWQv5OyTRSTz2GOrfOYKvgvHYHfnIlj/KHvGgkD9UllFu/CKIOC7PAAO6VclOQdihhsxCQIQZ/fk3mEiJErwBd4F2tiayAgIyYy9mMEvCiEET/BK0oY2Kq3eA6eEUkGVogQkUpSC8wnnGnyB9QEzTUEcqHSnJx4b+rRAEZxTyrJiOt1iazqmrK6zWNr7TiNAWRfs7G4y3d6kLAKYhAKKVbhXOCm6a5gQFyHO8aEkJRMN7UQZILEArJ9WGxMxtigt4k5Xq3Shre5aZs4+WUQyTwQitaSo6j7lzjYmVUTtbpmuUA+wGL3iabstnT3E0Rf0mV01cbF3C4IjJvBS4iQQUySqgpTU9YByUEJY2i4T+ArKGny5ZLa4x2zu8UVLNYRmFmkVfGnm2xUQdc5yeYQHWj3uFMtO19vpdV6IYz5raBql8EKKCSeOwg8ZjzY4d26Dralw65YZefvQHQKjtZrze7usrAyJEompoXQVRVEzm99l0exTVHOqQaJNQFI0Kj7MT9YFCHZ6J/8K+AIGQ6EoQbXFCiX7sFu/tdJPOOy+DZzYdMvM2SKLSOaJQeBTO8V6Z7/HpAqe4ETaFNXCQP1dsRm2B3fLghOw6ot+dzahT4AYBSRQFEGWi6Qqtqz4+e9e5ec/v8P+/gG0BbG1inaVQ55+ZsyFvYusrRb87Kd/xebmLY5bx2wxI/gWYmS1Krl69RKj0SYSGn70ox+yOnyK2NTEVnDO2flJ5IUXvsfe7mWqchXnSvscIoBnunmRH73yZwyHI45nDaoBuhBU9wlYXRvw0osvMRyuoMl3rwfAUYSC8xc2+emrP2D7/BrzRUubBMVTFFWXa0pYpX2DSIvThFKgaUgIFVe+/Sznzu0i3mRa8HiKk2PYeST7PLiTEBeZM0X+QjNPDI8maR8VE4AUVU/LheUSTodWHtpF90xv8ASrozC8E0lRrRcLyjLe5vbBWxwdfUxKLakRHJ6qFubtbepBw/b6EK+e/XsF948CjVPatKAI4FMgqGdYe8bjQJIZd+7OWCxWEAbENqHaElNLipG1tQnTrV0GgxFoN2jLCaqRpjnk9p0POTy6T8KMP3geNHFMeC+MRiuMx2OqYohQEpMjRY/39zlevMPt2+9zODsGHCoOXEHwFSnaZzYRiQgtjgbVgpRWSclT1zXb27sMB+u0KRBkFZEV5JTHodqqdp6gtUTJInLWyF9o5olDU1Rxn22MHhWbHvEimlrLFKt2f/0CuE8Yt6itCpGUugQFiVYPEHcAsiClRGo9wdWUwbOM+0TuUwi4WIAbEylZMENcQ3CCpAIfB50HNCNxhJMSZISqgCasSDAh0q/eKhEpELFcTlLQ1IIskTBHJBJTOhERJXSfiS6X0a9CGyBUtNHjpMS5GTHdBBbg7HJZd6+AYMfuL4jNZ2mRrhlkf6yYlOBrHDVNrCjCCFJpxz4ZUBVVu4mUWUTOJjmclXkiSNoonX+htKguehXAQifGQ0tLe3ekQ1u13HnfsbYTkU8zbEnnCAvElcQoeGfBIBu9WxN8IFEj1KQkOAYEt4GgIB6RIc45EvfxJwOfKpxbwYr5GpzMsEaIA4SE+LYTkRaREtXCjLmrLF+RMDHxioqJhWpD8GDXIHQG/sHHSZoQp5gXEnCuJPiBpLjQIA7EpkWqKIUrUDwpCra0WbCFbwnrJtyisgA9xtY3CFCiVAglpK43lnISdhTxknTZfXeZs0gWkcwTgeB4kNt4+JVP40RIPuVl8UE09e1UPikgAA6PSLDjOsufCBVWgaGAx0mBqi2JRYaI1NA5QakrEvSyiutWfyEBKLtNnD0E+saEfZ2JFe95+noTm5UOdhIORLEluAHVlj5xfbLPUx9asGXFFrKz12JaquU8SsBWYKmC9b6y1WD9uFzbs2DeWAAJiFSgYKko80pEPAq47rqfDjXad/fZ1zrzZJO/1EzmU7CVRZ3H0gmHovTN6lUV1W6FF2DV4P277T0n22JaJuLolygbvfEXe5zkY04/f/rfR7H9P5zzeZj+/IzP2s+XwVavffLc7F/vs1B808ieSCbzmZw2+CYkIkpKvYho9zydd2F1KyIPxMXu8MFmtMPDNvbRnx81zJ9Hv93p83yYTy49+D+g81IyGcgiksl8Br2RPH0nDyA4J6SUHhIL6ay1LdF9QL+NquKcO9nuk5wWkS/JV3zbV0NwzoZOZTKQRSST+cJYcxCjF4tHRUQQC191HskfH+GTQpfJfH18HX/lmcwTSV9x/T/zaP7i0d+/DF/lPfD1isinr2bLfHPJnkgm85l8vq3s89YPvI5Pvud0cvuP4538MfaZyXwxPjsjl8lkMpnM55A9kUzmf8EX8Sy+yDaZzJNK/uvOZB4TVK0A8suQ8xOZ/29yOCuTyWQyX5ksIplMJpP5ymQRyWQymcxXJotIJpPJZDKZTCaTyWQymUwmk8lkMplMJpPJZDKZTCaTyWQymUwmk8lkMplMJpPJZDLfcP4bul00ZyTVp54AAAAASUVORK5CYII=;" vertex="1" parent="1">
          <mxGeometry x="580" y="180" width="214.72" height="151" as="geometry" />
        </mxCell>
      </root>
    </mxGraphModel>
  </diagram>
</mxfile>
